<?xml version="1.0" encoding="utf-8"?>
<!-- Generator: Adobe Illustrator 24.1.2, SVG Export Plug-In . SVG Version: 6.00 Build 0)  -->
<svg version="1.1" xmlns="http://www.w3.org/2000/svg" xmlns:xlink="http://www.w3.org/1999/xlink" x="0px" y="0px"
	 viewBox="0 0 3401.57 1913.39" style="enable-background:new 0 0 3401.57 1913.39;" xml:space="preserve">
<style type="text/css">
	.st0{fill:#FFFFFF;}
	.st1{fill:#F5F5F5;}
	.st2{fill:#E1E1E1;}
	.st3{fill:#ECECEC;}
	.st4{fill:#1A2E35;}
	.st5{fill:#FAFAFA;}
	.st6{fill:#1976D2;}
	.st7{opacity:0.3;}
	.st8{fill:#375A64;}
	.st9{fill:#C07560;}
	.st10{fill:#7C4236;}
	.st11{opacity:0.6;}
</style>
<g id="Слой_2">
	<rect class="st0" width="3401.57" height="1913.39"/>
</g>
<g id="Слой_1">
	<g>
		<g>
			<g>
				<g>
					<polygon class="st1" points="2369.3,458.4 2189.4,604.05 2207.28,663.92 2190.97,694.83 2289.23,744.4 2304.85,712.28 
						2363.41,687.06 					"/>
				</g>
				<g>
					<g>
						<path class="st2" d="M2369.3,458.4c-0.14,6.39-2.13,94.21-5.18,228.69l-0.01,0.46l-0.42,0.18
							c-18.6,8.02-38.22,16.48-58.55,25.25l0.38-0.36c-4.94,10.17-10.23,21.07-15.61,32.13l-0.34,0.7l-0.7-0.35
							c-16.09-8.11-32.98-16.63-50.16-25.3c-16.33-8.24-32.39-16.35-48.1-24.27l-0.72-0.36l0.37-0.71
							c5.53-10.47,10.97-20.78,16.32-30.9l-0.06,0.58c-6.17-20.72-12.13-40.72-17.84-59.88l-0.14-0.47l0.37-0.3
							C2294.55,518.54,2364.31,462.42,2369.3,458.4c-4.97,4.05-74.38,60.61-179.44,146.22l0.23-0.77
							c5.73,19.15,11.72,39.14,17.92,59.86l0.09,0.3l-0.15,0.28c-5.34,10.13-10.77,20.44-16.3,30.91l-0.35-1.07
							c15.71,7.92,31.77,16.02,48.1,24.26c17.18,8.67,34.06,17.19,50.15,25.31l-1.04,0.35c5.38-11.06,10.68-21.95,15.63-32.12
							l0.12-0.25l0.25-0.11c20.34-8.74,39.97-17.17,58.58-25.17l-0.43,0.63C2366.58,552.59,2369.12,464.78,2369.3,458.4z"/>
					</g>
				</g>
			</g>
			<g>
				<path class="st2" d="M2327.41,628.32c-8.08,16.62-28.1,23.31-44.71,14.92c-16.61-8.38-23.53-28.65-15.45-45.28
					c8.08-16.62,28.1-23.31,44.71-14.92C2328.58,591.43,2335.49,611.7,2327.41,628.32z"/>
			</g>
			<g>
				<g>
					<path class="st2" d="M2369.3,458.4c0.39,0.19-15.4,34.99-35.27,77.71c-19.88,42.74-36.31,77.22-36.7,77.03
						c-0.39-0.19,15.4-34.98,35.28-77.72C2352.48,492.7,2368.91,458.21,2369.3,458.4z"/>
				</g>
			</g>
			<g>
				<path class="st2" d="M1938.62,1347.18L1938.62,1347.18c-26.37-13.31-37.43-45.43-24.75-71.9l261.79-546.32l95.89,48.38
					l-261.53,545.78C1997.23,1349.8,1965.2,1360.59,1938.62,1347.18z"/>
			</g>
			<g>
				<polygon class="st2" points="2280.76,781.99 2168,725.09 2187.06,685.89 2299.83,742.78 				"/>
			</g>
		</g>
	</g>
	<g>
		<g>
			<g>
				<polygon class="st1" points="2131.71,144.57 2070.91,364.91 2145.42,418.04 2312.98,458.86 2379.41,210.09 				"/>
			</g>
			<g>
				<path class="st3" d="M2103.28,355.05l-32.37,9.86c0,0,10.2,19.34,26.17,30.5c15.96,11.15,31.58,18.55,48.34,22.64
					C2145.42,418.04,2109.61,397.23,2103.28,355.05z"/>
			</g>
		</g>
		<g>
			<g>
				<path class="st2" d="M2331,281.45c-0.11,0.41-42.36-10.39-94.36-24.12c-52.02-13.73-94.09-25.19-93.98-25.6
					c0.11-0.41,42.35,10.38,94.37,24.12C2289.03,269.57,2331.1,281.04,2331,281.45z"/>
			</g>
		</g>
		<g>
			<g>
				<path class="st2" d="M2321.2,315.2c-0.11,0.41-42.36-10.39-94.36-24.12c-52.02-13.73-94.09-25.19-93.98-25.6
					c0.11-0.41,42.35,10.39,94.37,24.12C2279.23,303.32,2321.31,314.78,2321.2,315.2z"/>
			</g>
		</g>
		<g>
			<g>
				<path class="st2" d="M2314.3,345.58c-0.11,0.41-42.36-10.39-94.36-24.12c-52.02-13.73-94.09-25.19-93.98-25.6
					c0.11-0.41,42.35,10.39,94.37,24.12C2272.34,333.71,2314.41,345.17,2314.3,345.58z"/>
			</g>
		</g>
		<g>
			<g>
				<path class="st2" d="M2306.45,374.52c-0.11,0.41-42.36-10.39-94.36-24.12c-52.02-13.73-94.09-25.19-93.98-25.61
					c0.11-0.41,42.35,10.39,94.37,24.12C2264.48,362.65,2306.56,374.11,2306.45,374.52z"/>
			</g>
		</g>
	</g>
	<g>
		<g>
			<g>
				<polygon class="st1" points="2354.05,1026.15 2307.67,1194.2 2364.5,1234.73 2492.3,1265.86 2542.96,1076.12 				"/>
			</g>
			<g>
				<path class="st3" d="M2332.36,1186.68l-24.69,7.52c0,0,7.78,14.75,19.96,23.26c12.18,8.51,24.09,14.15,36.87,17.26
					C2364.5,1234.73,2337.19,1218.85,2332.36,1186.68z"/>
			</g>
		</g>
		<g>
			<g>
				<path class="st2" d="M2506.04,1130.55c-0.08,0.31-32.31-7.92-71.97-18.39c-39.68-10.47-71.76-19.22-71.68-19.53
					c0.08-0.31,32.3,7.92,71.98,18.39C2474.03,1121.49,2506.12,1130.23,2506.04,1130.55z"/>
			</g>
		</g>
		<g>
			<g>
				<path class="st2" d="M2498.57,1156.29c-0.08,0.31-32.31-7.92-71.97-18.39c-39.68-10.47-71.76-19.22-71.68-19.53
					c0.08-0.31,32.3,7.92,71.98,18.39C2466.56,1147.23,2498.65,1155.97,2498.57,1156.29z"/>
			</g>
		</g>
		<g>
			<g>
				<path class="st2" d="M2493.31,1179.46c-0.08,0.31-32.31-7.92-71.97-18.39c-39.67-10.47-71.76-19.22-71.68-19.53
					c0.08-0.31,32.3,7.92,71.98,18.39C2461.3,1170.41,2493.39,1179.15,2493.31,1179.46z"/>
			</g>
		</g>
		<g>
			<g>
				<path class="st2" d="M2487.32,1201.54c-0.08,0.31-32.31-7.92-71.97-18.39c-39.67-10.47-71.76-19.22-71.68-19.53
					c0.08-0.31,32.3,7.92,71.98,18.39C2455.31,1192.48,2487.4,1201.22,2487.32,1201.54z"/>
			</g>
		</g>
	</g>
	<g>
		<g>
			<g>
				<path class="st2" d="M2646.68,412.25l-58.28-24.61l-13.72,13.13c-4.53,4.39-7.54,8.33-9.01,11.82
					c-1.95,4.62-1.53,8.82,1.28,12.58c1.64,2.22,6.62,5.47,14.95,9.75l-1.9,4.5l-54.87-23.17l1.9-4.5c6.29,1.6,12.2,1.21,17.71-1.2
					c5.51-2.41,13.71-8.71,24.62-18.92l114.59-106.74l2.31,0.98l2.38,160.42c0.26,15.21,1.52,25.25,3.77,30.12
					c1.7,3.68,4.97,6.79,9.83,9.32l-1.9,4.5l-79.82-33.7l1.9-4.5l3.28,1.39c6.4,2.7,11.28,3.71,14.64,3.02
					c2.33-0.54,4.01-2.03,5.04-4.47c0.62-1.46,1.01-3.06,1.17-4.81c0.14-0.8,0.21-4.36,0.2-10.67L2646.68,412.25z M2646.34,401.5
					l-0.59-67.2l-49.3,46.14L2646.34,401.5z"/>
			</g>
		</g>
	</g>
	<g>
		<g>
			<path class="st3" d="M2787.04,878.9l-229.6-6.73c-4.93-0.14-8.8-4.26-8.66-9.18l6.08-207.35c0.14-4.93,4.26-8.8,9.18-8.66
				l229.6,6.73c4.93,0.14,8.8,4.26,8.66,9.18l-6.08,207.35C2796.08,875.17,2791.96,879.05,2787.04,878.9z"/>
		</g>
		<g>
			<path class="st2" d="M2550.14,816.37l83.57-56.08c6.5-5.2,15.82-4.84,21.91,0.83l41.17,21.14l58.74-57.44
				c7.4-6.6,18.82-5.63,25,2.13l19.19,24.09l-0.92,98.71c-0.15,15.85-13.3,28.48-29.15,27.98l-193.11-6.11
				c-15.65-0.5-27.92-13.63-27.34-29.28L2550.14,816.37z"/>
		</g>
		<g>
			
				<ellipse transform="matrix(0.6787 -0.7344 0.7344 0.6787 328.8126 2170.5322)" class="st2" cx="2644.95" cy="709.49" rx="24.74" ry="24.74"/>
		</g>
	</g>
	<g>
		<g>
			<g>
				<g>
					<path class="st1" d="M1681.66,1569.65c21.75,55.22-5.48,117.66-60.83,139.47c-55.35,21.8-117.86-5.29-139.61-60.51
						c-21.75-55.22,5.48-117.66,60.83-139.47C1597.4,1487.34,1659.91,1514.43,1681.66,1569.65z"/>
				</g>
			</g>
			<g>
				<g>
					<path class="st3" d="M1657.82,1579.05c16.58,42.08-4.18,89.66-46.36,106.28c-42.18,16.62-89.81-4.03-106.39-46.11
						c-16.58-42.08,4.18-89.67,46.36-106.28C1593.61,1516.32,1641.24,1536.97,1657.82,1579.05z"/>
				</g>
			</g>
			<g>
				<g>
					<g>
						<path class="st2" d="M1656.86,1576.66c-0.46,0.2-2.1-3.02-5.64-8.39c-3.55-5.32-9.17-12.82-18.03-19.94
							c-4.42-3.54-9.61-6.97-15.58-9.9c-5.98-2.86-12.69-5.29-20-6.69c-3.65-0.71-7.43-1.23-11.32-1.4
							c-3.88-0.19-7.86-0.17-11.88,0.26c-4.01,0.41-8.08,1.05-12.12,2.11c-4.03,1.05-8.05,2.41-12,4.07
							c-3.92,1.72-7.67,3.71-11.21,5.91c-3.54,2.21-6.8,4.72-9.86,7.35c-3.07,2.63-5.82,5.5-8.35,8.46
							c-2.54,2.94-4.77,6.05-6.76,9.19c-4,6.27-6.85,12.81-8.88,19.13c-1.97,6.34-3.05,12.47-3.51,18.12
							c-0.91,11.32,0.68,20.56,2.11,26.79c1.47,6.25,2.68,9.66,2.22,9.86c-0.34,0.15-2.32-2.94-4.57-9.17
							c-2.2-6.2-4.57-15.72-4.2-27.72c0.2-5.98,1.07-12.53,2.95-19.35c1.93-6.79,4.79-13.87,8.95-20.69c2.06-3.41,4.39-6.79,7.08-10
							c2.67-3.22,5.6-6.35,8.88-9.22c3.27-2.87,6.78-5.61,10.59-8.01c3.8-2.41,7.84-4.55,12.07-6.41c4.26-1.8,8.59-3.26,12.95-4.37
							c4.36-1.12,8.76-1.78,13.09-2.18c4.34-0.41,8.63-0.39,12.8-0.11c4.18,0.25,8.24,0.88,12.13,1.72
							c7.81,1.67,14.92,4.45,21.18,7.71c6.24,3.32,11.61,7.19,16.09,11.15c8.97,7.97,14.27,16.23,17.26,22.09
							C1656.31,1572.95,1657.19,1576.52,1656.86,1576.66z"/>
					</g>
				</g>
			</g>
		</g>
		<g>
			<g>
				<g>
					<g>
						<path class="st2" d="M1608.03,1651.28l5.43,13.23l-11.81,4.85l-5.29-12.87c-11.98,4.09-24.7,5.04-33.28,2.63l0.57-17.08
							c7.7,1.95,17.51,1.64,26.36-1.03l-8.1-19.72c-14.42,2.2-30.85,3.84-37.79-13.05c-5.14-12.52-0.46-27,17.32-36.78l-5.38-13.11
							l11.81-4.85l5.29,12.88c9.15-2.93,18.74-4.11,26.93-2.64l0.06,16.95c-7.43-0.95-14.39-0.44-20.59,1.28l8.25,20.08
							c14.37-2.32,30.57-3.86,37.41,12.79C1630.26,1627.11,1625.65,1641.43,1608.03,1651.28z M1574.78,1603.94l-6.89-16.77
							c-5.68,3.99-6.75,8.43-5.15,12.33C1564.44,1603.63,1568.91,1604.42,1574.78,1603.94z M1606.79,1624.06
							c-1.7-4.13-6.04-4.97-11.85-4.66l6.69,16.3C1607,1631.97,1608.34,1627.83,1606.79,1624.06z"/>
					</g>
				</g>
			</g>
		</g>
	</g>
	<g>
		<g>
			<g>
				<g>
					<path class="st1" d="M793.31,931.18c21.75,55.22-5.48,117.66-60.83,139.47c-55.35,21.8-117.86-5.29-139.61-60.51
						c-21.75-55.22,5.48-117.66,60.83-139.47C709.05,848.87,771.56,875.96,793.31,931.18z"/>
				</g>
			</g>
			<g>
				<g>
					<path class="st3" d="M769.46,940.57c16.58,42.08-4.18,89.66-46.36,106.28c-42.18,16.62-89.81-4.03-106.39-46.11
						c-16.58-42.08,4.18-89.67,46.36-106.28C705.25,877.85,752.88,898.49,769.46,940.57z"/>
				</g>
			</g>
			<g>
				<g>
					<g>
						<path class="st2" d="M768.5,938.19c-0.46,0.2-2.1-3.02-5.64-8.39c-3.55-5.32-9.17-12.82-18.03-19.94
							c-4.42-3.54-9.61-6.97-15.58-9.9c-5.98-2.86-12.69-5.29-20-6.69c-3.65-0.71-7.43-1.23-11.32-1.4
							c-3.88-0.19-7.86-0.17-11.88,0.26c-4.01,0.41-8.08,1.05-12.12,2.11c-4.03,1.05-8.05,2.41-12,4.07
							c-3.92,1.72-7.67,3.71-11.21,5.91c-3.54,2.21-6.8,4.72-9.86,7.35c-3.07,2.63-5.82,5.5-8.35,8.46
							c-2.54,2.94-4.77,6.05-6.76,9.19c-4,6.27-6.85,12.81-8.88,19.13c-1.97,6.34-3.05,12.47-3.51,18.12
							c-0.91,11.32,0.68,20.56,2.11,26.79c1.47,6.25,2.68,9.66,2.22,9.86c-0.34,0.15-2.32-2.94-4.57-9.17
							c-2.2-6.2-4.57-15.72-4.2-27.72c0.2-5.98,1.07-12.53,2.95-19.35c1.93-6.79,4.79-13.87,8.95-20.69c2.06-3.41,4.39-6.79,7.08-10
							c2.67-3.22,5.6-6.35,8.88-9.22c3.27-2.87,6.78-5.61,10.59-8.01c3.8-2.41,7.84-4.55,12.07-6.41c4.26-1.8,8.59-3.26,12.95-4.37
							c4.36-1.12,8.76-1.78,13.09-2.18c4.34-0.41,8.63-0.39,12.8-0.11c4.18,0.25,8.24,0.88,12.13,1.72
							c7.81,1.67,14.92,4.45,21.18,7.71c6.24,3.32,11.61,7.19,16.09,11.15c8.97,7.97,14.27,16.23,17.26,22.09
							C767.96,934.48,768.84,938.04,768.5,938.19z"/>
					</g>
				</g>
			</g>
		</g>
		<g>
			<g>
				<g>
					<g>
						<path class="st2" d="M719.67,1012.81l5.43,13.23l-11.81,4.85l-5.29-12.87c-11.98,4.09-24.7,5.04-33.28,2.63l0.57-17.08
							c7.7,1.95,17.51,1.64,26.36-1.03l-8.1-19.72c-14.42,2.2-30.85,3.84-37.79-13.05c-5.14-12.52-0.46-27,17.32-36.78l-5.38-13.11
							l11.81-4.85l5.29,12.88c9.15-2.93,18.74-4.11,26.93-2.64l0.06,16.95c-7.43-0.95-14.39-0.44-20.59,1.28l8.25,20.08
							c14.37-2.32,30.57-3.86,37.41,12.79C741.9,988.64,737.29,1002.95,719.67,1012.81z M686.43,965.46l-6.89-16.77
							c-5.68,3.99-6.75,8.43-5.15,12.33C676.09,965.15,680.55,965.94,686.43,965.46z M718.43,985.58c-1.7-4.13-6.04-4.97-11.85-4.66
							l6.69,16.3C718.65,993.49,719.98,989.36,718.43,985.58z"/>
					</g>
				</g>
			</g>
		</g>
	</g>
	<g>
		<g>
			<path class="st4" d="M464.68,387.57c0.08,0.33,0.14,0.66,0.22,0.99l-0.16,0.07C464.72,388.28,464.7,387.93,464.68,387.57z"/>
		</g>
	</g>
	<g>
		<g>
			<path class="st0" d="M2771.5,1787.68c0,0,2.55-0.11,7.77-0.16c5.25-0.03,13.16-0.09,23.87-0.16v0.63
				c-117.05,0.11-582.2,0.56-1137.93,1.1c-323.04-0.16-615.44-0.31-827.12-0.41c-105.81-0.19-191.44-0.34-250.65-0.45
				c-29.57-0.11-52.54-0.2-68.15-0.27c-7.77-0.06-13.7-0.11-17.72-0.14c-3.99-0.05-6.04-0.14-6.04-0.14s2.05-0.1,6.04-0.15
				c4.02-0.03,9.95-0.08,17.72-0.14c15.6-0.06,38.57-0.15,68.15-0.27c59.21-0.11,144.84-0.26,250.65-0.45
				c211.68-0.11,504.08-0.25,827.12-0.41c555.72,0.54,1020.87,0.99,1137.93,1.1v0.63c-10.71-0.07-18.61-0.12-23.87-0.16
				C2774.04,1787.79,2771.5,1787.68,2771.5,1787.68z"/>
		</g>
	</g>
	<g>
		<g>
			<g>
				<path class="st5" d="M1273.36,230.63h-204.48c-9.9,0-17.78-8.27-17.31-18.16l4.15-86.63c0.44-9.24,8.06-16.5,17.31-16.5h204.48
					c9.9,0,17.78,8.27,17.31,18.16l-4.15,86.63C1290.23,223.37,1282.61,230.63,1273.36,230.63z"/>
			</g>
			<g>
				<g>
					<path class="st4" d="M1273.36,230.63c-0.04-0.18,2.52,0.18,6.75-1.61c2.05-0.94,4.51-2.48,6.54-5.12
						c2.08-2.57,3.59-6.25,3.65-10.58c0.76-17.58,1.86-42.84,3.21-74c-0.07-7.67,2.52-16.6-3.2-23.08c-2.55-3.17-6.4-5.39-10.6-5.9
						c-4.2-0.32-8.89-0.07-13.43-0.13c-18.39,0.03-38.04,0.06-58.71,0.1c-41.36,0.03-86.81,0.05-134.52,0.08
						c-5.63-0.02-11.1,3.06-13.93,7.85c-1.44,2.37-2.23,5.08-2.36,7.85c-0.14,2.92-0.28,5.84-0.42,8.74
						c-0.56,11.61-1.11,23.04-1.66,34.28c-0.55,11.24-1.08,22.28-1.61,33.09c-0.13,2.7-0.26,5.39-0.39,8.07
						c-0.19,2.73-0.24,5.16,0.52,7.59c1.39,4.79,5.03,8.84,9.59,10.61c2.29,0.93,4.65,1.24,7.18,1.2c2.55,0,5.09,0.01,7.61,0.01
						c5.04,0.01,10.01,0.02,14.9,0.02c9.79,0.02,19.3,0.04,28.5,0.05c18.38,0.05,35.51,0.09,51.15,0.13
						c31.2,0.14,56.48,0.25,74.07,0.33c8.66,0.08,15.43,0.15,20.14,0.2c2.23,0.04,3.96,0.08,5.24,0.1
						C1272.76,230.56,1273.36,230.59,1273.36,230.63s-0.6,0.07-1.78,0.11c-1.27,0.03-3.01,0.06-5.24,0.1
						c-4.71,0.05-11.47,0.11-20.14,0.2c-17.59,0.08-42.87,0.19-74.07,0.33c-15.65,0.04-32.77,0.08-51.15,0.13
						c-9.2,0.02-18.71,0.03-28.5,0.05c-4.9,0.01-9.87,0.02-14.9,0.02c-2.52,0-5.05,0.01-7.61,0.01c-2.57,0.05-5.39-0.28-7.9-1.32
						c-5.11-1.97-9.19-6.48-10.77-11.86c-0.87-2.65-0.8-5.65-0.61-8.24c0.13-2.67,0.25-5.36,0.38-8.07
						c0.51-10.81,1.03-21.85,1.56-33.09c0.53-11.24,1.08-22.68,1.63-34.28c0.14-2.9,0.28-5.81,0.42-8.74
						c0.14-3.07,1.03-6.18,2.65-8.84c3.2-5.4,9.38-8.88,15.73-8.86c47.71,0.03,93.16,0.06,134.52,0.08
						c20.67,0.03,40.32,0.07,58.71,0.1c4.64,0.09,9.01-0.16,13.65,0.21c4.63,0.59,8.85,3.06,11.64,6.55
						c2.82,3.47,4.22,7.91,4.03,12.18c-0.21,4.09-0.41,8.09-0.6,11.99c-1.63,31.16-2.96,56.4-3.88,73.97
						c-0.13,4.45-1.77,8.32-3.98,10.93c-2.15,2.69-4.73,4.21-6.86,5.12c-2.16,0.89-3.95,1.1-5.12,1.23
						C1273.97,230.68,1273.36,230.63,1273.36,230.63z"/>
				</g>
			</g>
		</g>
		<g>
			<g>
				<polygon class="st6" points="1909.51,231.33 1918.26,176.58 1955.56,154.91 1986.18,187.75 1976.95,243.89 				"/>
			</g>
		</g>
		<g>
			<g>
				<polygon class="st2" points="2081.93,289.16 2036.68,1282.54 1306.81,1261.8 1263.39,1185.95 1341.88,262.72 2021.13,217.76 
									"/>
			</g>
			<g class="st7">
				<polygon points="2036.68,1282.54 1975.87,1211.14 2021.13,217.76 2081.93,289.16 				"/>
			</g>
			<g>
				<g>
					<g>
						<polygon class="st5" points="2021.13,217.76 1975.87,1211.14 1263.39,1185.95 1317.28,207.71 						"/>
					</g>
					<g>
						<g>
							<path class="st4" d="M2021.13,217.76c-6.99-0.09-276.64-3.61-703.85-9.19l0.86-0.8c-15.01,273.37-33.59,611.98-53.7,978.25
								l-1.01-1.11c3.71,0.13,7.73,0.27,11.76,0.42c250.69,8.9,488.65,17.34,700.71,24.87l-0.99,0.91
								C2002.21,624.44,2020.73,226.23,2021.13,217.76c-0.38,8.47-18.14,406.72-44.3,993.42l-0.04,0.94l-0.95-0.03
								c-212.06-7.47-450.03-15.85-700.72-24.68c-4.03-0.14-8.05-0.28-11.76-0.42l-1.07-0.04l0.06-1.07
								c20.25-366.26,38.98-704.87,54.09-978.23l0.05-0.82l0.82,0.01C1744.5,213.47,2014.14,217.65,2021.13,217.76z"/>
						</g>
					</g>
				</g>
			</g>
			<g>
				<path class="st2" d="M1392.18,447.03l263.04,7.71c1.3,0.04,2.38-0.98,2.41-2.28l0.69-23.55c0.04-1.3-0.98-2.38-2.28-2.41
					L1393,418.79c-1.3-0.04-2.38,0.98-2.41,2.28l-0.69,23.55C1389.86,445.91,1390.88,446.99,1392.18,447.03z"/>
			</g>
			<g>
				<path class="st2" d="M1389.78,501.64l263.03,7.71c1.3,0.04,2.38-0.98,2.41-2.28l0.69-23.55c0.04-1.3-0.98-2.38-2.28-2.41
					l-263.04-7.71c-1.3-0.04-2.38,0.98-2.41,2.28l-0.69,23.55C1387.46,500.52,1388.48,501.6,1389.78,501.64z"/>
			</g>
			<g>
				<path class="st2" d="M1387.38,556.25l263.04,7.71c1.3,0.04,2.38-0.98,2.41-2.28l0.69-23.55c0.04-1.3-0.98-2.38-2.28-2.41
					l-263.03-7.71c-1.3-0.04-2.38,0.98-2.41,2.28l-0.69,23.55C1385.06,555.13,1386.08,556.21,1387.38,556.25z"/>
			</g>
			<g>
				<path class="st2" d="M1384.98,610.85l263.03,7.71c1.3,0.04,2.38-0.98,2.41-2.28l0.69-23.55c0.04-1.3-0.98-2.38-2.28-2.41
					l-263.04-7.71c-1.3-0.04-2.38,0.98-2.41,2.28l-0.69,23.55C1382.66,609.73,1383.68,610.82,1384.98,610.85z"/>
			</g>
			<g>
				<path class="st2" d="M1382.58,665.46l263.04,7.71c1.3,0.04,2.38-0.98,2.41-2.28l0.69-23.55c0.04-1.3-0.98-2.38-2.28-2.41
					l-263.03-7.71c-1.3-0.04-2.38,0.98-2.41,2.28l-0.69,23.55C1380.27,664.34,1381.28,665.42,1382.58,665.46z"/>
			</g>
			<g>
				<path class="st2" d="M1380.18,720.07l263.03,7.71c1.3,0.04,2.38-0.98,2.41-2.28l0.69-23.55c0.04-1.3-0.98-2.38-2.28-2.41
					l-263.04-7.71c-1.3-0.04-2.38,0.98-2.41,2.28l-0.69,23.55C1377.87,718.95,1378.89,720.03,1380.18,720.07z"/>
			</g>
			<g>
				<path class="st2" d="M1377.78,774.67l263.04,7.71c1.3,0.04,2.38-0.98,2.41-2.28l0.69-23.55c0.04-1.3-0.98-2.38-2.28-2.41
					l-263.03-7.71c-1.3-0.04-2.38,0.98-2.41,2.28l-0.69,23.55C1375.47,773.56,1376.49,774.64,1377.78,774.67z"/>
			</g>
			<g>
				<path class="st2" d="M1675.28,728.24l263.04,7.71c1.3,0.04,2.38-0.98,2.41-2.28l0.69-23.55c0.04-1.3-0.98-2.38-2.28-2.41
					L1676.11,700c-1.3-0.04-2.38,0.98-2.41,2.28l-0.69,23.55C1672.97,727.12,1673.99,728.2,1675.28,728.24z"/>
			</g>
			<g>
				<path class="st2" d="M1672.88,782.84l263.03,7.71c1.3,0.04,2.38-0.98,2.41-2.28l0.69-23.55c0.04-1.3-0.98-2.38-2.28-2.41
					l-263.04-7.71c-1.3-0.04-2.38,0.98-2.41,2.28l-0.69,23.55C1670.57,781.72,1671.59,782.8,1672.88,782.84z"/>
			</g>
			<g>
				<path class="st2" d="M1669.99,840.43l263.03,7.71c1.3,0.04,2.38-0.98,2.41-2.28l0.69-23.55c0.04-1.3-0.98-2.38-2.28-2.41
					l-263.04-7.71c-1.3-0.04-2.38,0.98-2.41,2.28l-0.69,23.55C1667.67,839.31,1668.69,840.39,1669.99,840.43z"/>
			</g>
			<g>
				<path class="st2" d="M1667.09,898.01l263.03,7.71c1.3,0.04,2.38-0.98,2.41-2.28l0.69-23.55c0.04-1.3-0.98-2.38-2.28-2.41
					l-263.04-7.71c-1.3-0.04-2.38,0.98-2.41,2.28l-0.69,23.55C1664.78,896.89,1665.8,897.97,1667.09,898.01z"/>
			</g>
			<g>
				<path class="st2" d="M1664.2,955.59l263.03,7.71c1.3,0.04,2.38-0.98,2.41-2.28l0.69-23.55c0.04-1.3-0.98-2.38-2.28-2.41
					l-263.04-7.71c-1.3-0.04-2.38,0.98-2.41,2.28l-0.69,23.55C1661.88,954.47,1662.9,955.55,1664.2,955.59z"/>
			</g>
			<g>
				<path class="st2" d="M1661.3,1013.18l263.04,7.71c1.3,0.04,2.38-0.98,2.41-2.28l0.69-23.55c0.04-1.3-0.98-2.38-2.28-2.41
					l-263.03-7.71c-1.3-0.04-2.38,0.98-2.41,2.28l-0.69,23.55C1658.99,1012.06,1660.01,1013.14,1661.3,1013.18z"/>
			</g>
			<g>
				<path class="st2" d="M1658.41,1070.76l263.04,7.71c1.3,0.04,2.38-0.98,2.41-2.28l0.69-23.55c0.04-1.3-0.98-2.38-2.28-2.41
					l-263.03-7.71c-1.3-0.04-2.38,0.98-2.41,2.28l-0.69,23.55C1656.09,1069.64,1657.11,1070.72,1658.41,1070.76z"/>
			</g>
			<g>
				<path class="st2" d="M1360.47,1113.89l549.13,16.1c5.22,0.15,9.58-3.96,9.73-9.18l0.27-9.33c0.15-5.22-3.96-9.58-9.18-9.74
					l-549.13-16.1c-5.22-0.15-9.58,3.96-9.73,9.18l-0.27,9.33C1351.13,1109.38,1355.24,1113.74,1360.47,1113.89z"/>
			</g>
			<g>
				<path class="st2" d="M1396.48,375.93l182.01,5.34c1.3,0.04,2.38-0.98,2.41-2.28l0.69-23.55c0.04-1.3-0.98-2.38-2.28-2.41
					l-182.01-5.34c-1.3-0.04-2.38,0.98-2.41,2.28l-0.69,23.55C1394.16,374.81,1395.18,375.89,1396.48,375.93z"/>
			</g>
			<g>
				<g>
					<path class="st4" d="M1302.76,1208.35c0,0,1.17,0.11,3.47,0.22c2.35,0.1,5.75,0.25,10.21,0.44c9.04,0.34,22.3,0.84,39.42,1.49
						c34.37,1.21,84.21,2.97,146.32,5.16c124.33,4.2,297.73,10.06,494.26,16.69l1.06,0.04l0.05-1.06
						c1.86-39.28,3.82-80.47,5.81-122.4c10.55-225.3,20.1-429.23,27.01-576.9c3.35-73.79,6.06-133.5,7.94-174.83
						c0.89-20.61,1.58-36.62,2.05-47.54c0.21-5.4,0.37-9.53,0.48-12.37c0.1-2.79,0.09-4.22,0.09-4.22s-0.14,1.42-0.31,4.21
						c-0.16,2.83-0.39,6.96-0.69,12.36c-0.56,10.91-1.39,26.92-2.46,47.52c-2.04,41.32-4.99,101.03-8.63,174.8
						c-7.08,147.66-16.85,351.58-27.65,576.86c-1.98,41.93-3.93,83.12-5.79,122.4l1.11-1.02c-196.54-6.35-369.95-11.95-494.29-15.97
						c-62.12-1.91-111.96-3.45-146.34-4.51c-17.13-0.48-30.39-0.86-39.43-1.12c-4.46-0.1-7.87-0.18-10.22-0.24
						C1303.93,1208.32,1302.76,1208.35,1302.76,1208.35z"/>
				</g>
			</g>
			<g>
				<g>
					<path class="st4" d="M1360.64,1238.08c0,0,1.11,0.11,3.27,0.22c2.22,0.1,5.43,0.25,9.64,0.44c8.54,0.35,21.06,0.86,37.24,1.52
						c32.49,1.24,79.62,3.04,138.45,5.29c117.77,4.32,282.32,10.36,469.67,17.23l1.05,0.04l0.06-1.05
						c2.5-47.4,5.11-96.69,7.77-147.07c11.59-222.3,22.07-423.53,29.67-569.23c3.69-72.81,6.68-131.73,8.74-172.51
						c0.98-20.33,1.75-36.13,2.27-46.91c0.23-5.33,0.41-9.4,0.53-12.2c0.11-2.75,0.11-4.16,0.11-4.16s-0.15,1.4-0.33,4.15
						c-0.17,2.8-0.42,6.87-0.75,12.19c-0.61,10.77-1.51,26.56-2.67,46.89c-2.23,40.77-5.45,99.68-9.43,172.48
						c-7.76,145.7-18.47,346.91-30.3,569.2c-2.65,50.38-5.24,99.68-7.73,147.07l1.1-1.01c-187.35-6.58-351.92-12.35-469.69-16.49
						c-58.84-1.98-105.98-3.56-138.47-4.65c-16.19-0.5-28.71-0.89-37.25-1.15c-4.21-0.11-7.42-0.19-9.64-0.25
						C1361.75,1238.06,1360.64,1238.08,1360.64,1238.08z"/>
				</g>
			</g>
			<g>
				<g>
					<polygon class="st4" points="1596.57,205.07 1607.33,194.54 1735.63,195.17 1741.85,206.9 					"/>
				</g>
				<g>
					
						<rect x="1638.26" y="163.9" transform="matrix(-0.0126 0.9999 -0.9999 -0.0126 1926.3707 -1429.1663)" class="st4" width="61.14" height="145.29"/>
				</g>
				<g>
					<path class="st4" d="M1745.93,273.86l0.12-9.7c0.01-0.69-0.54-1.26-1.24-1.27l-152.86-1.93c-0.69-0.01-1.26,0.54-1.27,1.24
						l-0.12,9.7c-0.01,0.69,0.54,1.26,1.24,1.27l152.86,1.93C1745.35,275.11,1745.92,274.56,1745.93,273.86z"/>
				</g>
				<g>
					<path class="st8" d="M1700.64,252.62c-0.02,0-0.05,0-0.07,0l-63.9-0.81c-1.83-0.02-3.55-0.94-4.58-2.45
						c-1.04-1.51-1.27-3.44-0.63-5.15l18.82-50.61c-8.31-6.19-13.31-15.89-13.46-26.27c-0.26-18.21,14.32-33.39,32.49-33.86
						c9.1-0.27,17.81,3.18,24.33,9.61c6.52,6.43,10.04,15.02,9.93,24.17c-0.13,10.85-5.48,20.83-14.37,26.99l16.8,50.98
						c0.57,1.73,0.27,3.63-0.81,5.1C1704.12,251.77,1702.43,252.62,1700.64,252.62z M1670.19,137.5c-0.26,0-0.52,0-0.78,0.01
						c-15.7,0.4-28.79,14.03-28.56,29.77c0.14,9.59,4.99,18.53,12.99,23.91l1.31,0.89l-19.91,53.55c-0.18,0.5-0.12,1.03,0.18,1.47
						c0.3,0.44,0.78,0.69,1.31,0.7l63.9,0.81c0.57,0,1-0.23,1.31-0.66c0.31-0.42,0.39-0.95,0.23-1.45l-17.78-53.94l1.34-0.84
						c8.52-5.33,13.68-14.49,13.8-24.5c0.1-8.05-3-15.6-8.73-21.25C1685.26,140.48,1677.96,137.5,1670.19,137.5z"/>
				</g>
				<g>
					<g>
						<path class="st8" d="M1740.07,262.84c-0.01-0.04-0.52-0.07-1.46-0.08c-1.08-0.03-2.46-0.06-4.17-0.11
							c-3.78-0.08-8.99-0.19-15.36-0.32c-13.1-0.21-30.96-0.51-50.68-0.83c-19.73-0.22-37.59-0.42-50.69-0.57
							c-6.37-0.02-11.59-0.03-15.36-0.05c-1.71,0.02-3.1,0.04-4.18,0.05c-0.95,0.02-1.46,0.06-1.46,0.1c0,0.04,0.5,0.09,1.45,0.14
							c1.08,0.05,2.46,0.1,4.17,0.18c3.78,0.1,8.99,0.25,15.36,0.42c12.97,0.3,30.89,0.64,50.69,0.92
							c19.79,0.28,37.71,0.45,50.69,0.48c6.49,0.02,11.74,0,15.37-0.06c1.82-0.04,3.22-0.06,4.18-0.12
							C1739.58,262.93,1740.07,262.88,1740.07,262.84z"/>
					</g>
				</g>
				<g>
					<g>
						<path class="st8" d="M1742.14,205.64c-0.01-0.04-0.52-0.07-1.46-0.08c-1.08-0.03-2.46-0.06-4.17-0.11
							c-3.78-0.08-8.99-0.19-15.36-0.32c-13.1-0.21-30.96-0.51-50.68-0.83c-19.73-0.22-37.59-0.42-50.69-0.57
							c-6.37-0.02-11.59-0.03-15.36-0.05c-1.71,0.02-3.1,0.04-4.18,0.05c-0.96,0.02-1.46,0.06-1.46,0.1c0,0.04,0.5,0.09,1.45,0.14
							c1.08,0.05,2.46,0.1,4.17,0.18c3.78,0.1,8.99,0.25,15.36,0.42c12.97,0.3,30.89,0.64,50.69,0.92
							c19.79,0.28,37.71,0.45,50.69,0.48c6.49,0.02,11.74,0,15.37-0.06c1.82-0.04,3.22-0.06,4.18-0.12
							C1741.66,205.73,1742.15,205.68,1742.14,205.64z"/>
					</g>
				</g>
			</g>
			<g>
				<g>
					<path class="st3" d="M1608.5,1047.61l-229.6-6.73c-4.93-0.14-8.8-4.26-8.66-9.18l6.08-207.35c0.14-4.93,4.26-8.8,9.18-8.66
						l229.6,6.73c4.93,0.14,8.8,4.26,8.66,9.18l-6.08,207.35C1617.54,1043.87,1613.43,1047.75,1608.5,1047.61z"/>
				</g>
				<g>
					<path class="st2" d="M1371.49,988.15c0.07-1.94,1.07-3.72,2.67-4.8l81.01-54.36c6.32-5.06,15.33-4.86,21.41,0.39
						c0.33,0.28,0.69,0.54,1.07,0.74l36.71,18.85c2.31,1.19,5.13,0.76,6.99-1.06l55.63-54.39c7.4-6.6,18.82-5.63,25,2.13
						l17.85,22.41c0.86,1.09,1.33,2.44,1.32,3.82l-0.85,90.51c-0.18,19.17-16.09,34.45-35.26,33.84l-181.1-5.73
						c-18.94-0.6-33.77-16.48-33.08-35.42L1371.49,988.15z"/>
				</g>
				<g>
					
						<ellipse transform="matrix(0.9363 -0.3511 0.3511 0.9363 -214.981 570.7698)" class="st2" cx="1466.41" cy="878.2" rx="24.74" ry="24.74"/>
				</g>
			</g>
			<g>
				<g>
					<path class="st3" d="M1928.27,666.32l-229.6-6.73c-4.93-0.14-8.8-4.26-8.66-9.18l6.08-207.35c0.14-4.93,4.26-8.8,9.18-8.66
						l229.6,6.73c4.93,0.14,8.8,4.26,8.66,9.18l-6.08,207.35C1937.3,662.59,1933.19,666.47,1928.27,666.32z"/>
				</g>
				<g>
					<path class="st2" d="M1691.37,603.79l83.57-56.08c6.5-5.2,15.82-4.84,21.91,0.83l41.17,21.14l58.74-57.44
						c7.4-6.6,18.82-5.63,25,2.13l19.19,24.09l-0.81,86.64c-0.21,22.47-18.86,40.37-41.32,39.66l-169.19-5.35
						c-22.19-0.7-39.58-19.32-38.77-41.51L1691.37,603.79z"/>
				</g>
				<g>
					
						<ellipse transform="matrix(0.2793 -0.9602 0.9602 0.2793 810.224 2073.2566)" class="st2" cx="1786.18" cy="496.91" rx="24.74" ry="24.74"/>
				</g>
			</g>
		</g>
		<g>
			<g>
				<path class="st4" d="M1409.07,566.56c0,0-1.19-0.05-3.25-0.91c-2.02-0.88-4.92-2.72-7.38-6.24c-2.39-3.44-4.46-8.69-3.6-14.79
					c0.75-6.04,4.12-12.55,9.79-17.66c5.66-5.17,13.48-8.66,22.04-10.84c8.59-2.14,17.99-3.51,27.95-3.61
					c19.84-0.26,41.99,4.31,62.05,15.74c4.97,2.92,9.63,6.49,13.15,11.04c3.49,4.54,5.74,10.03,5.9,15.69
					c0.23,5.68-2.18,11.18-5.89,15.06c-3.72,3.94-8.43,6.44-13.1,8.23c-9.48,3.55-19.08,4.1-27.84,4.5
					c-8.82,0.3-17.05-0.15-24.5-1.06c-14.91-1.83-26.59-5.42-34.43-8.31c-3.93-1.45-6.92-2.72-8.91-3.66c-2-0.93-3.03-1.45-3-1.52
					c0.03-0.07,1.12,0.32,3.16,1.13c2.04,0.82,5.07,1.96,9.01,3.28c7.88,2.64,19.54,5.97,34.32,7.6c7.38,0.81,15.53,1.16,24.26,0.79
					c8.69-0.46,18.14-1.1,27.22-4.57c4.49-1.74,8.94-4.16,12.33-7.79c3.38-3.58,5.51-8.5,5.3-13.63c-0.15-5.12-2.24-10.24-5.5-14.46
					c-3.29-4.25-7.73-7.67-12.56-10.5c-19.64-11.19-41.45-15.77-60.97-15.61c-9.79,0.05-19.08,1.34-27.54,3.36
					c-8.42,2.06-16,5.38-21.48,10.26c-5.49,4.83-8.8,11-9.61,16.72c-0.92,5.76,0.92,10.79,3.11,14.17c2.26,3.44,4.97,5.33,6.89,6.31
					C1407.95,566.23,1409.1,566.44,1409.07,566.56z"/>
			</g>
		</g>
		<g>
			<g>
				<path class="st4" d="M1513.26,1129.71c0,0-1.19-0.05-3.25-0.91c-2.02-0.88-4.93-2.72-7.38-6.23c-2.39-3.44-4.46-8.69-3.6-14.79
					c0.75-6.04,4.12-12.55,9.79-17.66c5.66-5.17,13.48-8.66,22.04-10.84c8.59-2.14,17.99-3.51,27.95-3.61
					c19.84-0.26,41.99,4.31,62.05,15.74c4.97,2.92,9.63,6.49,13.15,11.04c3.49,4.54,5.74,10.03,5.9,15.69
					c0.23,5.68-2.18,11.18-5.89,15.06c-3.71,3.94-8.43,6.44-13.1,8.22c-9.48,3.55-19.08,4.1-27.84,4.5
					c-8.82,0.3-17.05-0.15-24.5-1.06c-14.91-1.83-26.59-5.42-34.42-8.31c-3.93-1.45-6.92-2.72-8.91-3.66c-2-0.93-3.03-1.45-3-1.52
					c0.03-0.07,1.12,0.32,3.16,1.13c2.04,0.82,5.07,1.96,9.01,3.28c7.88,2.64,19.54,5.97,34.32,7.6c7.38,0.81,15.53,1.16,24.26,0.79
					c8.69-0.46,18.14-1.1,27.22-4.57c4.49-1.74,8.94-4.16,12.33-7.79c3.38-3.58,5.51-8.5,5.3-13.63c-0.15-5.12-2.24-10.24-5.5-14.46
					c-3.29-4.25-7.73-7.67-12.56-10.5c-19.64-11.19-41.45-15.77-60.97-15.61c-9.8,0.05-19.08,1.34-27.54,3.36
					c-8.42,2.06-16,5.38-21.48,10.26c-5.49,4.83-8.8,11-9.61,16.72c-0.92,5.76,0.92,10.79,3.11,14.17c2.26,3.44,4.97,5.33,6.88,6.31
					C1512.14,1129.38,1513.29,1129.6,1513.26,1129.71z"/>
			</g>
		</g>
		<g>
			<g>
				<path class="st4" d="M1392.32,382.13c0,0-1.19-0.05-3.25-0.91c-2.02-0.88-4.92-2.72-7.38-6.24c-2.39-3.44-4.45-8.69-3.6-14.79
					c0.75-6.04,4.12-12.55,9.79-17.66c5.66-5.17,13.48-8.66,22.04-10.84c8.59-2.14,17.99-3.51,27.95-3.61
					c19.84-0.26,41.99,4.31,62.05,15.74c4.97,2.92,9.63,6.49,13.15,11.04c3.49,4.54,5.74,10.03,5.9,15.69
					c0.23,5.68-2.18,11.18-5.89,15.06c-3.72,3.94-8.43,6.44-13.1,8.22c-9.48,3.55-19.08,4.1-27.84,4.5
					c-8.82,0.3-17.05-0.15-24.5-1.06c-14.91-1.83-26.59-5.42-34.42-8.31c-3.93-1.45-6.92-2.72-8.91-3.66c-2-0.93-3.03-1.45-3-1.52
					c0.03-0.07,1.12,0.32,3.16,1.13c2.04,0.82,5.07,1.96,9.01,3.28c7.88,2.64,19.54,5.97,34.32,7.6c7.38,0.81,15.53,1.16,24.26,0.79
					c8.69-0.46,18.14-1.1,27.22-4.57c4.49-1.74,8.94-4.16,12.33-7.79c3.38-3.58,5.51-8.5,5.3-13.63c-0.15-5.12-2.24-10.24-5.5-14.46
					c-3.29-4.25-7.73-7.67-12.56-10.5c-19.64-11.19-41.45-15.77-60.97-15.61c-9.8,0.05-19.08,1.34-27.54,3.36
					c-8.42,2.06-16,5.38-21.48,10.26c-5.49,4.83-8.79,11-9.61,16.72c-0.92,5.76,0.92,10.79,3.11,14.17
					c2.26,3.44,4.97,5.33,6.88,6.31C1391.19,381.8,1392.35,382.02,1392.32,382.13z"/>
			</g>
		</g>
		<g>
			<g>
				<polygon class="st6" points="2010.89,947.76 2066.32,949.14 2092.76,983.22 2064.3,1017.94 2007.42,1016.27 				"/>
			</g>
		</g>
		<g>
			<g>
				<polygon class="st8" points="2016.14,850.53 2071.57,851.92 2098.01,886 2069.55,920.72 2012.68,919.05 				"/>
			</g>
		</g>
		<g>
			<path class="st2" d="M1262.42,151.49h-178.46c-0.29,0-0.52,0.23-0.52,0.52v4c0,0.29,0.23,0.52,0.52,0.52h178.46
				c0.29,0,0.52-0.23,0.52-0.52v-4C1262.94,151.72,1262.71,151.49,1262.42,151.49z"/>
		</g>
		<g>
			<path class="st2" d="M1262.42,167.47h-178.46c-0.29,0-0.52,0.23-0.52,0.52v4c0,0.29,0.23,0.52,0.52,0.52h178.46
				c0.29,0,0.52-0.23,0.52-0.52v-4C1262.94,167.7,1262.71,167.47,1262.42,167.47z"/>
		</g>
		<g>
			<path class="st2" d="M1262.42,183.45h-178.46c-0.29,0-0.52,0.23-0.52,0.52v4c0,0.29,0.23,0.52,0.52,0.52h178.46
				c0.29,0,0.52-0.23,0.52-0.52v-4C1262.94,183.68,1262.71,183.45,1262.42,183.45z"/>
		</g>
		<g>
			<g>
				<path class="st4" d="M1295.3,166.4c0.46-0.35,28.36,35.77,62.3,80.68c33.95,44.92,61.1,81.6,60.63,81.95
					c-0.46,0.35-28.35-35.77-62.31-80.68C1321.98,203.44,1294.84,166.75,1295.3,166.4z"/>
			</g>
		</g>
		<g>
			<circle class="st4" cx="1294.27" cy="163.16" r="6.83"/>
		</g>
		<g>
			<g>
				<path class="st5" d="M1484.18,1546.79H1279.7c-9.9,0-17.78-8.27-17.31-18.16l4.15-86.63c0.44-9.24,8.06-16.5,17.31-16.5h204.48
					c9.9,0,17.78,8.27,17.31,18.16l-4.15,86.63C1501.05,1539.53,1493.43,1546.79,1484.18,1546.79z"/>
			</g>
			<g>
				<g>
					<path class="st4" d="M1484.18,1546.79c-0.04-0.18,2.52,0.18,6.75-1.61c2.05-0.94,4.51-2.48,6.54-5.12
						c2.08-2.57,3.59-6.26,3.65-10.58c0.76-17.58,1.86-42.84,3.21-74c-0.07-7.67,2.52-16.6-3.2-23.08c-2.55-3.17-6.4-5.39-10.6-5.9
						c-4.2-0.32-8.89-0.07-13.43-0.13c-18.39,0.03-38.04,0.06-58.71,0.1c-41.36,0.03-86.81,0.05-134.52,0.08
						c-5.63-0.02-11.1,3.06-13.93,7.85c-1.44,2.37-2.23,5.08-2.36,7.85c-0.14,2.92-0.28,5.84-0.42,8.74
						c-0.56,11.61-1.11,23.04-1.66,34.28c-0.55,11.24-1.08,22.28-1.61,33.09c-0.13,2.7-0.26,5.39-0.39,8.07
						c-0.19,2.73-0.24,5.16,0.52,7.59c1.39,4.79,5.03,8.84,9.59,10.61c2.29,0.93,4.65,1.24,7.18,1.2c2.55,0,5.09,0.01,7.61,0.01
						c5.04,0.01,10.01,0.02,14.9,0.02c9.79,0.02,19.3,0.04,28.5,0.05c18.38,0.05,35.51,0.09,51.15,0.13
						c31.2,0.14,56.48,0.25,74.07,0.33c8.66,0.08,15.43,0.15,20.14,0.2c2.23,0.04,3.96,0.08,5.24,0.1
						C1483.58,1546.72,1484.18,1546.75,1484.18,1546.79c0,0.04-0.6,0.07-1.78,0.11c-1.27,0.03-3.01,0.06-5.24,0.1
						c-4.71,0.05-11.47,0.11-20.14,0.2c-17.59,0.08-42.87,0.19-74.07,0.33c-15.65,0.04-32.77,0.08-51.15,0.13
						c-9.2,0.02-18.71,0.03-28.5,0.05c-4.9,0.01-9.87,0.02-14.9,0.02c-2.52,0-5.05,0.01-7.61,0.01c-2.57,0.05-5.39-0.28-7.9-1.32
						c-5.11-1.97-9.19-6.48-10.77-11.86c-0.87-2.65-0.8-5.65-0.61-8.24c0.13-2.67,0.25-5.36,0.38-8.07
						c0.51-10.81,1.03-21.85,1.56-33.09c0.53-11.24,1.08-22.68,1.63-34.29c0.14-2.9,0.28-5.81,0.42-8.74
						c0.14-3.07,1.03-6.18,2.65-8.84c3.2-5.4,9.38-8.88,15.73-8.86c47.71,0.03,93.16,0.06,134.52,0.08
						c20.67,0.03,40.32,0.07,58.71,0.1c4.64,0.09,9.01-0.16,13.65,0.21c4.63,0.59,8.85,3.06,11.64,6.55
						c2.82,3.47,4.22,7.91,4.03,12.18c-0.21,4.09-0.41,8.09-0.6,11.99c-1.63,31.16-2.96,56.4-3.88,73.97
						c-0.13,4.45-1.77,8.32-3.98,10.93c-2.15,2.69-4.73,4.21-6.86,5.12c-2.16,0.89-3.95,1.1-5.12,1.23
						C1484.79,1546.84,1484.18,1546.79,1484.18,1546.79z"/>
				</g>
			</g>
		</g>
		<g>
			<path class="st2" d="M1473.25,1467.65h-178.46c-0.29,0-0.52,0.23-0.52,0.52v4c0,0.29,0.23,0.52,0.52,0.52h178.46
				c0.29,0,0.52-0.23,0.52-0.52v-4C1473.76,1467.88,1473.53,1467.65,1473.25,1467.65z"/>
		</g>
		<g>
			<path class="st2" d="M1473.25,1483.63h-178.46c-0.29,0-0.52,0.23-0.52,0.52v4c0,0.29,0.23,0.52,0.52,0.52h178.46
				c0.29,0,0.52-0.23,0.52-0.52v-4C1473.76,1483.86,1473.53,1483.63,1473.25,1483.63z"/>
		</g>
		<g>
			<path class="st2" d="M1473.25,1499.61h-178.46c-0.29,0-0.52,0.23-0.52,0.52v4c0,0.29,0.23,0.52,0.52,0.52h178.46
				c0.29,0,0.52-0.23,0.52-0.52v-4C1473.76,1499.84,1473.53,1499.61,1473.25,1499.61z"/>
		</g>
		<g>
			<g>
				<path class="st4" d="M1561.58,1141.61c0.51,0.27-32.18,64.04-73.02,142.42c-40.85,78.41-74.37,141.73-74.89,141.47
					c-0.51-0.27,32.17-64.03,73.03-142.44C1527.54,1204.68,1561.07,1141.35,1561.58,1141.61z"/>
			</g>
		</g>
		<g>
			<path class="st4" d="M1420.5,1425.5c0,3.77-3.06,6.83-6.83,6.83c-3.77,0-6.83-3.06-6.83-6.83c0-3.77,3.06-6.83,6.83-6.83
				C1417.45,1418.67,1420.5,1421.73,1420.5,1425.5z"/>
		</g>
	</g>
	<g>
		<g>
			<g>
				<path class="st6" d="M2692.01,1494.13h-600.1v-24.49h600.1c1.39,0,2.51,1.12,2.51,2.51v19.46
					C2694.52,1493.01,2693.39,1494.13,2692.01,1494.13z"/>
			</g>
			<g>
				<g>
					<path class="st4" d="M2083.91,1483.79c0,0.49-49.71,0.88-111.02,0.88c-61.33,0-111.03-0.39-111.03-0.88
						c0-0.49,49.7-0.88,111.03-0.88C2034.2,1482.91,2083.91,1483.31,2083.91,1483.79z"/>
				</g>
			</g>
			<g>
				<g>
					<path class="st6" d="M2122.55,1494.13h-238.47c-32.03,0-57.99-25.96-57.99-57.99v-31.54c0-32.03,25.96-57.99,57.99-57.99
						h238.47c23.67,0,42.86,19.19,42.86,42.86v61.82C2165.41,1474.94,2146.22,1494.13,2122.55,1494.13z"/>
				</g>
				<g>
					<path class="st6" d="M2692.01,1371.1h-598.95c-0.63,0-1.14-0.51-1.14-1.14v-22.2c0-0.63,0.51-1.14,1.14-1.14h598.95
						c1.39,0,2.51,1.13,2.51,2.51v19.47C2694.52,1369.97,2693.39,1371.1,2692.01,1371.1z"/>
				</g>
				<g>
					<path class="st1" d="M2676.55,1469.64h-517.39c-27.21,0-49.27-22.06-49.27-49.27l0,0c0-27.21,22.06-49.27,49.27-49.27h517.39
						C2662.67,1403.94,2662.67,1436.79,2676.55,1469.64z"/>
				</g>
				<g class="st7">
					<path d="M2109.88,1494.13h-227.89c-30.87,0-55.9-25.03-55.9-55.9v-36.17c0-30.62,24.83-55.45,55.45-55.45h233.96
						C2062.08,1378.96,2066.07,1456.45,2109.88,1494.13z"/>
				</g>
				<g>
					<g>
						<path class="st4" d="M2613.68,1424.94c0,0.49-106.2,0.88-237.17,0.88c-131.02,0-237.19-0.4-237.19-0.88
							c0-0.49,106.17-0.88,237.19-0.88C2507.49,1424.06,2613.68,1424.45,2613.68,1424.94z"/>
					</g>
				</g>
				<g>
					<g>
						<path class="st4" d="M2662.5,1446.84c0,0.49-106.2,0.88-237.17,0.88c-131.02,0-237.19-0.39-237.19-0.88
							c0-0.49,106.17-0.88,237.19-0.88C2556.3,1445.96,2662.5,1446.36,2662.5,1446.84z"/>
					</g>
				</g>
				<g>
					<g>
						<path class="st4" d="M2648.1,1393.88c0,0.49-106.2,0.88-237.17,0.88c-131.02,0-237.19-0.4-237.19-0.88
							c0-0.49,106.17-0.88,237.19-0.88C2541.91,1393,2648.1,1393.39,2648.1,1393.88z"/>
					</g>
				</g>
				<g>
					<g>
						<path class="st4" d="M2083.91,1358.85c0,0.49-49.71,0.88-111.02,0.88c-61.33,0-111.03-0.4-111.03-0.88
							c0-0.49,49.7-0.88,111.03-0.88C2034.2,1357.97,2083.91,1358.36,2083.91,1358.85z"/>
					</g>
				</g>
			</g>
		</g>
		<g>
			<g>
				<path class="st6" d="M2060.5,1787.68h-268.13c-49.92,0-90.4-40.47-90.4-90.4v-9.2c0-49.92,40.47-90.4,90.4-90.4h268.13
					c43.33,0,78.46,35.13,78.46,78.46v33.07C2138.96,1752.55,2103.84,1787.68,2060.5,1787.68z"/>
			</g>
			<g>
				<path class="st6" d="M2817.14,1629.23h-770.96c-1.03,0-1.87-0.84-1.87-1.87v-27.8c0-1.03,0.84-1.87,1.87-1.87h770.96
					c1.79,0,3.24,1.45,3.24,3.24v25.07C2820.38,1627.78,2818.93,1629.23,2817.14,1629.23z"/>
			</g>
			<g>
				<path class="st6" d="M2817.14,1787.68h-770.96c-1.03,0-1.87-0.84-1.87-1.87v-27.8c0-1.03,0.84-1.87,1.87-1.87h770.96
					c1.79,0,3.24,1.45,3.24,3.24v25.07C2820.38,1786.23,2818.93,1787.68,2817.14,1787.68z"/>
			</g>
			<g>
				<path class="st1" d="M2797.23,1756.14h-666.32c-35.05,0-63.46-28.41-63.46-63.45v0c0-35.05,28.41-63.45,63.46-63.45h666.32
					C2779.36,1671.53,2779.36,1713.84,2797.23,1756.14z"/>
			</g>
			<g class="st7">
				<path d="M2067.46,1787.68h-271.51c-51.9,0-93.98-42.07-93.98-93.98l0,0c0-53.03,42.99-96.01,96.01-96.01h276.7
					C2005.9,1639.36,2011.04,1739.15,2067.46,1787.68z"/>
			</g>
			<g>
				<g>
					<path class="st4" d="M2716.28,1698.57c0,0.49-136.77,0.88-305.43,0.88c-168.73,0-305.46-0.4-305.46-0.88
						c0-0.49,136.74-0.88,305.46-0.88C2579.51,1697.69,2716.28,1698.09,2716.28,1698.57z"/>
				</g>
			</g>
			<g>
				<g>
					<path class="st4" d="M2779.14,1726.78c0,0.49-136.77,0.88-305.43,0.88c-168.73,0-305.46-0.4-305.46-0.88
						c0-0.49,136.74-0.88,305.46-0.88C2642.37,1725.9,2779.14,1726.3,2779.14,1726.78z"/>
				</g>
			</g>
			<g>
				<g>
					<path class="st4" d="M2760.6,1672.4c0,0.49-136.77,0.88-305.43,0.88c-168.73,0-305.46-0.39-305.46-0.88
						c0-0.49,136.74-0.88,305.46-0.88C2623.84,1671.52,2760.6,1671.91,2760.6,1672.4z"/>
				</g>
			</g>
			<g>
				<g>
					<path class="st4" d="M2034.01,1774.36c0,0.49-64.02,0.88-142.97,0.88c-78.98,0-142.99-0.4-142.99-0.88
						c0-0.49,64-0.88,142.99-0.88C1969.99,1773.48,2034.01,1773.88,2034.01,1774.36z"/>
				</g>
			</g>
			<g>
				<g>
					<path class="st4" d="M2034.01,1613.46c0,0.49-64.02,0.88-142.97,0.88c-78.98,0-142.99-0.4-142.99-0.88
						c0-0.49,64-0.88,142.99-0.88C1969.99,1612.58,2034.01,1612.97,2034.01,1613.46z"/>
				</g>
			</g>
		</g>
		<g>
			<g>
				<path class="st8" d="M2213.29,1598.38H1947.2c-27.5,0-49.8-22.3-49.8-49.8v-9.18c0-27.5,22.3-49.8,49.8-49.8h266.09
					c21.63,0,39.16,17.53,39.16,39.16v30.47C2252.45,1580.85,2234.91,1598.38,2213.29,1598.38z"/>
			</g>
			<g>
				<path class="st8" d="M2803.45,1515.23h-626.71c-0.66,0-1.2-0.54-1.2-1.2v-23.23c0-0.66,0.54-1.2,1.2-1.2h626.71
					c1.45,0,2.63,1.18,2.63,2.63v20.37C2806.07,1514.05,2804.9,1515.23,2803.45,1515.23z"/>
			</g>
			<g>
				<path class="st8" d="M2803.45,1598.38h-626.71c-0.66,0-1.2-0.54-1.2-1.2v-23.23c0-0.66,0.54-1.2,1.2-1.2h626.71
					c1.45,0,2.63,1.18,2.63,2.63v20.37C2806.07,1597.2,2804.9,1598.38,2803.45,1598.38z"/>
			</g>
			<g>
				<path class="st1" d="M2787.27,1572.76h-564.15c-15.89,0-28.77-12.88-28.77-28.76l0,0c0-15.89,12.88-28.77,28.77-28.77h564.15
					C2772.75,1534.4,2772.75,1553.58,2787.27,1572.76z"/>
			</g>
			<g class="st7">
				<path d="M2194.35,1598.38h-242.99c-29.8,0-53.95-24.16-53.95-53.95l0,0c0-30.28,24.55-54.83,54.83-54.83h247.99
					C2144.33,1513.46,2148.51,1570.6,2194.35,1598.38z"/>
			</g>
			<g>
				<g>
					<path class="st4" d="M2721.49,1539.46c0,0.49-111.12,0.88-248.16,0.88c-137.09,0-248.18-0.39-248.18-0.88
						c0-0.49,111.09-0.88,248.18-0.88C2610.38,1538.58,2721.49,1538.97,2721.49,1539.46z"/>
				</g>
			</g>
			<g>
				<g>
					<path class="st4" d="M2772.57,1554.94c0,0.49-111.12,0.88-248.16,0.88c-137.09,0-248.18-0.4-248.18-0.88
						c0-0.49,111.09-0.88,248.18-0.88C2661.45,1554.06,2772.57,1554.46,2772.57,1554.94z"/>
				</g>
			</g>
			<g>
				<g>
					<path class="st4" d="M2167.17,1587.56c0,0.49-52.01,0.88-116.16,0.88c-64.17,0-116.17-0.4-116.17-0.88
						c0-0.49,52-0.88,116.17-0.88C2115.16,1586.68,2167.17,1587.08,2167.17,1587.56z"/>
				</g>
			</g>
			<g>
				<g>
					<path class="st4" d="M2167.17,1502.41c0,0.49-52.01,0.88-116.16,0.88c-64.17,0-116.17-0.4-116.17-0.88
						c0-0.49,52-0.88,116.17-0.88C2115.16,1501.53,2167.17,1501.93,2167.17,1502.41z"/>
				</g>
			</g>
			<g>
				<g>
					<path class="st4" d="M2798.67,1489.6c0,0.49-190.8,0.88-426.11,0.88c-235.39,0-426.15-0.39-426.15-0.88
						c0-0.49,190.76-0.88,426.15-0.88C2607.87,1488.72,2798.67,1489.11,2798.67,1489.6z"/>
				</g>
			</g>
		</g>
		<g>
			<polygon class="st6" points="2456.49,1392.27 2456.49,1451.35 2476.97,1438.22 2499.82,1451.35 2499.82,1392.27 			"/>
		</g>
	</g>
	<g>
		<g>
			<g>
				<path class="st0" d="M605.48,334.1h182.81c38.71,0,70.09,31.38,70.09,70.09v0c0,37.34-29.22,67.77-66.03,69.88
					c-5.52,9.55-11.03,19.09-16.55,28.64c-6.89-9.48-13.79-18.95-20.68-28.43H605.48c-38.71,0-70.09-31.38-70.09-70.09v0
					C535.39,365.48,566.77,334.1,605.48,334.1z"/>
			</g>
			<g>
				<g>
					<path class="st4" d="M605.48,334.11c0,0-0.63-0.04-1.86-0.01c-1.31,0.05-3.13,0.11-5.48,0.2c-4.76,0.63-11.94,1.54-20.48,5.16
						c-8.48,3.58-18.27,9.89-26.83,20c-4.15,5.14-7.92,11.19-10.84,18.13c-2.94,6.93-4.67,14.83-5.12,23.18
						c-1,16.64,4.39,35.72,17.75,50.59c6.59,7.41,15.01,13.72,24.74,18c9.71,4.36,20.85,6.05,31.98,5.87
						c44.45,0.03,93.63,0.07,145.78,0.11l-0.84-0.43c6.57,9.03,13.58,18.68,20.67,28.44l0.95,1.31l0.81-1.4
						c2.13-3.69,4.43-7.67,6.74-11.66c3.36-5.82,6.7-11.6,9.81-16.98l-0.85,0.52c7.04-0.51,13.94-1.94,20.49-4.28
						c6.53-2.43,12.59-5.85,18.1-9.9c10.93-8.25,19.3-19.51,23.87-31.93c4.72-12.41,5.48-25.83,3.18-38.31
						c-2.5-12.44-8.15-24.01-16.19-33.06c-7.98-9.11-17.98-16.02-28.77-19.9c-1.35-0.48-2.68-1.01-4.03-1.43l-4.11-1.05
						c-2.71-0.83-5.52-1.01-8.25-1.49c-2.75-0.37-5.51-0.34-8.23-0.52c-2.7,0-5.37,0-8.02,0.01c-21.19,0.05-40.91,0.09-58.9,0.13
						c-35.9,0.14-64.89,0.25-85,0.33c-9.95,0.08-17.69,0.15-23.04,0.19c-2.57,0.04-4.55,0.08-5.98,0.1
						C606.17,334.03,605.48,334.11,605.48,334.11s0.69,0.07,2.04,0.1c1.43,0.02,3.42,0.06,5.98,0.1c5.35,0.04,13.1,0.11,23.04,0.19
						c20.11,0.08,49.11,0.19,85,0.33c17.99,0.04,37.7,0.08,58.9,0.13c2.65,0.01,5.32,0.01,8.02,0.02c2.65,0.19,5.35,0.16,8.03,0.53
						c2.66,0.48,5.4,0.66,8.04,1.48l4.01,1.04c1.32,0.41,2.61,0.94,3.92,1.41c10.5,3.81,20.22,10.56,27.97,19.45
						c7.81,8.83,13.27,20.09,15.68,32.19c2.21,12.14,1.45,25.18-3.15,37.22c-4.45,12.06-12.58,22.98-23.2,30.99
						c-5.36,3.93-11.24,7.25-17.58,9.6c-6.36,2.26-13.06,3.65-19.89,4.15l-0.57,0.04l-0.28,0.48c-3.11,5.38-6.45,11.16-9.81,16.98
						c-2.31,3.99-4.61,7.97-6.74,11.66l1.76-0.09c-7.09-9.75-14.11-19.4-20.68-28.43l-0.31-0.43l-0.53,0
						c-52.14,0.04-101.32,0.08-145.78,0.11c-11.05,0.2-21.76-1.41-31.28-5.63c-9.5-4.14-17.74-10.27-24.2-17.48
						c-13.1-14.47-18.47-33.1-17.58-49.42c0.4-8.19,2.04-15.95,4.89-22.77c2.82-6.83,6.49-12.81,10.53-17.9
						c8.35-10.02,17.93-16.35,26.28-20C594.99,333.11,605.63,334.66,605.48,334.11z"/>
				</g>
			</g>
		</g>
		<g>
			<polygon class="st6" points="777.21,382.28 770.65,395.57 756,397.69 766.6,408.03 764.1,422.63 777.21,415.74 790.32,422.63 
				787.82,408.03 798.42,397.69 783.76,395.57 			"/>
		</g>
		<g>
			<polygon class="st6" points="721.6,382.28 715.04,395.57 700.39,397.69 710.99,408.03 708.49,422.63 721.6,415.74 734.71,422.63 
				732.2,408.03 742.81,397.69 728.15,395.57 			"/>
		</g>
		<g>
			<polygon class="st6" points="665.99,382.28 659.43,395.57 644.78,397.69 655.38,408.03 652.88,422.63 665.99,415.74 
				679.1,422.63 676.59,408.03 687.2,397.69 672.54,395.57 			"/>
		</g>
		<g>
			<polygon class="st6" points="610.38,382.28 603.82,395.57 589.17,397.69 599.77,408.03 597.27,422.63 610.38,415.74 
				623.49,422.63 620.98,408.03 631.59,397.69 616.93,395.57 			"/>
		</g>
	</g>
	<g>
		<g>
			<g>
				<g>
					<g>
						<g>
							<g>
								<g>
									<g>
										<g>
											<g>
												<g>
													<path class="st0" d="M2638.41,1059.73l29.85,2.89c11.89,15.13,28.46,26.91,48.6,32.86
														c45.43,13.4,94.79-8.98,114.56-52.03c24.83-54.06-4.31-117.12-61.58-133.25c-45.93-12.93-95.27,10.6-114.24,54.38
														c-9.7,22.39-10.24,46.17-3.49,67.46l-0.03-0.05L2638.41,1059.73z"/>
												</g>
												<g>
													<g>
														<path class="st4" d="M2638.41,1059.73c0,0,0.37-0.64,0.99-1.85c0.66-1.28,1.56-3.04,2.73-5.31
															c2.4-4.72,5.86-11.54,10.35-20.37l-0.78,0.04l0.03,0.05c0.13,0.21,0.41,0.27,0.62,0.14c0.18-0.11,0.25-0.33,0.19-0.52
															c-3.6-11.74-6.2-28.11-2.53-46.88c1.75-9.36,5.32-19.13,10.67-28.65c5.34-9.52,12.68-18.74,22.06-26.53
															c9.35-7.79,20.73-14.14,33.44-17.99c12.69-3.86,26.72-5.19,40.81-3.26c28.1,3.71,56.33,21.63,70.88,49.46l2.69,5.22
															l2.2,5.42c1.64,3.54,2.38,7.38,3.59,11.03c1.71,7.5,2.92,15.07,2.83,22.62c0.11,15.07-3.38,29.75-9.59,42.62
															c-6.31,12.83-15.32,23.77-25.69,32.15c-10.37,8.4-22.06,14.25-33.81,17.63c-23.63,6.78-46.82,3.61-64.19-3.97
															c-17.6-7.54-29.68-18.86-37.29-28.42c-0.11-0.06-0.2-0.11-0.31-0.16c-9.56-0.81-16.95-1.43-22.07-1.87
															c-2.46-0.2-4.38-0.35-5.78-0.46C2639.13,1059.75,2638.41,1059.73,2638.41,1059.73c-0.03,0.02,0.58,0.1,1.83,0.25
															c1.37,0.16,3.23,0.37,5.64,0.65c5.18,0.56,12.66,1.38,22.33,2.44l-0.3-0.17c7.54,9.75,19.64,21.34,37.44,29.13
															c17.56,7.83,41.13,11.2,65.22,4.4c11.98-3.38,23.92-9.31,34.52-17.84c10.6-8.51,19.82-19.65,26.3-32.75
															c6.37-13.12,9.96-28.11,9.86-43.51c0.1-7.71-1.13-15.46-2.88-23.12c-1.23-3.73-2-7.65-3.66-11.27l-2.24-5.54
															l-2.75-5.33c-14.87-28.44-43.76-46.74-72.45-50.46c-14.39-1.94-28.71-0.55-41.64,3.43
															c-12.95,3.96-24.52,10.48-34.01,18.46c-9.52,7.98-16.94,17.4-22.32,27.11c-5.39,9.71-8.94,19.66-10.65,29.16
															c-3.58,19.08-0.77,35.62,3.03,47.41l0.81-0.38l-0.03-0.05c-0.13-0.21-0.4-0.27-0.61-0.14
															c-0.07,0.04-0.13,0.12-0.17,0.19c-4.34,9.06-7.68,16.06-10,20.9c-1.07,2.26-1.89,4.01-2.49,5.29
															C2638.64,1059.16,2638.37,1059.75,2638.41,1059.73z"/>
													</g>
												</g>
											</g>
										</g>
									</g>
								</g>
							</g>
						</g>
					</g>
				</g>
			</g>
		</g>
		<g>
			<g>
				<g>
					<g>
						<path class="st2" d="M2748.36,1040.46l-0.14,10.83l-9.67-0.13l0.14-10.54c-9.57-0.71-18.72-3.83-23.98-8.06l5.47-11.73
							c4.79,3.64,11.72,6.35,18.67,7.12l0.21-16.15c-10.7-2.75-22.65-6.49-22.46-20.32c0.14-10.25,7.7-18.95,23-20.49l0.14-10.74
							l9.67,0.13l-0.14,10.54c7.25,0.68,14.28,2.7,19.55,6.16l-4.99,11.83c-4.9-2.87-9.9-4.58-14.73-5.23l-0.22,16.44
							c10.7,2.65,22.45,6.39,22.27,20.03C2771.03,1030.22,2763.57,1038.83,2748.36,1040.46z M2739.26,997.59l0.18-13.73
							c-5.14,1.09-7.21,3.87-7.25,7.06C2732.14,994.3,2735.02,996.18,2739.26,997.59z M2755.58,1021.12
							c0.04-3.39-2.74-5.26-6.88-6.77l-0.18,13.35C2753.38,1026.7,2755.54,1024.21,2755.58,1021.12z"/>
					</g>
				</g>
			</g>
		</g>
	</g>
	<g>
		<g>
			<g>
				<g>
					<g>
						<g>
							<g>
								<path class="st4" d="M1130.34,413.74c0,0,18.65,69.71,20.25,119.04l0.53,16.43c0,0-41.14,34.16-75.65,36.27l-28.92-71.12
									L1130.34,413.74z"/>
							</g>
						</g>
					</g>
				</g>
				<g>
					<g>
						<g>
							<g>
								<g>
									<g>
										<g>
											<g>
												<g>
													<g>
														<g>
															<g>
																<path class="st4" d="M947.6,456.5c7.87-34,10.89-73.58,39.16-95.75c20.98-16.45,44.89-21.04,71.53-19.92
																	c13.12,0.55,27.93,6.6,39.35,13.07c15.67,8.87,22.3,26.85,29.86,43.19c15.14,32.73,13.22,77.05,2.97,89.37
																	l-136.77,72.23c-27.31-14.21-44.42-19.87-48.79-56.28C943.07,487.08,944.12,471.53,947.6,456.5z"/>
															</g>
														</g>
													</g>
												</g>
											</g>
										</g>
										<g>
											<g>
												<g>
													<g>
														<g>
															<g>
																<path class="st9" d="M988.21,387.77l86.08-25.4c27.73-4.04,47.59,29.51,50.45,57.39
																	c3.18,30.97,5.84,68.9,3.07,92.21c-5.56,46.87-41.03,54.2-41.03,54.2c-0.02-0.16-0.08,0.7,0.2,14.55l0.11,28.52
																	c0.37,9.07-1.23,12.12-6.77,19.31c-12.7,16.45-35.83,18.64-63.12,8.55c-15.81-5.85-26.81-17.62-28.02-33.65
																	l-14.97-198.49C973.7,396.46,979.79,389,988.21,387.77z"/>
															</g>
														</g>
													</g>
												</g>
											</g>
											<g>
												<g>
													<g>
														<g>
															<g>
																<g>
																	<g>
																		<path class="st4" d="M1116.56,462.17c0.24,3.15-2.24,5.95-5.52,6.25c-3.28,0.31-6.13-1.99-6.37-5.14
																			c-0.24-3.15,2.24-5.95,5.52-6.26C1113.46,456.72,1116.32,459.02,1116.56,462.17z"/>
																	</g>
																</g>
															</g>
														</g>
													</g>
												</g>
											</g>
											<g>
												<g>
													<g>
														<g>
															<g>
																<g>
																	<g>
																		<path class="st4" d="M1119.04,447.85c-0.71,0.81-5.37-2.36-11.8-2.09c-6.42,0.18-11.01,3.67-11.74,2.91
																			c-0.36-0.33,0.34-1.77,2.34-3.35c1.96-1.57,5.36-3.15,9.36-3.29c4-0.14,7.43,1.21,9.43,2.64
																			C1118.67,446.1,1119.4,447.48,1119.04,447.85z"/>
																	</g>
																</g>
															</g>
														</g>
													</g>
												</g>
											</g>
											<g>
												<g>
													<g>
														<g>
															<g>
																<g>
																	<g>
																		<path class="st4" d="M1060.04,463.1c0.24,3.15-2.24,5.95-5.52,6.25c-3.28,0.31-6.13-1.99-6.37-5.14
																			c-0.24-3.15,2.24-5.95,5.52-6.26C1056.95,457.65,1059.81,459.95,1060.04,463.1z"/>
																	</g>
																</g>
															</g>
														</g>
													</g>
												</g>
											</g>
											<g>
												<g>
													<g>
														<g>
															<g>
																<g>
																	<g>
																		<path class="st4" d="M1055.81,448.61c-0.71,0.81-5.37-2.36-11.8-2.09c-6.42,0.18-11.01,3.67-11.74,2.91
																			c-0.35-0.33,0.34-1.77,2.34-3.35c1.96-1.57,5.35-3.15,9.36-3.3c4-0.14,7.43,1.21,9.43,2.64
																			C1055.43,446.86,1056.16,448.24,1055.81,448.61z"/>
																	</g>
																</g>
															</g>
														</g>
													</g>
												</g>
											</g>
											<g>
												<g>
													<g>
														<g>
															<g>
																<g>
																	<g>
																		<path class="st4" d="M1080.85,490.28c-0.04-0.37,3.93-1.21,10.37-2.3c1.63-0.23,3.18-0.62,3.41-1.75
																			c0.34-1.2-0.42-2.94-1.29-4.82c-1.7-3.91-3.48-8.01-5.35-12.31c-7.44-17.53-12.9-31.97-12.19-32.26
																			c0.71-0.29,7.32,13.68,14.76,31.21c1.79,4.32,3.51,8.45,5.14,12.39c0.7,1.84,1.85,3.92,1.1,6.41
																			c-0.39,1.24-1.56,2.18-2.6,2.51c-1.04,0.36-1.96,0.42-2.77,0.5C1084.93,490.46,1080.89,490.65,1080.85,490.28z"/>
																	</g>
																</g>
															</g>
														</g>
													</g>
												</g>
											</g>
											<g>
												<g>
													<g>
														<g>
															<g>
																<g>
																	<g>
																		<path class="st10" d="M1086.96,566.17c0,0-31.26,3.25-63.04-14.18c0,0,16.7,31.99,63.15,25.79L1086.96,566.17z"/>
																	</g>
																</g>
															</g>
														</g>
													</g>
												</g>
											</g>
											<g>
												<g>
													<g>
														<g>
															<g>
																<g>
																	<path class="st10" d="M1060,504.57c1.56-2.77,4.51-4.3,7.58-4.53c4.43-0.32,8.22,1.06,11.26,5.04
																		c1.03,1.15,1.08,4.49,0.7,5.42c-0.37,0.94-0.07,0.47-0.76,1.14c-2.51,2.39-5.16,4.79-8.46,5.72
																		c-3.3,0.93-7.44,0.01-9.75-3.16C1058.53,511.38,1058.45,507.33,1060,504.57z"/>
																</g>
															</g>
														</g>
													</g>
												</g>
											</g>
											<g>
												<g>
													<g>
														<g>
															<g>
																<g>
																	<g>
																		<path class="st4" d="M1060.96,495.75c1.04-0.11,1.37,6.87,7.56,11.55c6.18,4.7,13.58,3.58,13.68,4.55
																			c0.12,0.43-1.59,1.43-4.73,1.66c-3.07,0.25-7.61-0.54-11.4-3.41c-3.78-2.87-5.53-6.85-5.9-9.7
																			C1059.78,497.5,1060.48,495.73,1060.96,495.75z"/>
																	</g>
																</g>
															</g>
														</g>
													</g>
												</g>
											</g>
											<g>
												<g>
													<g>
														<g>
															<g>
																<g>
																	<g>
																		<path class="st4" d="M1058.24,425.08c-0.46,1.8-6.94,1.6-14.36,3.24c-7.46,1.49-13.3,4.27-14.45,2.81
																			c-0.52-0.7,0.38-2.44,2.67-4.37c2.26-1.92,5.98-3.89,10.44-4.83c4.46-0.93,8.66-0.62,11.5,0.23
																			C1056.91,422.99,1058.43,424.22,1058.24,425.08z"/>
																	</g>
																</g>
															</g>
														</g>
													</g>
												</g>
											</g>
											<g>
												<g>
													<g>
														<g>
															<g>
																<g>
																	<g>
																		<path class="st4" d="M1118.51,430.54c-1.46,1.26-6.14-0.94-12.02-1.87c-5.85-1.11-11.02-0.6-11.95-2.28
																			c-0.4-0.81,0.6-2.14,2.98-3.2c2.34-1.05,6.1-1.65,10.13-0.95c4.03,0.7,7.35,2.52,9.18,4.3
																			C1118.7,428.33,1119.16,429.92,1118.51,430.54z"/>
																	</g>
																</g>
															</g>
														</g>
													</g>
												</g>
											</g>
										</g>
									</g>
								</g>
							</g>
							<g>
								<g>
									<g>
										<g>
											<g>
												<path class="st4" d="M1074.59,357.35c0.08,0.34,0.14,0.68,0.22,1.01l-0.16,0.07
													C1074.63,358.07,1074.61,357.71,1074.59,357.35z"/>
											</g>
										</g>
									</g>
								</g>
							</g>
						</g>
					</g>
					<g>
						<g>
							<g>
								<g>
									<path class="st4" d="M1014.41,584.98c-1.32-12.21,3.6-24.48,2.17-36.69c-1.51-12.94-9.89-24.02-13.33-36.58
										c-5.51-20.12,2.05-41.51,4.82-62.3c11.66-1.44,22.53-8.44,30.3-17.49c9.34-10.89,14.99-24.39,20.49-37.64
										c-0.33,12.99-4.83,25.85-12.67,36.21c5.17,1.08,10.63-1.14,14.52-4.72c3.89-3.58,6.43-8.38,8.52-13.23
										c5.06-11.76,7.81-24.48,8.25-37.27c1.72,18.3-0.31,36.96-6.09,54.42c3.26-1.01,6.76-0.1,10.13,0.39
										c3.38,0.49,7.25,0.39,9.64-2.05c1.6-1.63,2.18-3.98,2.64-6.21c3.22-15.56,3.74-31.68,1.55-47.41
										c4.16,8.51,8.27,17.12,10.69,26.27c2.41,9.16,3.04,19,0.2,28.04c1.34,1.7,4.19,1.43,5.79-0.04
										c1.59-1.47,2.2-3.71,2.53-5.85c1.23-7.83-0.15-15.8-1.53-23.6c4.66,8.26,6.2,17.84,8.78,26.96
										c2.58,9.12,6.68,18.48,14.61,23.68c1.37-13.65,0.89-22.97-1.16-35.75c-1.57-9.77-6.2-19.46-10.48-28.37
										c-4.79-9.99-11.45-19.77-18.89-26.29c-13.73-12.02-19.46-6.85-28.23-2.26l-1.04,0.43c-0.03-0.21-0.04-0.43-0.07-0.65
										l-0.39-1.87c-22.82-5.14-47.01-4.01-69.25,3.24c-16.52,5.39-18.04,40.96-22.07,24.06c-2.44-10.23-15.7-0.89-15.86-0.6
										c-19.49,35.15-40.15,90.91-41.09,179.02l0,0L1014.41,584.98z"/>
								</g>
							</g>
						</g>
					</g>
				</g>
			</g>
			<g>
				<path class="st4" d="M958.01,316.48c7.79-8.51,18.77-14.39,30.3-14.75c11.53-0.36,23.39,5.3,29.26,15.24
					c5.87,9.93,4.71,23.88-3.6,31.88l-14.4,11.52c-9.9,5.46-22.16,7.26-32.7,3.17c-10.54-4.09-18.74-14.64-18.46-25.94
					C948.59,329.7,952.67,322.31,958.01,316.48z"/>
			</g>
			<g>
				<g>
					<path class="st8" d="M969.12,380.4c2.79,1.3,10.67-10.77,24.74-20.26c13.86-9.81,27.94-12.91,27.71-15.97
						c-0.12-1.4-4.09-2.52-10.51-1.86c-6.38,0.63-15.11,3.42-23.27,9.04c-8.14,5.64-13.84,12.82-16.69,18.57
						C968.21,375.68,967.86,379.79,969.12,380.4z"/>
				</g>
			</g>
		</g>
		<g>
			<g>
				<g>
					<path class="st6" d="M1169.33,763.32l-53.93-50.51l-36.54,58.04c0.73,5.21,47.3,105.57,67.47,126.36
						c23.01,23.73,54.37,21.89,68.21-10.87c10.91-25.83,29.01-105.36,29.01-105.36L1169.33,763.32z"/>
				</g>
			</g>
			<g>
				<g>
					<g>
						<g>
							<path class="st6" d="M1110.52,611.39c12.88,4.64,42.52,20.84,51.15,31.47c4.18,5.15,8.23,10.98,10.89,16.84
								c6.75,14.84,19.57,124.92,19.57,124.92l-57.44,41.6l-50.01-192.52l3.19-30.53L1110.52,611.39z"/>
						</g>
					</g>
				</g>
			</g>
			<g>
				<g>
					<g>
						<g>
							<g>
								<path class="st6" d="M1129.58,929.17l-3.62-28.43c0,0,11.07-50.73,15.14-94.78c6.47-70.02-11.79-113.54-14.29-120.92
									c-1.42-4.18-38.92-81.88-38.92-81.88s-7.88,23.94-39.53,18.27c-44.14-7.89-60.22-31.82-60.22-31.82l-57.03,12.33
									c0,0-22.22,89.24-25.5,118.81c-1.75,15.85,19.13,105.46,19.13,105.46l-33.63,50.32c-1.01,2.47,14.61,71.24,17.67,74.08
									c3.06,2.84,57.77,15.55,58.45,17.89c0.68,2.34,104.31,45.72,104.24,43.95c-0.07-1.77,49.86-61.07,49.86-61.07
									L1129.58,929.17z"/>
							</g>
						</g>
					</g>
				</g>
			</g>
			<g>
				<g>
					<path class="st4" d="M1142.48,695.72c-0.07,0.01-0.02,0.73,0.13,2.08c0.19,1.59,0.42,3.54,0.7,5.9
						c0.61,5.12,1.48,12.54,2.24,21.73c1.42,18.35,2.89,43.93-1.34,71.77c-3.69,27.9-9.07,52.85-12.54,70.99
						c-1.77,9.07-3.11,16.42-3.97,21.52c-0.36,2.35-0.67,4.29-0.91,5.88c-0.18,1.35-0.25,2.06-0.17,2.08c0.07,0.01,0.28-0.67,0.6-2
						c0.35-1.57,0.78-3.48,1.31-5.8c1.16-5.36,2.73-12.59,4.63-21.37c3.85-18.05,9.47-43,13.18-71.01
						c4.25-28.03,2.54-53.85,0.72-72.19c-0.96-9.2-2.05-16.61-2.92-21.71c-0.44-2.55-0.81-4.52-1.1-5.85
						C1142.75,696.39,1142.55,695.7,1142.48,695.72z"/>
				</g>
			</g>
		</g>
		<g>
			<g>
				<g>
					<g>
						<g>
							<path class="st4" d="M881.12,917.04c-10.23,17.35-33.57,83.78-42.65,117.7c-41.42,154.8-76.46,362.98-88.1,405.41
								c-15.51,56.53-50.24,184.43-67.91,269.61l84.89,37.02c0,0,111.17-299.57,141.5-373.18c31.43-76.28,83.86-220.15,83.86-220.15
								l30.29,570.67l81.31,2.51c0,0,27.81-160.8,38.86-256.91c11.06-96.11,12.29-293.95,12.38-344.16
								c0.11-61.14-26.39-198.7-26.39-198.7s-31.71,23.81-91.18,14.69c-47.36-7.26-145.56-43.69-145.56-43.69L881.12,917.04z"/>
						</g>
					</g>
				</g>
			</g>
			<g>
				<g>
					<g>
						<g>
							<g>
								<path class="st8" d="M1046.42,961.35c0.14,0.02-0.03,2.35-0.47,6.55c-0.44,4.2-1.18,10.27-2.17,17.76
									c-1.99,14.97-5.1,35.61-9.16,58.31c-4.06,22.7-8.3,43.14-11.62,57.87c-1.66,7.37-3.07,13.32-4.12,17.41
									c-1.04,4.09-1.68,6.34-1.83,6.31c-0.14-0.03,0.23-2.34,1.02-6.49c0.89-4.5,2.05-10.41,3.46-17.54
									c2.95-14.8,6.94-35.27,11-57.94c4.05-22.67,7.39-43.24,9.76-58.15c1.15-7.17,2.11-13.12,2.84-17.65
									C1045.83,963.62,1046.28,961.33,1046.42,961.35z"/>
							</g>
						</g>
					</g>
				</g>
			</g>
			<g>
				<g>
					<g>
						<g>
							<g>
								<path class="st8" d="M1017.42,960.15c-0.11,0,0.13-1.02,1.58-1.66c1.41-0.61,3.63-0.79,6.19-0.2
									c1.28,0.3,2.67,0.76,4.06,1.66c1.46,0.96,2.46,2.68,2.77,4.51c0.67,3.67-1.04,8.01-4.65,10.33
									c-3.51,2.31-8.11,2.55-11.33,0.51c-1.61-0.99-2.71-2.68-3.13-4.22c-0.46-1.57-0.48-3.07-0.3-4.4
									c0.36-2.67,1.58-4.62,2.74-5.58C1016.51,960.12,1017.4,960.05,1017.42,960.15c0.08,0.17-0.65,0.51-1.49,1.52
									c-0.84,1-1.7,2.79-1.83,5.15c-0.15,2.27,0.46,5.38,2.96,6.81c2.5,1.49,6.27,1.29,9.15-0.62c2.91-1.84,4.32-5.36,3.89-8.23
									c-0.21-1.44-0.88-2.68-1.87-3.4c-1.06-0.77-2.29-1.29-3.42-1.64c-2.29-0.72-4.28-0.76-5.54-0.47
									C1017.99,959.56,1017.58,960.25,1017.42,960.15z"/>
							</g>
						</g>
					</g>
				</g>
			</g>
			<g>
				<g>
					<g>
						<g>
							<g>
								<path class="st8" d="M1069.42,1105.25c0.15,0.27-3.69,2.72-9.84,6.74c-6.15,4.02-14.57,9.68-23.58,16.33
									c-9.01,6.65-16.91,13.02-22.57,17.71c-5.66,4.69-9.14,7.63-9.35,7.4c-0.19-0.2,2.93-3.54,8.37-8.53
									c5.43-5,13.23-11.59,22.3-18.29c9.07-6.68,17.68-12.18,24.05-15.9C1065.18,1107.01,1069.29,1105.01,1069.42,1105.25z"/>
							</g>
						</g>
					</g>
				</g>
			</g>
			<g>
				<g>
					<g>
						<g>
							<g>
								<path class="st8" d="M863.54,1413.95c-0.01,0.15-1.26,0.18-3.52,0.12c-2.26-0.05-5.52-0.29-9.53-0.75
									c-8.02-0.9-19.05-2.92-30.84-6.6c-11.78-3.71-22-8.34-29.1-12.18c-3.55-1.92-6.37-3.58-8.25-4.83
									c-1.89-1.24-2.9-1.98-2.82-2.1c0.17-0.29,4.52,2.13,11.75,5.59c7.22,3.47,17.4,7.83,29.06,11.5
									c11.66,3.64,22.51,5.87,30.42,7.14C858.61,1413.12,863.56,1413.61,863.54,1413.95z"/>
							</g>
						</g>
					</g>
				</g>
			</g>
			<g>
				<g>
					<g>
						<g>
							<g>
								<path class="st8" d="M849.75,1405.26c-0.09,0.27-3.29-0.53-8.33-2.22c-5.04-1.68-11.91-4.3-19.31-7.62
									c-7.4-3.33-13.91-6.74-18.51-9.4c-4.6-2.65-7.32-4.52-7.18-4.76c0.31-0.54,11.85,5.63,26.56,12.23
									C837.67,1400.13,849.95,1404.68,849.75,1405.26z"/>
							</g>
						</g>
					</g>
				</g>
			</g>
		</g>
		<g>
			<g>
				<g>
					<g>
						<g>
							<g>
								<g>
									<g>
										<g>
											<g>
												<g>
													<g>
														<g>
															<g>
																<g>
																	<g>
																		<g>
																			<path class="st4" d="M1104.82,1667.45l0.43,84.72c0,0,86.26,28.02,87.86,43.67l-164.24,6.73l-6.08-131.98
																				L1104.82,1667.45z"/>
																		</g>
																	</g>
																</g>
															</g>
														</g>
													</g>
												</g>
											</g>
										</g>
									</g>
								</g>
							</g>
						</g>
					</g>
				</g>
				<g>
					<g>
						<g>
							<g>
								<g>
									<g>
										<g>
											<g>
												<g>
													<g>
														<g>
															<g>
																<g>
																	<g>
																		<g>
																			<g>
																				<path class="st2" d="M1054.17,1747.13c-3.14,1-5.19,4.66-4.32,7.84c0.87,3.18,4.58,5.3,7.74,4.35
																					c3.16-0.94,5.76-5.27,4.54-8.33c-1.22-3.06-5.71-5.31-8.55-3.64"/>
																			</g>
																		</g>
																	</g>
																</g>
															</g>
														</g>
													</g>
												</g>
											</g>
										</g>
									</g>
								</g>
							</g>
						</g>
					</g>
				</g>
				<g>
					<g>
						<g>
							<g>
								<g>
									<g>
										<g>
											<g>
												<g>
													<g>
														<g>
															<g>
																<g>
																	<g>
																		<g>
																			<path class="st8" d="M1028.87,1802.56l-0.09-13.33l157.5-1.46c0,0,7.44,2.88,6.83,8.07L1028.87,1802.56z"/>
																		</g>
																	</g>
																</g>
															</g>
														</g>
													</g>
												</g>
											</g>
										</g>
									</g>
								</g>
							</g>
						</g>
					</g>
				</g>
				<g>
					<g>
						<g>
							<g>
								<g>
									<g>
										<g>
											<g>
												<g>
													<g>
														<g>
															<g>
																<g>
																	<g>
																		<g>
																			<g>
																				<path class="st0" d="M1107.88,1751.22c0.01,0.8-3.99,1.33-7.83,4.07c-3.91,2.64-5.8,6.2-6.56,5.91
																					c-0.75-0.13,0.25-4.97,4.96-8.2C1103.13,1749.72,1108.02,1750.48,1107.88,1751.22z"/>
																			</g>
																		</g>
																	</g>
																</g>
															</g>
														</g>
													</g>
												</g>
											</g>
										</g>
									</g>
								</g>
							</g>
						</g>
					</g>
				</g>
				<g>
					<g>
						<g>
							<g>
								<g>
									<g>
										<g>
											<g>
												<g>
													<g>
														<g>
															<g>
																<g>
																	<g>
																		<g>
																			<g>
																				<path class="st0" d="M1125.39,1757.64c0.21,0.77-3.2,2.28-5.79,5.78c-2.69,3.43-3.22,7.12-4.03,7.12
																					c-0.75,0.16-1.49-4.52,1.8-8.81C1120.64,1757.41,1125.35,1756.88,1125.39,1757.64z"/>
																			</g>
																		</g>
																	</g>
																</g>
															</g>
														</g>
													</g>
												</g>
											</g>
										</g>
									</g>
								</g>
							</g>
						</g>
					</g>
				</g>
				<g>
					<g>
						<g>
							<g>
								<g>
									<g>
										<g>
											<g>
												<g>
													<g>
														<g>
															<g>
																<g>
																	<g>
																		<g>
																			<g>
																				<path class="st0" d="M1136.02,1777.86c-0.72,0.2-2-3.76-0.12-8.24c1.85-4.49,5.56-6.38,5.92-5.72
																					c0.48,0.64-1.86,3.1-3.34,6.8C1136.91,1774.35,1136.82,1777.75,1136.02,1777.86z"/>
																			</g>
																		</g>
																	</g>
																</g>
															</g>
														</g>
													</g>
												</g>
											</g>
										</g>
									</g>
								</g>
							</g>
						</g>
					</g>
				</g>
				<g>
					<g>
						<g>
							<g>
								<g>
									<g>
										<g>
											<g>
												<g>
													<g>
														<g>
															<g>
																<g>
																	<g>
																		<g>
																			<g>
																				<path class="st0" d="M1105.64,1731.92c-0.31,0.74-4.03-0.21-8.55,0.28c-4.53,0.4-8,2.07-8.44,1.4
																					c-0.49-0.56,2.83-3.67,8.17-4.18C1102.14,1728.88,1106.01,1731.28,1105.64,1731.92z"/>
																			</g>
																		</g>
																	</g>
																</g>
															</g>
														</g>
													</g>
												</g>
											</g>
										</g>
									</g>
								</g>
							</g>
						</g>
					</g>
				</g>
			</g>
		</g>
		<g>
			<g>
				<g>
					<g>
						<g>
							<g>
								<g>
									<g>
										<g>
											<g>
												<g>
													<g>
														<path class="st4" d="M716.95,1658.56l-31.46,97.55l-47.13,69.98c-3.4,5.04-1.81,11.91,3.45,14.96l0,0
															c2.95,1.71,6.51,1.89,9.6,0.47c19.7-9.03,92.02-42.6,93.92-49.87c2.2-8.42,40.02-100.7,40.02-100.7L716.95,1658.56z"
															/>
													</g>
												</g>
											</g>
										</g>
									</g>
								</g>
							</g>
						</g>
					</g>
				</g>
				<g>
					<g>
						<g>
							<g>
								<g>
									<g>
										<g>
											<g>
												<g>
													<g>
														<path class="st8" d="M641.8,1841.05l105.8-55.93l-1.43,4.1c-1.23,3.55-3.67,6.55-6.91,8.45
															c-8.66,5.08-32.88,18.6-87.57,43.95C648.52,1843.1,644.79,1842.88,641.8,1841.05L641.8,1841.05z"/>
													</g>
												</g>
											</g>
										</g>
									</g>
								</g>
							</g>
						</g>
					</g>
				</g>
				<g class="st11">
					<g>
						<g>
							<g>
								<g>
									<g>
										<g>
											<g>
												<g>
													<g>
														<g>
															<path class="st0" d="M738.6,1746.98c-3.01,0.83-5.08,4.23-4.37,7.27c0.71,3.04,4.14,5.18,7.16,4.39
																c3.02-0.78,5.63-4.78,4.59-7.72c-1.05-2.94-5.21-5.23-7.96-3.74"/>
														</g>
													</g>
												</g>
											</g>
										</g>
									</g>
								</g>
							</g>
						</g>
					</g>
				</g>
				<g>
					<g>
						<g>
							<g>
								<g>
									<g>
										<g>
											<g>
												<g>
													<g>
														<g>
															<path class="st0" d="M678.65,1806.45c-0.64,0.08-1.06-5.75-5.87-10.48c-4.67-4.87-10.49-5.37-10.4-6.01
																c0-0.27,1.49-0.59,3.86-0.12c2.36,0.45,5.53,1.91,8.14,4.55c2.61,2.65,4.02,5.84,4.44,8.2
																C679.26,1804.97,678.92,1806.45,678.65,1806.45z"/>
														</g>
													</g>
												</g>
											</g>
										</g>
									</g>
								</g>
							</g>
						</g>
					</g>
				</g>
				<g>
					<g>
						<g>
							<g>
								<g>
									<g>
										<g>
											<g>
												<g>
													<g>
														<g>
															<path class="st0" d="M667.24,1817.01c-0.61,0.26-2.62-3.97-7.13-7.15c-4.44-3.28-9.08-3.85-9.03-4.51
																c-0.11-0.59,5.27-1.02,10.35,2.68C666.55,1811.69,667.84,1816.93,667.24,1817.01z"/>
														</g>
													</g>
												</g>
											</g>
										</g>
									</g>
								</g>
							</g>
						</g>
					</g>
				</g>
				<g>
					<g>
						<g>
							<g>
								<g>
									<g>
										<g>
											<g>
												<g>
													<g>
														<g>
															<path class="st0" d="M697.26,1794.3c-0.61,0.3-3.68-6.22-10.25-11.77c-6.49-5.66-13.4-7.69-13.19-8.34
																c0.02-0.57,7.68,0.59,14.66,6.64C695.51,1786.8,697.83,1794.19,697.26,1794.3z"/>
														</g>
													</g>
												</g>
											</g>
										</g>
									</g>
								</g>
							</g>
						</g>
					</g>
				</g>
				<g>
					<g>
						<g>
							<g>
								<g>
									<g>
										<g>
											<g>
												<g>
													<g>
														<g>
															<path class="st0" d="M709.31,1765.44c-0.46,0.49-5.03-3.61-11.9-6.28c-6.84-2.77-12.97-2.92-12.97-3.59
																c-0.1-0.57,6.45-1.46,13.8,1.5C705.61,1759.96,709.77,1765.1,709.31,1765.44z"/>
														</g>
													</g>
												</g>
											</g>
										</g>
									</g>
								</g>
							</g>
						</g>
					</g>
				</g>
				<g>
					<g>
						<g>
							<g>
								<g>
									<g>
										<g>
											<g>
												<g>
													<g>
														<g>
															<path class="st0" d="M719.27,1737.04c-0.49,0.46-4.75-4.64-12.22-6.86c-7.42-2.39-13.81-0.59-13.96-1.24
																c-0.09-0.26,1.39-1.1,4.07-1.62c2.66-0.52,6.54-0.52,10.55,0.71c4,1.25,7.2,3.44,9.11,5.38
																C718.74,1735.34,719.48,1736.88,719.27,1737.04z"/>
														</g>
													</g>
												</g>
											</g>
										</g>
									</g>
								</g>
							</g>
						</g>
					</g>
				</g>
				<g>
					<g>
						<g>
							<g>
								<g>
									<g>
										<g>
											<g>
												<g>
													<g>
														<g>
															<path class="st0" d="M709.1,1724.83c-0.12-0.04,0.11-1.42,1.14-3.71c1.03-2.27,2.91-5.48,6.25-8.58
																c1.67-1.44,3.57-3.37,6.71-3.7c1.57-0.18,3.48,0.77,4.18,2.45c0.7,1.64,0.51,3.36,0.01,4.9
																c-2.24,6.11-9.58,10.22-16.8,8.7c-7.21-1.65-12.11-7.8-13.01-14.06c-0.12-1.58,0.05-3.41,1.37-4.79
																c1.31-1.39,3.51-1.36,4.81-0.65c2.73,1.43,3.96,3.72,5.23,5.53c2.4,3.84,3.49,7.38,3.99,9.82
																c0.5,2.45,0.45,3.85,0.32,3.86c-0.43,0.14-0.79-5.61-5.64-12.81c-1.26-1.71-2.67-3.8-4.67-4.71
																c-0.97-0.45-1.98-0.35-2.62,0.34c-0.64,0.65-0.86,1.94-0.71,3.2c0.81,5.15,5.31,10.76,11.42,12.06
																c6.07,1.34,12.52-2.28,14.37-7.18c0.43-1.19,0.53-2.49,0.14-3.42c-0.38-0.91-1.27-1.44-2.29-1.39
																c-2.15,0.1-4.12,1.7-5.74,3.03C711,1719.42,709.5,1725.08,709.1,1724.83z"/>
														</g>
													</g>
												</g>
											</g>
										</g>
									</g>
								</g>
							</g>
						</g>
					</g>
				</g>
			</g>
		</g>
		<g>
			<g>
				<g>
					<polygon class="st9" points="1232.56,695.72 1193.39,736.17 1191.8,771.4 1237.26,781.86 1239.58,781.86 1242.52,759.12 
						1268.72,724.28 					"/>
				</g>
			</g>
			<g>
				<g>
					<g>
						<g>
							<g>
								<g>
									<g>
										<g>
											<g>
												<path class="st8" d="M1214.73,456.77c9.36-47.24,33.02-92.07,70.77-127.43c46.49-43.55,107.16-66.38,170.83-64.3
													c63.67,2.08,122.72,28.84,166.27,75.33c89.9,95.97,84.95,247.2-11.03,337.11l0,0c-46.5,43.55-107.17,66.38-170.83,64.3
													c-63.67-2.08-122.72-28.83-166.27-75.33C1219.93,608.21,1200.3,529.63,1214.73,456.77z M1666.68,546.92
													c13.47-67.99-4.85-141.3-55.74-195.64c-40.63-43.38-95.73-68.34-155.13-70.28c-59.41-1.95-116.01,19.36-159.39,60
													c-43.39,40.63-68.35,95.73-70.28,155.13c-1.95,59.4,19.36,116.01,60,159.39c40.63,43.38,95.73,68.34,155.13,70.28
													c59.41,1.95,116.01-19.36,159.39-60C1635.87,632.83,1657.95,590.99,1666.68,546.92z"/>
											</g>
										</g>
									</g>
								</g>
							</g>
						</g>
					</g>
				</g>
				<g>
					<g>
						<g>
							<g>
								<g>
									<g>
										<g>
											<g>
												<path class="st4" d="M1214.73,456.77c9.36-47.24,33.02-92.07,70.77-127.43c46.49-43.55,107.16-66.38,170.83-64.3
													c63.67,2.08,122.72,28.84,166.27,75.33c89.9,95.97,84.95,247.2-11.03,337.11l0,0c-46.5,43.55-107.17,66.38-170.83,64.3
													c-63.67-2.08-122.72-28.83-166.27-75.33C1219.93,608.21,1200.3,529.63,1214.73,456.77z M1666.68,546.92
													c13.47-67.99-4.85-141.3-55.74-195.64c-40.63-43.38-95.73-68.34-155.13-70.28c-59.41-1.95-116.01,19.36-159.39,60
													c-43.39,40.63-68.35,95.73-70.28,155.13c-1.95,59.4,19.36,116.01,60,159.39c40.63,43.38,95.73,68.34,155.13,70.28
													c59.41,1.95,116.01-19.36,159.39-60C1635.87,632.83,1657.95,590.99,1666.68,546.92z"/>
											</g>
										</g>
									</g>
								</g>
							</g>
						</g>
					</g>
				</g>
				<g>
					<g>
						<g>
							<g>
								<g>
									<g>
										<g>
											<g>
												<path class="st8" d="M1208.87,445.29c9.36-47.24,33.02-92.07,70.77-127.43c46.49-43.55,107.16-66.38,170.83-64.3
													c63.67,2.08,122.72,28.83,166.27,75.33c89.9,95.97,84.95,247.2-11.03,337.11l0,0c-46.5,43.55-107.17,66.38-170.83,64.3
													c-63.67-2.08-122.71-28.83-166.27-75.33C1214.07,596.73,1194.44,518.15,1208.87,445.29z M1660.82,535.44
													c13.47-67.99-4.85-141.3-55.74-195.64c-40.63-43.38-95.73-68.34-155.13-70.28c-59.41-1.95-116.01,19.36-159.39,60
													c-43.38,40.63-68.35,95.73-70.28,155.13c-1.95,59.4,19.36,116.01,60,159.39c40.63,43.38,95.73,68.34,155.13,70.28
													c59.41,1.95,116.01-19.36,159.39-60C1630.01,621.35,1652.09,579.51,1660.82,535.44z"/>
											</g>
										</g>
									</g>
								</g>
							</g>
						</g>
					</g>
				</g>
			</g>
			<g>
				<g>
					<g>
						<g>
							<g>
								<g>
									<g>
										<g>
											<g>
												<g>
													<g>
														<path class="st8" d="M1003.84,956.04l-7.59-7.34c-6.77-6.55-2.97-21.52,4.13-28.79l266.44-275.4l35.63,34.47
															L1036.4,953.96C1027.42,962.77,1012.55,964.47,1003.84,956.04z"/>
													</g>
												</g>
											</g>
										</g>
									</g>
								</g>
							</g>
						</g>
					</g>
				</g>
			</g>
			<g>
				<g>
					<path class="st9" d="M1249.4,677.7c1.26-1.2,3.73-1.94,5.39-1.44c1.66,0.5,3.01,1.71,4.23,2.95
						c8.66,8.8,13.7,21.06,13.73,33.41c0.01,5.29-1.4,11.36-6.11,13.77l-5.35-3.1c-1.66-2.14-6.62-5.72-7.27-8.35
						c-2.77-11.06,1.21-10.6-5.73-29.79C1247.6,683.27,1246.85,680.12,1249.4,677.7z"/>
				</g>
				<g>
					<g>
						<path class="st9" d="M1250.66,693.38c-1.5-2.62-3.18-5.17-5.3-6.98c-2.12-1.82-4.74-2.83-7.05-2.11
							c-3.7,1.16-5.49,6.48-5.07,11.43c0.42,4.95,2.53,9.6,4.59,14.06c4.39,9.51,8.78,19.02,13.16,28.54l2.55-1.87
							c1.82,1.78,4.47,0.86,5.69-1.25c1.22-2.12,1.34-5.01,1.25-7.77C1260.11,715.54,1256.47,703.51,1250.66,693.38z"/>
					</g>
				</g>
				<g>
					<g>
						<path class="st9" d="M1244.2,721.84c-3.03-6.69-8.09-12.29-13.18-17.66c-1.77-1.87-3.66-3.8-6.12-4.64
							c-2.46-0.85-5.66-0.24-6.88,2.02c-1.16,2.16-0.13,4.79,0.93,7c6.6,13.75,14.18,27.06,22.66,39.78l7.87-7.93
							C1253.06,733.98,1247.23,728.54,1244.2,721.84z"/>
					</g>
				</g>
			</g>
			<g>
				<g>
					<g>
						<g>
							<g>
								<path class="st9" d="M1031.66,809.82l7.22-1.53l37.8-32.22l20.69-17.38c1.73-1.46,3.82-2.42,6.06-2.79l20.48-3.42
									c0,0,3.21,8.91-6.13,14.05l-11.22,5.81l-10.27,12.14l1.31,2.63c0,0,67.29,10.44,71.49,15.57c4.2,5.13,0,9.8-1.87,10.73
									c-1.87,0.93-5.13,0.47-5.13,0.47s3.27,7.93-6.53,14.47c0,0,7.47,9.8-5.6,14.47c0,0-3.73,7.47-11.2,9.8
									c-7.47,2.33-47.61,7-51.81,7c-4.2,0-48.25,0.07-48.25,0.07l-9.69,1.58L1031.66,809.82z"/>
							</g>
						</g>
						<g>
							<g>
								<g>
									<path class="st10" d="M1163.64,813.98c0.05,0.55-8.29,1.7-18.61,1c-10.28-0.76-18.46-2.2-18.41-2.73
										c0.05-0.63,8.39-0.12,18.55,0.62C1155.32,813.57,1163.6,813.37,1163.64,813.98z"/>
								</g>
							</g>
						</g>
						<g>
							<g>
								<g>
									<path class="st10" d="M1155.56,828.34c0,0.3-1.75,0.54-4.55,0.91c-2.81,0.35-6.68,0.9-11.06,1.17
										c-4.42,0.29-8.36-0.13-11.16-0.24c-2.83-0.19-4.52-0.15-4.59-0.41c-0.08-0.3,1.7-0.89,4.58-1.08
										c2.89-0.27,6.8-0.1,11.06-0.38c4.28-0.26,8.22-0.58,11.09-0.55C1153.79,827.77,1155.56,828.06,1155.56,828.34z"/>
								</g>
							</g>
						</g>
						<g>
							<g>
								<g>
									<path class="st10" d="M1151.3,842.52c0.04,0.58-8.08,1.67-18.14,2.43c-5.05,0.32-9.48,0.71-12.42,1.93
										c-2.97,1.12-4.32,2.71-4.58,2.47c-0.2-0.1,0.82-2.2,3.96-3.83c3.09-1.71,7.88-2.36,12.88-2.67
										C1143.06,842.08,1151.26,841.93,1151.3,842.52z"/>
								</g>
							</g>
						</g>
					</g>
					<g>
						<g>
							<g>
								<g>
									<g>
										<path class="st6" d="M931.1,601.94c0,0-28.44,4.91-50.01,47.29c-11.92,23.43-67.63,164.31-70.93,176.66
											c-14.14,52.85,13.22,86.92,39.55,89.24c28.99,2.55,178.9-45.82,178.9-45.82l3.31-64.05l-136.75,20.76l65.7-127.53
											C960.87,698.49,963.39,613.55,931.1,601.94z"/>
									</g>
								</g>
							</g>
						</g>
						<g>
							<g>
								<g>
									<path class="st4" d="M849.19,861.03c-0.2-0.06,0.7-3.57,3.68-8.54c2.93-4.97,8.19-11.19,15.38-16.35
										c7.22-5.13,14.81-8.08,20.46-9.23c5.67-1.2,9.27-0.91,9.27-0.7c0.02,0.37-3.5,0.62-8.9,2.15
										c-5.41,1.49-12.61,4.55-19.6,9.51c-6.96,4.99-12.2,10.81-15.36,15.44C850.92,857.92,849.53,861.17,849.19,861.03z"/>
								</g>
							</g>
						</g>
					</g>
				</g>
				<g>
					<g>
						<path class="st4" d="M887.26,909.64c0.01,0.03,0.24,0,0.7-0.09c0.56-0.12,1.22-0.26,2.05-0.44c1.82-0.38,4.44-1.16,7.87-2.09
							c6.83-1.98,16.78-5.02,29.31-9.01c25.04-7.99,60.43-19.68,102.03-33.75l0.63-0.21l0.03-0.67c0.97-18.43,2.02-38.52,3.12-59.48
							l0.07-1.31l-1.29,0.21c-10.79,1.75-22.12,3.58-33.64,5.44c-37.09,6.05-72.19,11.78-103.13,16.83l1.01,1.39
							c18.59-36.4,34.29-67.14,45.42-88.92c5.42-10.75,9.71-19.29,12.73-25.28c1.4-2.84,2.49-5.08,3.3-6.73
							c0.73-1.53,1.09-2.34,1.04-2.36c-0.05-0.02-0.5,0.73-1.32,2.22c-0.87,1.62-2.06,3.81-3.57,6.59
							c-3.13,5.93-7.59,14.39-13.21,25.03c-11.29,21.69-27.23,52.3-46.1,88.56l-0.88,1.7l1.9-0.31
							c30.94-4.99,66.06-10.64,103.16-16.62c11.52-1.87,22.85-3.71,33.64-5.47l-1.23-1.1c-1.05,20.96-2.05,41.05-2.97,59.49
							l0.67-0.88c-41.5,14.06-76.74,26-101.77,34.48c-12.38,4.06-22.22,7.28-29.12,9.54c-3.4,1.03-5.99,1.91-7.77,2.39
							c-0.81,0.24-1.46,0.43-2.01,0.59C887.48,909.53,887.25,909.61,887.26,909.64z"/>
					</g>
				</g>
				<g>
					<g>
						<path class="st4" d="M925,604.53c-0.2,0.34,3.87,2.68,9.54,7.56c5.67,4.85,12.7,12.58,18.17,22.59
							c5.42,10.03,8.08,20.14,9.07,27.54c1.01,7.41,0.76,12.1,1.15,12.12c0.15,0.01,0.31-1.15,0.48-3.28
							c0.21-2.12,0.19-5.21-0.13-9.01c-0.29-3.81-1.11-8.3-2.46-13.18c-1.44-4.85-3.47-10.05-6.23-15.21
							c-2.82-5.12-6.09-9.65-9.37-13.5c-3.36-3.78-6.68-6.92-9.71-9.24c-3.01-2.34-5.6-4.04-7.49-5.02
							C926.13,604.9,925.07,604.4,925,604.53z"/>
					</g>
				</g>
			</g>
		</g>
	</g>
</g>
</svg>
