<?xml version="1.0" encoding="utf-8"?>
<!-- Generator: Adobe Illustrator 24.1.2, SVG Export Plug-In . SVG Version: 6.00 Build 0)  -->
<svg version="1.1" id="Слой_1" xmlns="http://www.w3.org/2000/svg" xmlns:xlink="http://www.w3.org/1999/xlink" x="0px" y="0px"
	 viewBox="0 0 3401.57 1913.39" style="enable-background:new 0 0 3401.57 1913.39;" xml:space="preserve">
<style type="text/css">
	.st0{fill:#FFFFFF;}
	.st1{fill:#E1E1E1;}
	.st2{fill:#F5F5F5;}
	.st3{fill:#ECECEC;}
	.st4{fill:#1A2E35;}
	.st5{fill:#1976D2;}
	.st6{opacity:0.3;}
	.st7{opacity:0.2;}
	.st8{fill:#FFC19D;}
	.st9{fill:#FF9C6A;}
	.st10{fill:#375A64;}
	.st11{opacity:0.6;}
</style>
<rect x="0" class="st0" width="3401.57" height="1913.39"/>
<g>
	<g>
		<g>
			<g>
				<path class="st1" d="M2311.15,835.56c15.24-9.21,31.47-16.2,48.21-20.95l9.93-47.72l80.62-1.41l11.6,47.33
					c16.9,4.16,33.36,10.57,48.92,19.24l40.74-26.71l58.01,56.01L2583.92,903c9.21,15.25,16.2,31.48,20.95,48.22l47.71,9.93
					l1.42,80.62l-47.33,11.6c-4.16,16.89-10.57,33.35-19.24,48.91l26.7,40.75l-56,58.01l-41.65-25.26
					c-15.25,9.21-31.47,16.19-48.21,20.95l-9.93,47.72l-80.61,1.42l-11.6-47.34c-16.89-4.16-33.35-10.58-48.91-19.24l-40.74,26.71
					l-58.01-56.01l25.25-41.65c-9.21-15.25-16.2-31.47-20.95-48.21l-47.71-9.93l-1.42-80.62l47.34-11.61
					c4.16-16.89,10.58-33.35,19.24-48.91l-26.7-40.75l56-58.01L2311.15,835.56L2311.15,835.56z M2354.13,942.95
					c-33.18,34.37-32.22,89.12,2.15,122.31c34.37,33.18,89.13,32.22,122.3-2.15c33.18-34.37,32.22-89.13-2.15-122.31
					C2442.06,907.62,2387.31,908.59,2354.13,942.95z"/>
			</g>
		</g>
	</g>
</g>
<g>
	<g>
		<g>
			<g>
				<path class="st2" d="M2457.19,487.53c7.83-4.73,16.17-8.32,24.77-10.76l5.1-24.52l41.42-0.73l5.96,24.32
					c8.68,2.14,17.14,5.43,25.13,9.89l20.94-13.72l29.8,28.78l-12.98,21.4c4.73,7.83,8.32,16.18,10.76,24.77l24.52,5.1l0.73,41.42
					l-24.32,5.96c-2.14,8.68-5.43,17.14-9.89,25.13l13.72,20.94l-28.77,29.8l-21.4-12.98c-7.83,4.73-16.17,8.32-24.77,10.76
					l-5.1,24.52l-41.42,0.73l-5.96-24.32c-8.68-2.14-17.14-5.43-25.13-9.89l-20.94,13.72l-29.8-28.78l12.98-21.4
					c-4.73-7.83-8.32-16.17-10.77-24.77l-24.52-5.1l-0.73-41.42l24.32-5.96c2.14-8.68,5.43-17.14,9.89-25.13l-13.72-20.94
					l28.77-29.8L2457.19,487.53L2457.19,487.53z M2479.28,542.71c-17.05,17.66-16.56,45.79,1.1,62.84
					c17.66,17.05,45.79,16.55,62.84-1.11c17.05-17.66,16.56-45.79-1.1-62.84C2524.46,524.56,2496.32,525.05,2479.28,542.71z"/>
			</g>
		</g>
	</g>
</g>
<g>
	<g>
		<g>
			<g>
				<path class="st3" d="M1145.61,446.84c15.27-9.23,31.53-16.23,48.3-20.99l9.95-47.81l80.77-1.42l11.62,47.42
					c16.93,4.17,33.42,10.59,49.01,19.28l40.82-26.76l58.12,56.11l-25.3,41.73c9.23,15.28,16.23,31.54,20.99,48.31l47.8,9.95
					l1.42,80.77l-47.42,11.63c-4.17,16.92-10.59,33.42-19.28,49l26.75,40.82l-56.11,58.12l-41.73-25.3
					c-15.27,9.23-31.53,16.23-48.31,20.99l-9.95,47.81l-80.77,1.42l-11.63-47.43c-16.92-4.17-33.42-10.6-49.01-19.28l-40.82,26.76
					l-58.12-56.11l25.3-41.73c-9.23-15.28-16.23-31.53-20.99-48.31l-47.8-9.95l-1.42-80.77l47.43-11.63
					c4.17-16.92,10.6-33.42,19.28-49l-26.76-40.82l56.11-58.12L1145.61,446.84L1145.61,446.84z M1188.66,554.44
					c-33.24,34.43-32.28,89.29,2.15,122.54c34.43,33.24,89.3,32.28,122.54-2.16c33.24-34.43,32.28-89.3-2.15-122.54
					C1276.77,519.05,1221.91,520.01,1188.66,554.44z"/>
			</g>
		</g>
	</g>
</g>
<g>
	<g>
		<g>
			<g>
				<path class="st3" d="M1671.69,174.52c11.36-6.87,23.45-12.07,35.93-15.61l7.4-35.56l60.08-1.05l8.65,35.28
					c12.59,3.1,24.86,7.88,36.46,14.34l30.37-19.9l43.23,41.74l-18.82,31.04c6.87,11.36,12.07,23.46,15.61,35.94l35.56,7.4
					l1.06,60.08l-35.28,8.65c-3.1,12.59-7.88,24.86-14.34,36.45l19.9,30.37l-41.74,43.23l-31.04-18.82
					c-11.36,6.87-23.46,12.07-35.93,15.61l-7.4,35.56l-60.08,1.05l-8.65-35.28c-12.59-3.1-24.86-7.88-36.45-14.34l-30.37,19.91
					l-43.23-41.74l18.82-31.04c-6.87-11.36-12.07-23.46-15.61-35.93l-35.56-7.4l-1.05-60.08l35.28-8.65
					c3.1-12.59,7.88-24.86,14.34-36.45l-19.9-30.37l41.74-43.23L1671.69,174.52L1671.69,174.52z M1703.72,254.56
					c-24.73,25.61-24.01,66.42,1.6,91.15c25.61,24.73,66.42,24.01,91.15-1.6c24.73-25.61,24.01-66.42-1.6-91.15
					C1769.26,228.23,1728.45,228.95,1703.72,254.56z"/>
			</g>
		</g>
	</g>
</g>
<g>
	<g>
		<g>
			<g>
				<path class="st3" d="M500.13,907.99c11.36-6.87,23.45-12.07,35.93-15.61l7.4-35.56l60.08-1.05l8.65,35.28
					c12.59,3.1,24.86,7.88,36.46,14.34l30.37-19.9l43.23,41.74l-18.82,31.04c6.87,11.36,12.07,23.46,15.61,35.94l35.56,7.4
					l1.06,60.08l-35.28,8.65c-3.1,12.59-7.88,24.86-14.34,36.45l19.9,30.37l-41.74,43.23l-31.04-18.82
					c-11.36,6.87-23.46,12.07-35.93,15.61l-7.4,35.56l-60.08,1.05l-8.65-35.28c-12.59-3.1-24.86-7.88-36.45-14.34l-30.37,19.91
					l-43.23-41.74l18.82-31.04c-6.87-11.36-12.07-23.46-15.61-35.93l-35.56-7.4l-1.05-60.08l35.28-8.65
					c3.1-12.59,7.88-24.86,14.34-36.45l-19.9-30.37l41.74-43.23L500.13,907.99L500.13,907.99z M532.15,988.03
					c-24.73,25.61-24.01,66.42,1.6,91.15c25.61,24.73,66.42,24.01,91.15-1.6c24.73-25.61,24.01-66.42-1.6-91.15
					C597.69,961.7,556.88,962.41,532.15,988.03z"/>
			</g>
		</g>
	</g>
</g>
<g>
	<g>
		<g>
			<g>
				<path class="st2" d="M2630.19,1208.1c8.72-5.27,18.01-9.27,27.59-11.99l5.68-27.31l46.15-0.81l6.64,27.09
					c9.67,2.38,19.09,6.05,28,11.01l23.32-15.29l33.2,32.06l-14.46,23.84c5.27,8.73,9.27,18.02,11.99,27.6l27.31,5.68l0.81,46.15
					l-27.09,6.64c-2.38,9.67-6.05,19.09-11.01,28l15.29,23.32l-32.06,33.2l-23.84-14.46c-8.73,5.27-18.02,9.27-27.6,11.99
					l-5.69,27.31l-46.14,0.81l-6.64-27.1c-9.67-2.38-19.09-6.05-28-11.02l-23.32,15.29l-33.2-32.06l14.46-23.84
					c-5.27-8.73-9.27-18.02-11.99-27.6l-27.31-5.68l-0.81-46.15l27.1-6.64c2.38-9.67,6.05-19.09,11.01-28l-15.29-23.32l32.06-33.2
					L2630.19,1208.1L2630.19,1208.1z M2654.79,1269.57c-18.99,19.67-18.44,51.02,1.23,70.01c19.67,18.99,51.02,18.44,70.01-1.23
					c18.99-19.67,18.44-51.02-1.23-70.01C2705.12,1249.35,2673.78,1249.9,2654.79,1269.57z"/>
			</g>
		</g>
	</g>
</g>
<g>
	<g>
		<g>
			<g>
				<path class="st2" d="M1327.18,107.86c8.72-5.27,18.01-9.27,27.59-11.99l5.68-27.31l46.15-0.81l6.64,27.09
					c9.67,2.38,19.09,6.05,28,11.01l23.32-15.29l33.2,32.06l-14.45,23.84c5.27,8.73,9.27,18.02,11.99,27.6l27.31,5.68l0.81,46.15
					l-27.09,6.64c-2.38,9.67-6.05,19.09-11.01,28l15.29,23.32l-32.06,33.2l-23.84-14.46c-8.73,5.27-18.02,9.27-27.6,11.99
					l-5.69,27.31l-46.14,0.81l-6.64-27.1c-9.67-2.38-19.09-6.05-28-11.02l-23.32,15.29l-33.2-32.06l14.46-23.84
					c-5.27-8.73-9.27-18.02-11.99-27.6l-27.31-5.68l-0.81-46.15l27.1-6.64c2.38-9.67,6.05-19.09,11.01-28l-15.29-23.32l32.06-33.2
					L1327.18,107.86L1327.18,107.86z M1351.78,169.33c-18.99,19.67-18.44,51.02,1.23,70.01c19.67,18.99,51.02,18.44,70.01-1.23
					c18.99-19.67,18.44-51.02-1.23-70.01C1402.12,149.11,1370.78,149.66,1351.78,169.33z"/>
			</g>
		</g>
	</g>
</g>
<g>
	<g>
		<g>
			<g>
				<path class="st2" d="M919.27,831.14c8.72-5.27,18.01-9.27,27.59-11.99l5.68-27.31l46.15-0.81l6.64,27.09
					c9.67,2.38,19.1,6.05,28,11.01l23.32-15.29l33.2,32.06l-14.45,23.84c5.27,8.73,9.27,18.02,11.99,27.6l27.31,5.68l0.81,46.15
					l-27.09,6.64c-2.38,9.67-6.05,19.09-11.01,28l15.28,23.32l-32.05,33.2l-23.84-14.46c-8.73,5.27-18.02,9.27-27.6,11.99
					l-5.68,27.31l-46.14,0.81l-6.64-27.1c-9.67-2.38-19.09-6.05-28-11.02l-23.32,15.29l-33.2-32.06l14.46-23.84
					c-5.27-8.73-9.27-18.02-11.99-27.6l-27.31-5.68l-0.81-46.15l27.1-6.64c2.38-9.67,6.05-19.09,11.01-28l-15.29-23.32l32.05-33.2
					L919.27,831.14L919.27,831.14z M943.87,892.61c-18.99,19.67-18.44,51.02,1.23,70.01c19.67,18.99,51.02,18.44,70.01-1.23
					c18.99-19.67,18.44-51.02-1.23-70.01C994.2,872.39,962.86,872.94,943.87,892.61z"/>
			</g>
		</g>
	</g>
</g>
<g>
	<path class="st4" d="M2701.49,1784.85c0,0.59-408.66,1.07-912.65,1.07c-504.17,0-912.74-0.48-912.74-1.07
		c0-0.59,408.57-1.07,912.74-1.07C2292.83,1783.78,2701.49,1784.26,2701.49,1784.85z"/>
</g>
<g>
	<g>
		<g>
			<g>
				<g>
					<g>
						<path class="st0" d="M2318.47,363.16l36.96-4.24c16.86,10.48,36.73,16.56,58.03,16.63c61.26,0.19,111.07-49.39,111.26-110.73
							c0.19-61.34-49.31-111.22-110.57-111.41c-61.26-0.19-111.06,49.38-111.25,110.73c-0.08,25.61,8.53,49.21,23.02,68.05
							l-0.05-0.04L2318.47,363.16z"/>
					</g>
				</g>
				<g>
					<g>
						<g>
							<path class="st4" d="M2318.47,363.16c0,0,0.22-0.73,0.57-2.08c0.36-1.43,0.87-3.41,1.52-5.98
								c1.32-5.29,3.23-12.95,5.71-22.86l-0.65,0.23c0,0,0.03,0.02,0.05,0.04c0.18,0.14,0.44,0.1,0.58-0.08
								c0.11-0.15,0.11-0.36,0-0.5c-8.37-11.07-17.68-27.63-21.22-49.46c-0.89-5.43-1.36-11.15-1.39-17.09
								c0.26-5.92,0.3-12.11,1.54-18.36c2.01-12.52,6.34-25.55,13.52-37.83c7.15-12.27,17.12-23.77,29.59-33.03
								c12.44-9.26,27.4-16.25,43.72-19.62c16.34-3.18,33.94-2.74,50.89,1.89c17.02,4.46,33.12,13.64,46.42,26.22
								c26.18,24.5,37.83,60.84,33.59,93.04c-1.95,16.15-7.46,31.3-15.39,44.26c-7.92,12.98-18.21,23.76-29.52,31.93
								c-22.75,16.41-48.88,22.13-70.62,20.79c-21.95-1.2-39.56-8.66-51.71-16.13c-0.09-0.05-0.19-0.07-0.28-0.06
								c-11.89,1.48-21.05,2.63-27.33,3.41c-3.07,0.39-5.43,0.7-7.11,0.92C2319.33,363.02,2318.47,363.16,2318.47,363.16
								s0.75-0.04,2.31-0.19c1.66-0.17,3.99-0.4,7.01-0.71c6.37-0.67,15.65-1.64,27.7-2.91l-0.28-0.06
								c12.15,7.67,29.88,15.36,52.09,16.72c21.99,1.5,48.54-4.17,71.7-20.75c11.51-8.25,22.01-19.18,30.09-32.35
								c8.09-13.15,13.73-28.55,15.74-44.98c4.38-32.75-7.46-69.79-34.12-94.74l-5.15-4.71c-1.81-1.45-3.69-2.81-5.52-4.21
								c-3.58-2.95-7.68-5.08-11.54-7.54c-1.94-1.2-4.08-2.06-6.1-3.1c-2.07-0.93-4.03-2.13-6.18-2.83
								c-4.27-1.49-8.4-3.36-12.79-4.29c-17.27-4.7-35.18-5.12-51.8-1.86c-16.61,3.45-31.81,10.6-44.43,20.05
								c-12.65,9.44-22.75,21.16-29.95,33.65c-7.24,12.5-11.58,25.74-13.55,38.44c-1.22,6.34-1.23,12.61-1.46,18.6
								c0.07,6.01,0.58,11.8,1.51,17.29c3.73,22.07,13.29,38.71,21.86,49.75l0.57-0.58c-0.02-0.01-0.05-0.04-0.05-0.04
								c-0.18-0.14-0.43-0.11-0.57,0.07c-0.04,0.05-0.06,0.11-0.08,0.16c-2.29,10.08-4.06,17.88-5.28,23.25
								c-0.56,2.54-1,4.5-1.31,5.91C2318.57,362.53,2318.47,363.16,2318.47,363.16z"/>
						</g>
					</g>
				</g>
			</g>
		</g>
	</g>
	<g>
		<g>
			<g>
				<polygon class="st5" points="2415.02,311.01 2360.59,274.6 2373.3,255.61 2409.8,280.02 2455.21,219.92 2473.44,233.7 				"/>
			</g>
		</g>
	</g>
</g>
<g>
	<g>
		<g>
			<g>
				<g>
					
						<ellipse transform="matrix(0.386 -0.9225 0.9225 0.386 56.5517 3357.4885)" class="st5" cx="2550.53" cy="1636.26" rx="116.87" ry="116.87"/>
				</g>
			</g>
		</g>
		<g>
			<g>
				<g>
					
						<ellipse transform="matrix(0.2322 -0.9727 0.9727 0.2322 367.4819 3736.6001)" class="st0" cx="2550.53" cy="1635.53" rx="101.23" ry="101.23"/>
				</g>
			</g>
		</g>
		<g class="st6">
			<g>
				<g>
					<path d="M2550.36,1546.26c53.98,0,98.09,41.82,101.21,94.57c0.12-1.98,0.19-3.97,0.19-5.98c0-55.53-45.4-100.55-101.4-100.55
						c-56,0-101.4,45.02-101.4,100.55c0,2.01,0.08,4,0.19,5.98C2452.27,1588.08,2496.38,1546.26,2550.36,1546.26z"/>
				</g>
			</g>
		</g>
	</g>
	<g>
		<g>
			<path class="st4" d="M2509.37,1704.87c2.52-4.2,4.79-7.46,5.07-7.3c0.28,0.16-1.48,3.73-3.92,7.98c-2.44,4.24-4.71,7.51-5.07,7.3
				C2505.09,1712.64,2506.85,1709.06,2509.37,1704.87z"/>
		</g>
		<g>
			<path class="st4" d="M2480.83,1675.37c4.29-2.37,7.89-4.06,8.04-3.78c0.16,0.28-3.15,2.49-7.39,4.93
				c-4.24,2.45-7.84,4.14-8.04,3.78C2473.24,1679.94,2476.55,1677.73,2480.83,1675.37z"/>
		</g>
		<g>
			<path class="st4" d="M2470.88,1635.53c4.89,0.09,8.86,0.42,8.86,0.74c0,0.32-3.97,0.59-8.87,0.6c-4.89,0.01-8.86-0.32-8.86-0.74
				C2462.02,1635.71,2465.99,1635.44,2470.88,1635.53z"/>
		</g>
		<g>
			<path class="st4" d="M2482.2,1596.06c4.19,2.53,7.46,4.8,7.3,5.07c-0.16,0.28-3.73-1.48-7.98-3.92c-4.24-2.44-7.51-4.71-7.3-5.07
				C2474.43,1591.78,2478.01,1593.54,2482.2,1596.06z"/>
		</g>
		<g>
			<path class="st4" d="M2511.71,1567.53c2.36,4.29,4.06,7.89,3.78,8.04c-0.28,0.16-2.48-3.15-4.93-7.39
				c-2.45-4.24-4.14-7.84-3.78-8.04C2507.14,1559.94,2509.35,1563.25,2511.71,1567.53z"/>
		</g>
		<g>
			<path class="st4" d="M2551.55,1557.59c-0.09,4.89-0.42,8.86-0.74,8.86c-0.32,0-0.59-3.97-0.6-8.87
				c-0.01-4.89,0.32-8.86,0.74-8.85C2551.37,1548.73,2551.64,1552.7,2551.55,1557.59z"/>
		</g>
		<g>
			<path class="st4" d="M2591.01,1568.92c-2.53,4.19-4.8,7.46-5.08,7.3c-0.28-0.16,1.48-3.73,3.92-7.98
				c2.44-4.24,4.72-7.51,5.08-7.29C2595.3,1561.16,2593.54,1564.73,2591.01,1568.92z"/>
		</g>
		<g>
			<path class="st4" d="M2619.53,1598.45c-4.29,2.36-7.89,4.05-8.05,3.78s3.15-2.48,7.4-4.93c4.24-2.44,7.84-4.14,8.04-3.77
				C2627.13,1593.88,2623.82,1596.09,2619.53,1598.45z"/>
		</g>
		<g>
			<path class="st4" d="M2629.46,1638.29c-4.89-0.09-8.86-0.42-8.86-0.74c0-0.32,3.97-0.59,8.87-0.59c4.89-0.01,8.86,0.33,8.85,0.74
				C2638.32,1638.12,2634.35,1638.38,2629.46,1638.29z"/>
		</g>
		<g>
			<path class="st4" d="M2618.11,1677.75c-4.19-2.53-7.46-4.8-7.29-5.08c0.16-0.28,3.73,1.48,7.97,3.93
				c4.24,2.44,7.5,4.72,7.29,5.08C2625.87,1682.04,2622.3,1680.28,2618.11,1677.75z"/>
		</g>
		<g>
			<path class="st4" d="M2588.58,1706.26c-2.36-4.29-4.05-7.89-3.77-8.05c0.28-0.16,2.48,3.16,4.93,7.4
				c2.44,4.24,4.13,7.84,3.77,8.05C2593.14,1713.86,2590.94,1710.55,2588.58,1706.26z"/>
		</g>
		<g>
			<path class="st4" d="M2548.73,1716.17c0.09-4.89,0.43-8.86,0.75-8.86c0.32,0,0.59,3.97,0.59,8.87c0.01,4.89-0.33,8.86-0.75,8.85
				C2548.91,1725.04,2548.64,1721.07,2548.73,1716.17z"/>
		</g>
	</g>
	<g>
		<path class="st4" d="M2550.17,1690.95c-0.12,0-0.24-1.51-0.34-4.24c-0.07-3.09-0.17-6.96-0.28-11.57
			c-0.16-9.77-0.26-23.29-0.26-38.26l0-0.89h0.89c0.25,0,0.51,0,0.78,0c15.15,0,28.86,0.1,38.79,0.26
			c4.68,0.11,8.62,0.21,11.75,0.28c2.78,0.11,4.31,0.22,4.31,0.34c0,0.12-1.53,0.24-4.31,0.34c-3.14,0.08-7.07,0.17-11.75,0.28
			c-9.93,0.16-23.64,0.26-38.79,0.26c-0.27,0-0.53,0-0.78,0l0.89-0.89c0,14.97-0.1,28.49-0.26,38.26
			c-0.11,4.61-0.21,8.48-0.28,11.57C2550.41,1689.44,2550.29,1690.95,2550.17,1690.95z"/>
	</g>
	<g>
		<g>
			<g>
				<g>
					<path class="st4" d="M2550.53,1736.77c0,0,0.56-0.09,1.64-0.17c1.16-0.08,2.75-0.19,4.8-0.33c1.06-0.07,2.24-0.14,3.54-0.22
						c1.29-0.14,2.7-0.42,4.22-0.65c3.05-0.49,6.59-0.95,10.43-2.12c7.81-1.79,17.03-5.46,26.81-11.23
						c9.73-5.82,19.9-14.21,28.53-25.63c8.55-11.38,15.81-25.74,18.75-42.32c0.59-4.16,1.44-8.35,1.46-12.71
						c0.07-2.17,0.28-4.35,0.25-6.55c-0.11-2.2-0.23-4.42-0.35-6.65c-0.08-1.11-0.07-2.24-0.22-3.36l-0.52-3.35
						c-0.37-2.24-0.63-4.51-1.1-6.76c-1.21-4.43-2.11-9.02-3.93-13.39c-1.44-4.5-3.67-8.74-5.76-13.09
						c-1.15-2.12-2.49-4.15-3.74-6.25c-1.19-2.14-2.68-4.1-4.18-6.06c-2.8-4.08-6.31-7.65-9.68-11.38
						c-3.74-3.38-7.39-6.92-11.64-9.83c-8.29-5.97-17.51-11.19-27.65-14.34c-10.07-3.27-20.77-5.03-31.66-5.18
						c-10.89,0.14-21.59,1.9-31.67,5.17c-10.14,3.15-19.36,8.37-27.66,14.34c-4.24,2.91-7.9,6.46-11.64,9.83
						c-3.38,3.74-6.88,7.3-9.68,11.39c-1.5,1.96-2.98,3.92-4.18,6.06c-1.25,2.1-2.59,4.13-3.74,6.25
						c-2.09,4.35-4.32,8.59-5.76,13.09c-1.83,4.37-2.73,8.96-3.94,13.39c-0.47,2.25-0.73,4.52-1.1,6.76l-0.52,3.35
						c-0.15,1.12-0.14,2.24-0.22,3.36c-0.12,2.23-0.23,4.45-0.35,6.65c-0.03,2.2,0.18,4.38,0.25,6.55
						c0.02,4.35,0.88,8.55,1.46,12.71c2.94,16.58,10.2,30.94,18.75,42.32c8.63,11.42,18.79,19.81,28.53,25.63
						c9.78,5.77,19,9.44,26.81,11.23c3.85,1.17,7.38,1.63,10.43,2.12c1.53,0.23,2.93,0.51,4.22,0.65c1.29,0.08,2.47,0.15,3.53,0.22
						c2.05,0.14,3.65,0.25,4.8,0.33C2549.97,1736.68,2550.53,1736.77,2550.53,1736.77s-0.56,0.03-1.64,0.01
						c-1.16-0.04-2.76-0.09-4.82-0.16c-1.07-0.04-2.25-0.09-3.56-0.14c-1.3-0.11-2.72-0.37-4.25-0.57
						c-3.07-0.44-6.64-0.85-10.53-1.98c-7.89-1.7-17.23-5.3-27.15-11.05c-9.88-5.8-20.22-14.21-29.02-25.72
						c-8.72-11.47-16.16-26-19.2-42.81c-0.61-4.21-1.49-8.47-1.53-12.89c-0.08-2.2-0.3-4.41-0.27-6.65
						c0.11-2.23,0.22-4.48,0.33-6.75c0.08-1.13,0.07-2.28,0.21-3.41l0.51-3.4c0.37-2.27,0.63-4.58,1.1-6.87
						c1.21-4.51,2.12-9.18,3.96-13.62c1.46-4.58,3.71-8.89,5.83-13.32c1.17-2.16,2.52-4.23,3.79-6.36c1.21-2.18,2.71-4.17,4.24-6.17
						c2.84-4.15,6.4-7.79,9.83-11.59c3.79-3.44,7.51-7.05,11.82-10.02c8.43-6.09,17.81-11.4,28.13-14.62
						c10.25-3.34,21.15-5.13,32.23-5.27c11.08,0.15,21.97,1.94,32.22,5.28c10.31,3.22,19.69,8.53,28.12,14.62
						c4.31,2.97,8.03,6.58,11.82,10.02c3.43,3.8,6.98,7.44,9.83,11.59c1.52,2,3.02,3.99,4.23,6.17c1.26,2.14,2.62,4.21,3.78,6.36
						c2.12,4.43,4.37,8.74,5.83,13.32c1.84,4.44,2.75,9.11,3.96,13.62c0.47,2.28,0.73,4.6,1.1,6.87l0.51,3.4
						c0.15,1.13,0.14,2.28,0.21,3.41c0.11,2.27,0.22,4.52,0.33,6.75c0.03,2.23-0.19,4.45-0.27,6.65c-0.04,4.42-0.92,8.68-1.53,12.89
						c-3.04,16.81-10.48,31.34-19.2,42.81c-8.8,11.51-19.14,19.92-29.02,25.72c-9.92,5.75-19.26,9.35-27.15,11.05
						c-3.89,1.13-7.45,1.54-10.53,1.98c-1.54,0.2-2.95,0.46-4.25,0.57c-1.3,0.05-2.49,0.1-3.56,0.14c-2.06,0.07-3.66,0.12-4.82,0.16
						C2551.08,1736.8,2550.53,1736.77,2550.53,1736.77z"/>
				</g>
			</g>
		</g>
	</g>
</g>
<g>
	<g>
		<g>
			<g>
				<g>
					<circle class="st5" cx="815.48" cy="1602.86" r="177.48"/>
				</g>
			</g>
		</g>
		<g>
			<g>
				<g>
					
						<ellipse transform="matrix(0.7071 -0.7071 0.7071 0.7071 -893.7646 1045.7761)" class="st0" cx="815.48" cy="1601.76" rx="153.74" ry="153.74"/>
				</g>
			</g>
		</g>
		<g class="st6">
			<g>
				<g>
					<path d="M815.23,1466.17c81.97,0,148.96,63.52,153.7,143.62c0.18-3.01,0.29-6.03,0.29-9.08c0-84.33-68.95-152.7-153.99-152.7
						c-85.05,0-153.99,68.36-153.99,152.7c0,3.05,0.12,6.07,0.29,9.08C666.27,1529.69,733.25,1466.17,815.23,1466.17z"/>
				</g>
			</g>
		</g>
	</g>
	<g>
		<g>
			<path class="st4" d="M752.98,1707.06c3.83-6.37,7.28-11.33,7.7-11.09c0.42,0.25-2.24,5.67-5.95,12.12
				c-3.7,6.44-7.15,11.4-7.7,11.08C746.48,1718.85,749.14,1713.42,752.98,1707.06z"/>
		</g>
		<g>
			<path class="st4" d="M709.63,1662.25c6.51-3.59,11.98-6.16,12.21-5.74c0.24,0.42-4.79,3.77-11.23,7.49
				c-6.43,3.72-11.9,6.29-12.21,5.74C698.1,1669.19,703.13,1665.84,709.63,1662.25z"/>
		</g>
		<g>
			<path class="st4" d="M694.52,1601.75c7.43,0.13,13.45,0.63,13.45,1.12c0,0.49-6.03,0.89-13.47,0.91
				c-7.43,0.02-13.45-0.48-13.45-1.12C681.06,1602.03,687.09,1601.62,694.52,1601.75z"/>
		</g>
		<g>
			<path class="st4" d="M711.71,1541.81c6.37,3.84,11.33,7.29,11.08,7.71c-0.25,0.42-5.67-2.24-12.11-5.95
				c-6.44-3.71-11.4-7.16-11.08-7.7C699.92,1535.32,705.34,1537.98,711.71,1541.81z"/>
		</g>
		<g>
			<path class="st4" d="M756.53,1498.49c3.59,6.51,6.16,11.98,5.74,12.22c-0.42,0.24-3.77-4.79-7.49-11.23
				c-3.71-6.43-6.28-11.9-5.74-12.21C749.59,1486.95,752.94,1491.98,756.53,1498.49z"/>
		</g>
		<g>
			<path class="st4" d="M817.03,1483.39c-0.13,7.43-0.64,13.45-1.12,13.45c-0.49,0-0.89-6.03-0.91-13.47
				c-0.01-7.43,0.49-13.45,1.12-13.45C816.76,1469.93,817.17,1475.96,817.03,1483.39z"/>
		</g>
		<g>
			<path class="st4" d="M876.96,1500.6c-3.84,6.37-7.29,11.33-7.71,11.08c-0.42-0.25,2.25-5.67,5.96-12.11
				c3.71-6.44,7.16-11.4,7.71-11.08S880.8,1494.24,876.96,1500.6z"/>
		</g>
		<g>
			<path class="st4" d="M920.28,1545.44c-6.51,3.59-11.98,6.15-12.22,5.73c-0.24-0.42,4.79-3.77,11.23-7.49
				c6.44-3.71,11.91-6.28,12.21-5.73C931.81,1538.5,926.78,1541.85,920.28,1545.44z"/>
		</g>
		<g>
			<path class="st4" d="M935.35,1605.95c-7.43-0.14-13.45-0.64-13.45-1.13c0-0.49,6.03-0.89,13.47-0.9
				c7.43-0.01,13.45,0.49,13.45,1.13C948.81,1605.68,942.78,1606.08,935.35,1605.95z"/>
		</g>
		<g>
			<path class="st4" d="M918.12,1665.87c-6.37-3.84-11.33-7.29-11.08-7.71c0.25-0.42,5.67,2.25,12.11,5.96
				c6.44,3.71,11.4,7.17,11.07,7.71C929.9,1672.38,924.48,1669.71,918.12,1665.87z"/>
		</g>
		<g>
			<path class="st4" d="M873.27,1709.17c-3.59-6.51-6.15-11.98-5.73-12.22c0.42-0.24,3.77,4.79,7.48,11.23
				c3.71,6.44,6.28,11.91,5.73,12.22C880.2,1720.71,876.85,1715.68,873.27,1709.17z"/>
		</g>
		<g>
			<path class="st4" d="M812.75,1724.22c0.14-7.43,0.65-13.45,1.13-13.45c0.49,0,0.89,6.03,0.9,13.47
				c0.01,7.43-0.5,13.45-1.13,13.45C813.01,1737.68,812.61,1731.65,812.75,1724.22z"/>
		</g>
	</g>
	<g>
		<path class="st4" d="M751.53,1559.68c0.1-0.16,2.12,0.94,5.69,3.05c4,2.45,9.02,5.51,15,9.16c12.61,7.84,29.94,18.84,49.05,31.15
			l1.13,0.73l-0.73,1.13c-0.2,0.31-0.42,0.66-0.64,1c-12.47,19.34-23.88,36.76-32.25,49.3c-4,5.88-7.36,10.83-10.03,14.77
			c-2.42,3.46-3.83,5.32-3.99,5.22c-0.16-0.1,0.96-2.16,3.11-5.79c2.48-4.06,5.6-9.17,9.31-15.23c7.96-12.8,19.12-30.39,31.59-49.72
			c0.22-0.34,0.44-0.68,0.64-1l0.4,1.86c-19.1-12.32-36.27-23.58-48.62-31.82c-5.79-3.93-10.65-7.24-14.53-9.88
			C753.26,1561.23,751.43,1559.84,751.53,1559.68z"/>
	</g>
	<g>
		<g>
			<g>
				<g>
					<path class="st4" d="M815.48,1755.5c0,0,0.84-0.13,2.49-0.26c1.76-0.12,4.18-0.29,7.29-0.5c1.61-0.1,3.4-0.21,5.37-0.34
						c1.97-0.21,4.1-0.64,6.42-0.99c4.63-0.74,10-1.45,15.84-3.23c11.86-2.72,25.87-8.29,40.71-17.06
						c14.78-8.84,30.22-21.58,43.32-38.92c12.98-17.29,24.02-39.1,28.47-64.27c0.89-6.31,2.19-12.69,2.22-19.3
						c0.11-3.29,0.43-6.61,0.38-9.95c-0.17-3.34-0.35-6.7-0.53-10.1c-0.12-1.69-0.11-3.4-0.33-5.1l-0.79-5.09
						c-0.56-3.4-0.96-6.85-1.67-10.26c-1.83-6.73-3.2-13.7-5.97-20.33c-2.19-6.84-5.57-13.27-8.75-19.88
						c-1.75-3.22-3.78-6.31-5.67-9.49c-1.81-3.25-4.06-6.22-6.34-9.2c-4.25-6.2-9.58-11.61-14.7-17.29
						c-5.68-5.13-11.23-10.51-17.67-14.93c-12.6-9.07-26.6-16.99-41.99-21.79c-15.3-4.97-31.55-7.64-48.08-7.86
						c-16.54,0.22-32.8,2.89-48.1,7.85c-15.4,4.79-29.4,12.71-42,21.79c-6.44,4.42-12,9.81-17.68,14.94
						c-5.13,5.67-10.45,11.09-14.71,17.29c-2.28,2.98-4.53,5.95-6.34,9.2c-1.89,3.19-3.93,6.27-5.68,9.49
						c-3.17,6.61-6.56,13.05-8.75,19.89c-2.77,6.63-4.14,13.6-5.98,20.34c-0.71,3.41-1.11,6.87-1.67,10.26l-0.79,5.09
						c-0.22,1.69-0.21,3.41-0.33,5.1c-0.18,3.39-0.35,6.76-0.53,10.1c-0.05,3.34,0.27,6.66,0.38,9.95
						c0.03,6.61,1.33,12.99,2.22,19.3c4.46,25.18,15.5,46.99,28.48,64.27c13.1,17.34,28.54,30.08,43.32,38.92
						c14.85,8.77,28.85,14.33,40.71,17.06c5.84,1.78,11.21,2.48,15.84,3.22c2.32,0.35,4.45,0.78,6.41,0.99
						c1.97,0.12,3.76,0.23,5.37,0.34c3.11,0.21,5.54,0.38,7.29,0.5C814.64,1755.36,815.48,1755.5,815.48,1755.5
						s-0.84,0.05-2.49,0.01c-1.76-0.06-4.2-0.13-7.32-0.24c-1.62-0.06-3.42-0.13-5.4-0.21c-1.98-0.17-4.12-0.56-6.46-0.87
						c-4.67-0.66-10.09-1.29-15.99-3c-11.98-2.59-26.16-8.05-41.23-16.78c-15-8.8-30.7-21.57-44.07-39.06
						c-13.24-17.42-24.53-39.49-29.16-65.02c-0.93-6.4-2.27-12.87-2.33-19.58c-0.13-3.34-0.46-6.7-0.42-10.1
						c0.17-3.39,0.33-6.81,0.5-10.25c0.12-1.72,0.1-3.46,0.32-5.18l0.78-5.17c0.56-3.45,0.96-6.96,1.67-10.43
						c1.84-6.85,3.22-13.94,6.02-20.68c2.22-6.96,5.63-13.51,8.85-20.23c1.77-3.28,3.83-6.42,5.75-9.66
						c1.84-3.3,4.12-6.33,6.43-9.37c4.32-6.31,9.72-11.83,14.93-17.61c5.76-5.23,11.41-10.71,17.96-15.22
						c12.81-9.24,27.05-17.31,42.72-22.2c15.57-5.07,32.12-7.79,48.94-8c16.82,0.22,33.36,2.95,48.93,8.01
						c15.66,4.89,29.9,12.96,42.71,22.2c6.54,4.51,12.19,9.99,17.95,15.21c5.21,5.77,10.61,11.3,14.92,17.6
						c2.31,3.03,4.59,6.06,6.43,9.36c1.92,3.24,3.98,6.39,5.75,9.66c3.22,6.73,6.63,13.27,8.85,20.23
						c2.8,6.74,4.18,13.83,6.02,20.68c0.71,3.47,1.11,6.98,1.67,10.43l0.78,5.17c0.22,1.72,0.21,3.46,0.32,5.18
						c0.17,3.44,0.34,6.86,0.5,10.25c0.04,3.39-0.29,6.76-0.42,10.09c-0.06,6.7-1.39,13.18-2.33,19.57
						c-4.62,25.53-15.91,47.59-29.15,65.02c-13.36,17.48-29.06,30.26-44.07,39.06c-15.07,8.73-29.25,14.2-41.23,16.78
						c-5.9,1.71-11.32,2.34-15.99,3c-2.34,0.31-4.48,0.7-6.46,0.87c-1.98,0.08-3.78,0.15-5.4,0.21c-3.13,0.1-5.56,0.18-7.32,0.24
						C816.32,1755.55,815.48,1755.5,815.48,1755.5z"/>
				</g>
			</g>
		</g>
	</g>
</g>
<rect x="2178.59" y="1756.17" class="st5" width="251.32" height="28.69"/>
<rect x="2444.14" y="1755.1" class="st5" width="251.32" height="28.69"/>
<g>
	<path class="st4" d="M2688.95,1755.1c0,0.59-55.23,1.07-123.33,1.07c-68.13,0-123.35-0.48-123.35-1.07
		c0-0.59,55.21-1.07,123.35-1.07C2633.72,1754.03,2688.95,1754.51,2688.95,1755.1z"/>
</g>
<rect x="2178.59" y="1727.48" class="st5" width="251.32" height="28.69"/>
<g>
	<path class="st4" d="M2425.7,1756.17c0,0.59-55.23,1.07-123.33,1.07c-68.13,0-123.34-0.48-123.34-1.07s55.21-1.07,123.34-1.07
		C2370.48,1755.09,2425.7,1755.57,2425.7,1756.17z"/>
</g>
<g>
	<g>
		<g>
			<g>
				<g>
					
						<ellipse transform="matrix(0.3145 -0.9492 0.9492 0.3145 81.2043 3268.9097)" class="st5" cx="2304.05" cy="1578.23" rx="121.11" ry="121.11"/>
				</g>
			</g>
		</g>
		<g>
			<g>
				<g>
					<circle class="st0" cx="2303.3" cy="1578.23" r="104.91"/>
				</g>
			</g>
		</g>
		<g class="st6">
			<g>
				<g>
					<path d="M2210.78,1578.4c0-55.94,43.34-101.65,98.01-104.88c-2.05-0.12-4.11-0.2-6.19-0.2c-57.55,0-104.2,47.05-104.2,105.08
						c0,58.04,46.65,105.08,104.2,105.08c2.08,0,4.14-0.08,6.19-0.2C2254.12,1680.05,2210.78,1634.34,2210.78,1578.4z"/>
				</g>
			</g>
		</g>
	</g>
	<g>
		<g>
			<path class="st4" d="M2375.16,1620.88c-4.35-2.62-7.73-4.97-7.56-5.26c0.17-0.29,3.87,1.53,8.27,4.06
				c4.39,2.53,7.78,4.88,7.56,5.25C2383.2,1625.31,2379.5,1623.49,2375.16,1620.88z"/>
		</g>
		<g>
			<path class="st4" d="M2344.58,1650.46c-2.45-4.44-4.21-8.17-3.92-8.33c0.29-0.16,2.58,3.27,5.11,7.66
				c2.54,4.39,4.29,8.12,3.92,8.33S2347.03,1654.9,2344.58,1650.46z"/>
		</g>
		<g>
			<path class="st4" d="M2303.3,1660.77c0.09-5.07,0.43-9.18,0.76-9.18c0.33,0,0.61,4.12,0.62,9.19c0.01,5.07-0.33,9.18-0.76,9.18
				C2303.49,1669.96,2303.21,1665.84,2303.3,1660.77z"/>
		</g>
		<g>
			<path class="st4" d="M2262.4,1649.04c2.62-4.35,4.97-7.73,5.26-7.56c0.29,0.17-1.53,3.87-4.06,8.27
				c-2.53,4.39-4.88,7.78-5.26,7.56C2257.96,1657.09,2259.78,1653.39,2262.4,1649.04z"/>
		</g>
		<g>
			<path class="st4" d="M2232.83,1618.46c4.44-2.45,8.17-4.2,8.34-3.92c0.16,0.29-3.27,2.57-7.66,5.11
				c-4.39,2.54-8.12,4.29-8.33,3.92C2224.96,1623.19,2228.39,1620.9,2232.83,1618.46z"/>
		</g>
		<g>
			<path class="st4" d="M2222.53,1577.17c5.07,0.09,9.18,0.43,9.18,0.77c0,0.33-4.12,0.61-9.19,0.62c-5.07,0.01-9.18-0.33-9.18-0.77
				C2213.35,1577.35,2217.46,1577.08,2222.53,1577.17z"/>
		</g>
		<g>
			<path class="st4" d="M2234.27,1536.27c4.35,2.62,7.73,4.97,7.56,5.26c-0.17,0.29-3.87-1.53-8.27-4.07
				c-4.39-2.53-7.78-4.89-7.56-5.26C2226.23,1531.84,2229.93,1533.66,2234.27,1536.27z"/>
		</g>
		<g>
			<path class="st4" d="M2264.87,1506.72c2.45,4.44,4.2,8.18,3.91,8.34c-0.29,0.16-2.57-3.27-5.11-7.66
				c-2.53-4.39-4.29-8.12-3.91-8.34C2260.14,1498.85,2262.42,1502.28,2264.87,1506.72z"/>
		</g>
		<g>
			<path class="st4" d="M2306.16,1496.43c-0.09,5.07-0.44,9.18-0.77,9.18c-0.33,0-0.61-4.12-0.62-9.19
				c-0.01-5.07,0.34-9.18,0.77-9.18C2305.98,1487.25,2306.25,1491.36,2306.16,1496.43z"/>
		</g>
		<g>
			<path class="st4" d="M2347.05,1508.19c-2.62,4.34-4.98,7.73-5.26,7.56c-0.29-0.17,1.53-3.87,4.07-8.26
				c2.53-4.39,4.89-7.78,5.26-7.56C2351.49,1500.15,2349.67,1503.85,2347.05,1508.19z"/>
		</g>
		<g>
			<path class="st4" d="M2376.6,1538.8c-4.44,2.45-8.18,4.2-8.34,3.91s3.27-2.57,7.67-5.11c4.39-2.53,8.13-4.28,8.34-3.91
				C2384.47,1534.07,2381.04,1536.35,2376.6,1538.8z"/>
		</g>
		<g>
			<path class="st4" d="M2386.87,1580.09c-5.07-0.1-9.18-0.44-9.18-0.77c0-0.33,4.12-0.61,9.19-0.61c5.07-0.01,9.18,0.34,9.18,0.77
				C2396.05,1579.91,2391.94,1580.19,2386.87,1580.09z"/>
		</g>
	</g>
	<g>
		<path class="st4" d="M2360.73,1578.6c0,0.13-1.56,0.25-4.39,0.35c-3.2,0.08-7.21,0.17-11.99,0.29
			c-10.13,0.17-24.14,0.27-39.65,0.27l-0.92,0v-0.92c0-0.26,0-0.53,0-0.81c0-15.7,0.1-29.91,0.27-40.2
			c0.12-4.85,0.21-8.93,0.29-12.18c0.11-2.88,0.23-4.47,0.36-4.47c0.13,0,0.25,1.59,0.36,4.47c0.08,3.25,0.18,7.33,0.29,12.18
			c0.17,10.29,0.27,24.5,0.27,40.2c0,0.28,0,0.55,0,0.81l-0.92-0.92c15.51,0,29.52,0.11,39.65,0.27c4.77,0.12,8.79,0.21,11.99,0.29
			C2359.17,1578.35,2360.73,1578.47,2360.73,1578.6z"/>
	</g>
	<g>
		<g>
			<g>
				<g>
					<path class="st4" d="M2408.21,1578.23c0,0-0.09-0.58-0.18-1.7c-0.08-1.2-0.2-2.85-0.34-4.98c-0.07-1.1-0.15-2.32-0.23-3.66
						c-0.15-1.34-0.44-2.8-0.68-4.38c-0.51-3.16-0.99-6.83-2.2-10.81c-1.86-8.09-5.66-17.65-11.64-27.78
						c-6.03-10.09-14.73-20.62-26.56-29.56c-11.8-8.86-26.68-16.39-43.86-19.43c-4.31-0.61-8.66-1.49-13.17-1.52
						c-2.25-0.08-4.51-0.3-6.79-0.26c-2.28,0.12-4.58,0.24-6.89,0.36c-1.15,0.08-2.32,0.07-3.48,0.23l-3.47,0.54
						c-2.32,0.39-4.67,0.66-7,1.14c-4.59,1.25-9.35,2.19-13.88,4.08c-4.67,1.5-9.06,3.8-13.57,5.97c-2.2,1.19-4.3,2.58-6.48,3.87
						c-2.22,1.24-4.24,2.77-6.28,4.33c-4.23,2.9-7.93,6.54-11.8,10.03c-3.5,3.87-7.18,7.66-10.19,12.06
						c-6.19,8.6-11.59,18.15-14.87,28.65c-3.39,10.44-5.22,21.53-5.37,32.81c0.15,11.29,1.97,22.38,5.36,32.82
						c3.27,10.51,8.68,20.06,14.87,28.66c3.02,4.4,6.69,8.19,10.19,12.06c3.87,3.5,7.57,7.13,11.8,10.04
						c2.03,1.55,4.06,3.09,6.28,4.33c2.18,1.29,4.28,2.68,6.48,3.87c4.51,2.17,8.9,4.47,13.57,5.97c4.52,1.89,9.28,2.83,13.88,4.08
						c2.33,0.48,4.69,0.75,7,1.14l3.47,0.54c1.16,0.15,2.32,0.15,3.48,0.23c2.31,0.12,4.61,0.24,6.89,0.36
						c2.28,0.04,4.54-0.18,6.79-0.26c4.51-0.02,8.86-0.91,13.17-1.52c17.18-3.04,32.06-10.58,43.86-19.43
						c11.83-8.94,20.53-19.48,26.56-29.56c5.98-10.13,9.78-19.69,11.64-27.78c1.21-3.99,1.69-7.65,2.2-10.81
						c0.24-1.58,0.53-3.03,0.68-4.38c0.08-1.34,0.16-2.56,0.23-3.66c0.15-2.12,0.26-3.78,0.34-4.98
						C2408.12,1578.8,2408.21,1578.23,2408.21,1578.23s0.03,0.58,0.01,1.7c-0.04,1.2-0.09,2.86-0.16,5
						c-0.04,1.11-0.09,2.34-0.14,3.68c-0.12,1.35-0.38,2.81-0.59,4.41c-0.45,3.19-0.88,6.88-2.05,10.91
						c-1.77,8.17-5.49,17.85-11.45,28.13c-6.01,10.24-14.72,20.95-26.65,30.07c-11.89,9.03-26.95,16.74-44.37,19.9
						c-4.37,0.64-8.78,1.55-13.36,1.59c-2.28,0.09-4.57,0.31-6.89,0.28c-2.31-0.11-4.65-0.23-7-0.34c-1.17-0.08-2.36-0.07-3.53-0.22
						l-3.53-0.53c-2.35-0.38-4.75-0.66-7.12-1.14c-4.67-1.26-9.51-2.2-14.11-4.11c-4.75-1.51-9.22-3.84-13.81-6.04
						c-2.24-1.21-4.38-2.61-6.59-3.92c-2.25-1.25-4.32-2.81-6.39-4.39c-4.3-2.95-8.07-6.63-12.01-10.19
						c-3.57-3.93-7.31-7.79-10.38-12.25c-6.31-8.74-11.81-18.46-15.15-29.15c-3.46-10.63-5.31-21.92-5.46-33.4
						c0.15-11.48,2.01-22.77,5.47-33.39c3.34-10.69,8.84-20.4,15.15-29.14c3.07-4.47,6.82-8.32,10.38-12.25
						c3.94-3.55,7.71-7.24,12.01-10.18c2.07-1.58,4.14-3.13,6.39-4.39c2.21-1.31,4.36-2.71,6.59-3.92
						c4.59-2.19,9.06-4.53,13.81-6.04c4.6-1.91,9.44-2.85,14.11-4.11c2.37-0.48,4.76-0.76,7.12-1.14l3.53-0.53
						c1.17-0.15,2.36-0.14,3.53-0.22c2.35-0.11,4.68-0.23,7-0.34c2.31-0.03,4.61,0.2,6.89,0.28c4.58,0.04,8.99,0.95,13.36,1.59
						c17.42,3.15,32.48,10.86,44.37,19.89c11.93,9.12,20.65,19.83,26.65,30.07c5.96,10.28,9.69,19.96,11.45,28.13
						c1.17,4.03,1.6,7.72,2.05,10.91c0.21,1.59,0.47,3.06,0.59,4.41c0.05,1.35,0.1,2.58,0.14,3.69c0.07,2.13,0.12,3.79,0.16,5
						C2408.24,1577.65,2408.21,1578.23,2408.21,1578.23z"/>
				</g>
			</g>
		</g>
	</g>
</g>
<rect x="2178.59" y="1698.79" class="st5" width="251.32" height="28.69"/>
<g>
	<path class="st4" d="M2423.5,1698.35c0,0.59-55.23,1.07-123.33,1.07c-68.13,0-123.34-0.48-123.34-1.07
		c0-0.59,55.21-1.07,123.34-1.07C2368.28,1697.28,2423.5,1697.76,2423.5,1698.35z"/>
</g>
<g>
	<path class="st4" d="M2425.7,1727.48c0,0.59-55.23,1.07-123.33,1.07c-68.13,0-123.34-0.48-123.34-1.07
		c0-0.59,55.21-1.07,123.34-1.07C2370.48,1726.4,2425.7,1726.88,2425.7,1727.48z"/>
</g>
<g>
	<g>
		<g>
			<g>
				<polygon class="st5" points="1172.8,1527.58 1288.78,1783.68 1344.76,1783.68 1352.78,1764.14 1362.72,1783.68 1399.45,1783.68 
					1395.18,1634.18 1393.37,1545.86 				"/>
			</g>
			<g class="st6">
				<polygon points="1172.8,1527.58 1288.78,1783.68 1344.76,1783.68 1352.78,1764.14 1362.72,1783.68 1399.45,1783.68 
					1395.18,1634.18 1393.37,1545.86 				"/>
			</g>
			<g>
				<polygon class="st5" points="1680.43,1555.03 1793.54,1783.68 1849.52,1783.68 1857.55,1765.8 1867.48,1783.68 1904.22,1783.68 
					1899.94,1646.83 1898.14,1565.97 				"/>
			</g>
			<g class="st6">
				<polygon points="1680.43,1555.03 1793.54,1783.68 1849.52,1783.68 1857.55,1765.8 1867.48,1783.68 1904.22,1783.68 
					1899.94,1646.83 1898.14,1565.97 				"/>
			</g>
			<g>
				<g>
					<path class="st4" d="M2323.81,881.1c0.02-0.04,0.37,0.09,1.05,0.37c0.8,0.35,1.79,0.78,3.02,1.31
						c2.55,1.34,6.35,3.38,10.51,7.02c4.18,3.57,8.8,8.62,12.72,15.43c3.88,6.78,7.05,15.42,7.64,25.34
						c0.78,9.89-1.77,21.02-7.87,30.99c-6.06,9.97-15.76,18.74-27.91,23.85c-12.02,5.07-27.06,6.25-40.25-0.07
						c-6.52-3.12-12.21-8.71-14.92-15.81c-2.83-6.93-2.66-15.65,2.05-22.13c4.6-6.47,12.23-9.99,19.72-10.5
						c7.64-0.54,14.97,2.44,20.67,6.82c11.6,8.92,16.97,23.38,16.59,36.46c-0.3,13.23-5.44,25.34-12.76,34.39
						c-3.69,4.52-7.9,8.39-12.51,11.27c-4.6,2.87-9.41,4.94-14.14,6.4c-9.54,2.74-18.66,3-26.41,1.97
						c-7.78-0.98-14.25-3.1-19.28-5.31c-5.06-2.17-8.66-4.5-11.05-6.12c-1.06-0.8-1.92-1.46-2.62-1.98
						c-0.58-0.46-0.87-0.7-0.84-0.73c0.19-0.32,4.75,3.92,14.85,8.03c5.01,2.06,11.43,4.02,19.08,4.86
						c7.63,0.9,16.54,0.52,25.8-2.24c4.59-1.47,9.23-3.52,13.67-6.34c4.42-2.82,8.47-6.59,12-10.98
						c7.02-8.79,11.92-20.54,12.15-33.26c0.31-12.57-4.88-26.29-15.86-34.69c-5.38-4.12-12.22-6.85-19.19-6.34
						c-6.9,0.47-13.94,3.77-18.04,9.58c-4.2,5.77-4.4,13.6-1.81,20.02c2.5,6.56,7.7,11.7,13.83,14.66
						c12.4,5.98,26.9,4.98,38.49,0.13c11.73-4.88,21.19-13.32,27.12-22.93c5.96-9.61,8.53-20.31,7.87-29.92
						c-0.48-9.63-3.46-18.12-7.15-24.81c-3.74-6.73-8.17-11.78-12.2-15.39C2329.68,883.17,2323.59,881.45,2323.81,881.1z"/>
				</g>
			</g>
			<g>
				<path class="st5" d="M2268.42,1112.82c16.84,380.02-301.74,569.64-662.37,569.64c-360.63,0-652.97-246.91-652.97-551.5
					c0-304.58,292.35-551.5,652.97-551.5C1966.68,579.47,2254.94,808.54,2268.42,1112.82z"/>
			</g>
			<g class="st6">
				<path d="M1560.55,715.67c0,0,43.31-13.75,83.83,32.03c40.52,45.78,96.88,123.84,96.88,123.84
					c-5.06,25.4-19.89,45.18-48.64,56.96L1560.55,715.67z"/>
			</g>
			<g>
				<ellipse class="st5" cx="1176.67" cy="1354.73" rx="223.59" ry="171.36"/>
			</g>
			<g>
				<path class="st5" d="M1385.22,896.67c0,0,131.04-203.3,191.06-181.26c60.01,22.05,116.35,213.1,116.35,213.1"/>
			</g>
			<g>
				<path class="st5" d="M1237.03,850.07l-6.12-55.05c0,0-82.06-34.29-155.54-51.08c-73.48-16.79-87.94,0-87.94,0l116.24,162.86
					L1237.03,850.07z"/>
			</g>
			<g class="st6">
				<path d="M1411.93,655.07l43.48,25.82c0,0,210.63-55.72,372.34,0l-59.34-50.5C1768.41,630.39,1572.28,588.25,1411.93,655.07z"/>
			</g>
			<g class="st6">
				<ellipse cx="1176.67" cy="1354.73" rx="223.59" ry="171.36"/>
			</g>
			<g>
				<ellipse class="st5" cx="1119.86" cy="1354.73" rx="209.46" ry="171.36"/>
			</g>
			<g class="st6">
				<path d="M1039.4,1435.11L1039.4,1435.11c-12.37,0-22.4-10.03-22.4-22.4v-115.96c0-12.37,10.03-22.4,22.4-22.4l0,0
					c12.37,0,22.4,10.03,22.4,22.4v115.96C1061.8,1425.08,1051.77,1435.11,1039.4,1435.11z"/>
			</g>
			<g class="st6">
				<path d="M1177.86,1435.11h-36.22c-2.37,0-4.29-1.92-4.29-4.29v-152.18c0-2.37,1.92-4.29,4.29-4.29h36.22
					c2.37,0,4.29,1.92,4.29,4.29v152.18C1182.15,1433.19,1180.23,1435.11,1177.86,1435.11z"/>
			</g>
			<g class="st6">
				<path d="M1224.32,855.47c18.85-10.65,28.97-26.54,21.85-52.77c0,0-97.32-41.98-170.81-58.76c-73.48-16.79-87.94,0-87.94,0
					l116.24,162.86L1224.32,855.47z"/>
			</g>
			<g>
				<path class="st5" d="M1230.91,859.93c0,0-5.45-3.72-14.65-9.86c-43.36-28.94-170.03-111.68-202.12-112.61
					c-44.09-1.28-44.15,36.74-44.09,66.13c0.04,20.86,17.15,202.08,17.15,202.08"/>
			</g>
			<g>
				<g>
					<path class="st4" d="M1692.62,928.51c-0.04,0.01-0.2-0.41-0.5-1.25c-0.32-0.96-0.74-2.19-1.26-3.74
						c-1.15-3.43-2.77-8.25-4.82-14.38c-4.24-12.47-10.53-30.47-19.14-52.38c-8.68-21.87-19.5-47.8-34.35-75.12
						c-7.53-13.56-15.85-27.69-26.58-40.69c-5.32-6.49-11.21-12.81-18.2-17.86c-6.92-5.01-15.07-9.14-23.88-8.11
						c-8.74,0.72-16.97,4.33-24.5,8.53c-7.56,4.24-14.52,9.31-21.11,14.56c-13.13,10.61-24.76,22.11-35.43,33.41
						c-21.26,22.71-38.72,44.7-53.03,63.38c-14.27,18.73-25.3,34.28-32.86,45.06c-3.69,5.31-6.59,9.49-8.65,12.46
						c-0.94,1.34-1.68,2.4-2.26,3.23c-0.52,0.72-0.8,1.09-0.83,1.06c-0.03-0.02,0.18-0.42,0.64-1.19c0.53-0.86,1.22-1.97,2.08-3.36
						c1.86-2.93,4.64-7.23,8.31-12.7c7.34-10.95,18.19-26.65,32.32-45.52c14.17-18.83,31.53-40.97,52.78-63.84
						c10.67-11.38,22.32-22.98,35.56-33.71c6.65-5.31,13.68-10.46,21.4-14.79c7.69-4.28,16.13-8.04,25.42-8.81
						c4.6-0.39,9.37,0.16,13.63,1.93c4.23,1.73,8.14,4,11.74,6.61c7.22,5.24,13.19,11.68,18.58,18.27
						c10.85,13.2,19.17,27.43,26.7,41.09c14.82,27.5,25.5,53.55,34.01,75.53c8.43,22.02,14.51,40.12,18.5,52.68
						c1.99,6.28,3.47,11.18,4.43,14.52c0.43,1.58,0.78,2.83,1.05,3.81C1692.57,928.05,1692.66,928.5,1692.62,928.51z"/>
				</g>
			</g>
			<g>
				<g>
					<path class="st4" d="M1768.41,630.39c0.03-0.03,0.39,0.23,1.08,0.77c0.78,0.63,1.77,1.43,3.01,2.44
						c2.73,2.28,6.56,5.48,11.43,9.55c9.98,8.47,24.22,20.55,41.76,35.43l2.77,2.35l-3.52-0.98c-21.63-6.04-47.62-12.21-76.84-16.73
						c-29.21-4.55-61.63-7.48-95.7-7.82c-81.1-1.33-152.23,13.93-195.22,26.26l-0.29,0.08l-0.25-0.14
						c-14.08-8.26-25.26-14.81-33.06-19.39c-3.71-2.22-6.61-3.96-8.72-5.22c-0.9-0.56-1.63-1.01-2.22-1.38
						c-0.49-0.32-0.73-0.5-0.72-0.52c0.02-0.03,0.29,0.09,0.81,0.36c0.62,0.33,1.37,0.73,2.31,1.22c2.15,1.19,5.11,2.82,8.9,4.91
						c7.88,4.45,19.16,10.82,33.37,18.84l-0.53-0.06c21.56-6.36,49.98-13.62,83.37-18.93c16.68-2.76,34.61-4.75,53.41-6.39
						c18.83-1.24,38.55-2.26,58.84-1.88c34.18,0.34,66.71,3.34,96,8.02c29.3,4.65,55.34,10.99,76.97,17.24l-0.74,1.37
						c-17.34-15.11-31.42-27.37-41.29-35.97c-4.75-4.2-8.48-7.51-11.15-9.87c-1.18-1.08-2.13-1.94-2.86-2.61
						C1768.7,630.74,1768.39,630.42,1768.41,630.39z"/>
				</g>
			</g>
			<g>
				<g>
					<path class="st4" d="M1244.79,1217.18c-0.02,0.03-0.44-0.22-1.23-0.72c-0.88-0.58-2.03-1.34-3.47-2.3
						c-1.55-1.05-3.41-2.31-5.59-3.79c-2.29-1.38-5.01-2.82-8.03-4.52c-12.15-6.58-30.91-14.35-55.33-18.78
						c-12.22-2.06-25.74-3.49-40.31-3.76c-14.57-0.09-30.14,0.88-46.32,3.4c-32.26,4.98-67.29,16.69-98.36,38.27
						c-7.69,5.46-14.99,11.28-21.66,17.6c-6.59,6.39-12.81,12.99-18.2,20.07c-10.87,14.05-19.3,29.25-25.1,44.47
						c-11.1,30.85-10.85,61.47-5.48,85.48c2.71,12.09,7.02,22.48,11.27,31.33c4.65,8.66,9.36,15.73,13.72,21.11
						c2.22,2.63,4.21,4.98,5.94,7.04c1.87,1.84,3.48,3.42,4.81,4.74c1.22,1.23,2.19,2.2,2.94,2.94c0.65,0.67,0.98,1.03,0.95,1.06
						c-0.02,0.03-0.4-0.27-1.1-0.89c-0.79-0.71-1.81-1.63-3.1-2.79c-1.38-1.28-3.04-2.81-4.99-4.61c-1.79-2.03-3.84-4.35-6.14-6.95
						c-4.49-5.33-9.35-12.39-14.16-21.08c-4.4-8.88-8.86-19.34-11.71-31.54c-5.63-24.24-6.07-55.21,5.08-86.55
						c2.99-7.72,6.42-15.5,10.74-23c4.13-7.61,9.11-14.95,14.57-22.1c5.45-7.18,11.73-13.87,18.4-20.34
						c6.75-6.4,14.14-12.29,21.91-17.82c31.42-21.82,66.8-33.56,99.33-38.47c16.31-2.49,32-3.39,46.67-3.22
						c14.67,0.35,28.28,1.88,40.56,4.06c24.56,4.66,43.37,12.72,55.47,19.58c3,1.78,5.71,3.28,7.97,4.73
						c2.14,1.55,3.97,2.88,5.5,3.99c1.39,1.03,2.5,1.85,3.35,2.48C1244.45,1216.84,1244.82,1217.15,1244.79,1217.18z"/>
				</g>
			</g>
			<g>
				<g>
					<path class="st4" d="M1060.54,1289.4c0.16,0,0.31,2.44,0.49,6.85c0.2,4.8,0.47,11.08,0.79,18.66
						c0.66,15.76,1.95,37.51,2.55,61.6c0.15,6.02,0.2,11.92,0.17,17.6c-0.04,5.69-0.22,11.25-1.23,16.49
						c-1.8,10.49-7.75,19.36-15.21,22.97c-7.58,3.68-14.87,1.57-18.46-0.97c-1.88-1.28-3.03-2.66-3.67-3.64
						c-0.62-1.01-0.84-1.59-0.79-1.62c0.21-0.17,1.22,2.27,4.92,4.53c3.52,2.19,10.43,3.85,17.27,0.29
						c6.81-3.51,12.28-11.87,13.9-21.94c0.91-5.04,1.06-10.47,1.07-16.12c0-5.67-0.07-11.53-0.21-17.54
						c-0.59-24.04-1.63-45.82-1.89-61.6c-0.15-7.89-0.16-14.28-0.08-18.7C1060.24,1291.84,1060.39,1289.4,1060.54,1289.4z"/>
				</g>
			</g>
			<g>
				<g>
					<path class="st4" d="M1179.31,1289.4c0.16,0,0.31,2.44,0.49,6.85c0.2,4.8,0.47,11.08,0.79,18.66
						c0.66,15.76,1.95,37.51,2.55,61.6c0.15,6.02,0.2,11.92,0.17,17.6c-0.04,5.69-0.23,11.25-1.23,16.49
						c-1.8,10.49-7.75,19.36-15.21,22.97c-7.58,3.68-14.87,1.57-18.46-0.97c-1.88-1.28-3.03-2.66-3.67-3.64
						c-0.62-1.01-0.84-1.59-0.79-1.62c0.21-0.17,1.22,2.27,4.92,4.53c3.52,2.19,10.43,3.85,17.27,0.29
						c6.81-3.51,12.28-11.87,13.9-21.94c0.91-5.04,1.06-10.47,1.07-16.12c0-5.67-0.07-11.53-0.22-17.54
						c-0.59-24.04-1.63-45.82-1.89-61.6c-0.15-7.89-0.16-14.28-0.08-18.7C1179.01,1291.84,1179.15,1289.4,1179.31,1289.4z"/>
				</g>
			</g>
			<g>
				<g>
					<path class="st4" d="M1326.8,1392.05c0.07,0.03-0.24,1.04-0.91,2.96c-0.73,1.89-1.55,4.78-3.18,8.28
						c-2.9,7.14-8.01,17.13-15.7,28.6c-7.67,11.48-18.37,24.11-31.83,36.45c-6.81,6.08-14.27,12.13-22.43,17.8
						c-8.2,5.61-17.05,10.91-26.48,15.62c-18.83,9.42-37.81,16.41-55.71,20.19c-17.85,3.99-34.4,4.77-48.15,4.84
						c-13.78-0.07-24.9-0.85-32.56-1.38c-3.66-0.29-6.59-0.52-8.83-0.7c-2.02-0.19-3.07-0.32-3.07-0.4
						c0.01-0.08,1.07-0.09,3.09-0.05c2.24,0.07,5.19,0.16,8.85,0.28c7.68,0.27,18.79,0.8,32.51,0.67
						c13.69-0.27,30.07-1.21,47.71-5.27c17.69-3.84,36.46-10.83,55.15-20.17c9.34-4.67,18.1-9.89,26.23-15.43
						c8.1-5.6,15.51-11.55,22.29-17.53c13.41-12.14,24.14-24.54,31.91-35.81c7.8-11.25,13.08-21.06,16.21-28.05
						c1.74-3.42,2.69-6.26,3.56-8.09C1326.27,1392.99,1326.73,1392.02,1326.8,1392.05z"/>
				</g>
			</g>
			<g>
				<g>
					<path class="st0" d="M1057.95,1284.62c-0.21,0.1-0.74-1.78-2.96-4.25c-2.14-2.43-6.39-5.33-12.28-5.56
						c-5.77-0.26-12.95,2.33-18.12,8.08c-2.59,2.85-4.49,6.48-5.5,10.58c-1.02,4.1-1.27,8.55-1.27,13.13
						c0.15,18.47,0.23,35.24,0.14,47.35c-0.08,5.7-0.15,10.5-0.21,14.36c-0.1,3.39-0.23,5.27-0.38,5.27c-0.15,0-0.32-1.87-0.49-5.26
						c-0.14-3.85-0.3-8.65-0.5-14.35c-0.32-12.13-0.65-28.85-0.8-47.38c0.01-4.65,0.27-9.29,1.39-13.66
						c1.1-4.37,3.25-8.39,6.1-11.43c5.71-6.16,13.46-8.75,19.73-8.27c6.38,0.46,10.81,3.83,12.86,6.58
						c1.09,1.37,1.63,2.63,1.97,3.46C1057.92,1284.14,1058.03,1284.6,1057.95,1284.62z"/>
				</g>
			</g>
			<g>
				<g>
					<path class="st0" d="M1136.65,1294.54c0.62,0,1.12,22.65,1.12,50.57c0,27.94-0.5,50.58-1.12,50.58
						c-0.62,0-1.12-22.64-1.12-50.58C1135.53,1317.18,1136.04,1294.54,1136.65,1294.54z"/>
				</g>
			</g>
			<g>
				<g>
					<path class="st0" d="M1100.61,1197.01c0,0.08-0.92,0.14-2.65,0.18c-1.73,0.08-4.28-0.04-7.55,0.16
						c-6.55,0.19-16.03,0.92-27.55,2.99c-22.92,3.99-54.4,14.97-82.19,37.58c-27.79,22.63-44.92,51.24-53.47,72.87
						c-4.36,10.86-7,20-8.51,26.37c-0.86,3.17-1.26,5.69-1.69,7.36c-0.39,1.68-0.63,2.57-0.71,2.55c-0.08-0.01,0.02-0.92,0.26-2.63
						c0.29-1.71,0.55-4.26,1.29-7.47c1.26-6.47,3.68-15.73,7.89-26.76c8.24-21.97,25.37-51.09,53.53-74.03
						c28.15-22.91,60.14-33.79,83.33-37.41c11.65-1.89,21.22-2.38,27.81-2.3c3.29-0.07,5.85,0.19,7.58,0.25
						C1099.71,1196.84,1100.61,1196.93,1100.61,1197.01z"/>
				</g>
			</g>
			<g>
				<g>
					<path class="st0" d="M988.27,978.13c0.07,0.03-0.2,0.87-0.79,2.44c-0.7,1.78-1.57,4.03-2.65,6.8
						c-1.2,2.93-2.64,6.53-4.11,10.78c-1.5,4.24-3.38,9.01-5.03,14.43c-1.76,5.38-3.67,11.27-5.38,17.71
						c-1.92,6.37-3.48,13.31-5.25,20.58c-3.21,14.61-6.06,30.81-7.91,47.98c-1.73,17.18-2.28,33.63-2.14,48.59
						c0.23,7.48,0.33,14.59,0.9,21.22c0.35,6.65,1,12.81,1.62,18.44c0.49,5.64,1.35,10.69,1.95,15.15c0.57,4.47,1.23,8.28,1.8,11.4
						c0.49,2.93,0.88,5.31,1.2,7.2c0.25,1.65,0.34,2.53,0.27,2.54c-0.08,0.02-0.32-0.83-0.71-2.45c-0.42-1.87-0.96-4.23-1.61-7.13
						c-0.71-3.1-1.49-6.9-2.18-11.36c-0.72-4.45-1.69-9.51-2.28-15.16c-0.72-5.64-1.47-11.82-1.9-18.49
						c-0.64-6.66-0.82-13.8-1.11-21.31c-0.25-15.03,0.24-31.58,1.98-48.86c1.86-17.26,4.79-33.55,8.13-48.21
						c1.83-7.29,3.47-14.24,5.47-20.63c1.8-6.44,3.8-12.33,5.67-17.7c1.75-5.41,3.74-10.15,5.36-14.37
						c1.59-4.22,3.15-7.79,4.48-10.67c1.24-2.71,2.25-4.91,3.05-6.65C987.79,978.88,988.2,978.1,988.27,978.13z"/>
				</g>
			</g>
			<g>
				<g>
					<path class="st0" d="M994.68,754.71c0.18,0.14-1.76,2.32-4.33,6.83c-2.57,4.49-5.49,11.49-7.18,20.62
						c-1.8,9.11-2.36,20.2-2.65,32.54c-0.33,12.34-0.4,25.9-0.06,40.14c0.7,28.48,2.98,54.2,5.14,72.74
						c1.13,9.01,2.06,16.42,2.75,21.95c0.3,2.38,0.55,4.35,0.76,5.97c0.15,1.37,0.19,2.1,0.11,2.11c-0.08,0.01-0.27-0.69-0.56-2.03
						c-0.32-1.61-0.7-3.56-1.17-5.91c-0.94-5.15-2.18-12.62-3.46-21.89c-2.57-18.53-5.11-44.31-5.81-72.89
						c-0.35-14.28-0.21-27.89,0.23-40.26c0.4-12.35,1.13-23.57,3.16-32.79c1.91-9.25,5.14-16.32,7.98-20.75
						c1.42-2.22,2.66-3.86,3.59-4.88C994.11,755.17,994.62,754.66,994.68,754.71z"/>
				</g>
			</g>
			<g>
				<g>
					<path class="st0" d="M2224.61,1025.53c0.26-0.11,2.34,3.97,5.09,10.84c2.75,6.86,6.08,16.55,8.87,27.51
						c2.77,10.96,4.46,21.07,5.31,28.41c0.85,7.35,0.97,11.93,0.69,11.96c-0.33,0.03-1.01-4.48-2.26-11.73
						c-1.24-7.25-3.17-17.22-5.91-28.09c-2.76-10.86-5.82-20.54-8.18-27.51C2225.86,1029.95,2224.3,1025.66,2224.61,1025.53z"/>
				</g>
			</g>
			<g>
				<g>
					<path class="st4" d="M2121.81,1518.04c0,0-0.69,0.57-2.11,1.6c-1.49,1.06-3.59,2.56-6.32,4.5c-2.81,1.98-6.26,4.4-10.32,7.26
						c-2.05,1.43-4.25,2.97-6.6,4.61c-2.41,1.56-4.98,3.23-7.69,4.99c-21.51,14.44-53.71,33.82-95.24,54.4
						c-10.41,5.09-21.46,10.12-32.96,15.39c-5.82,2.47-11.76,4.98-17.82,7.55c-3.03,1.28-6.09,2.57-9.17,3.87
						c-3.13,1.2-6.28,2.41-9.46,3.63c-6.36,2.44-12.83,4.91-19.41,7.43c-6.66,2.3-13.42,4.63-20.28,7
						c-6.83,2.46-13.88,4.6-21.02,6.78c-7.16,2.12-14.32,4.59-21.74,6.49c-29.46,8.45-60.92,15.4-93.78,21.09
						c-32.87,5.63-67.24,9.69-102.6,11.04c-35.35,1.47-69.99,0.39-103.16-3.24c-4.15-0.41-8.28-0.81-12.4-1.21
						c-4.11-0.42-8.17-1.11-12.23-1.65c-8.11-1.15-16.14-2.29-24.08-3.42c-7.89-1.46-15.7-2.91-23.41-4.34
						c-3.86-0.73-7.69-1.45-11.5-2.16c-3.78-0.86-7.54-1.72-11.28-2.57c-59.85-13.36-112.27-31.47-154.61-50.3
						c-42.41-18.73-75.09-37.42-96.65-51.77c-11.06-6.77-18.96-13.04-24.55-16.94c-2.71-1.98-4.79-3.49-6.27-4.57
						c-1.4-1.04-2.09-1.62-2.09-1.62s0.78,0.46,2.22,1.43c1.51,1.03,3.63,2.49,6.39,4.39c5.67,3.77,13.64,9.92,24.76,16.57
						c21.67,14.11,54.41,32.55,96.82,51.06c42.34,18.61,94.7,36.52,154.43,49.74c3.73,0.84,7.48,1.69,11.25,2.55
						c3.8,0.71,7.63,1.42,11.48,2.14c7.7,1.42,15.49,2.85,23.36,4.29c7.92,1.11,15.93,2.24,24.02,3.38c4.05,0.53,8.1,1.22,12.2,1.63
						c4.1,0.4,8.22,0.79,12.36,1.19c33.08,3.59,67.61,4.64,102.84,3.18c35.24-1.35,69.54-5.38,102.33-10.97
						c32.78-5.65,64.17-12.54,93.58-20.91c7.41-1.89,14.56-4.34,21.71-6.44c7.13-2.16,14.17-4.27,20.99-6.71
						c6.85-2.35,13.6-4.66,20.25-6.94c6.57-2.49,13.03-4.95,19.39-7.36c3.18-1.21,6.33-2.41,9.45-3.6c3.08-1.29,6.14-2.57,9.16-3.83
						c6.05-2.54,11.99-5.03,17.81-7.47c11.49-5.21,22.55-10.19,32.96-15.23c41.55-20.36,73.83-39.51,95.46-53.71
						c2.73-1.73,5.31-3.36,7.74-4.9c2.37-1.61,4.59-3.12,6.65-4.52c4.1-2.79,7.59-5.15,10.43-7.08c2.78-1.87,4.92-3.3,6.44-4.32
						C2121.03,1518.49,2121.81,1518.04,2121.81,1518.04z"/>
				</g>
			</g>
			<g>
				<polygon class="st5" points="1936.75,1564.03 2023.11,1784.85 2082.13,1784.85 2094.99,1765.63 2110.12,1784.85 
					2130.99,1784.85 2138.74,1434.89 				"/>
			</g>
			<g>
				<path class="st5" d="M1394.31,1595.12l72.98,189.74h67.1l13.69-21.98l13.22,21.98h16.67c0,0,7.3-214.06,0-220.14
					C1570.66,1558.63,1394.31,1595.12,1394.31,1595.12z"/>
			</g>
			<g>
				<g>
					<path class="st0" d="M2246.9,1171.06c0.04,0,0.03,0.43-0.02,1.26c-0.07,0.96-0.17,2.17-0.29,3.69
						c-0.32,3.4-0.76,8.14-1.33,14.16c-0.31,3.09-0.65,6.51-1.02,10.24c-0.48,3.73-1.24,7.74-1.94,12.08
						c-1.53,8.64-2.79,18.59-5.59,29.29c-1.26,5.39-2.58,11.02-3.96,16.9c-1.42,5.86-3.46,11.81-5.26,18.06
						c-3.42,12.56-8.5,25.5-13.55,39.23c-10.99,27.09-25.1,56.09-42.94,84.76c-18.15,28.49-38.2,53.76-57.89,75.38
						c-10.2,10.48-19.67,20.66-29.52,29.17c-4.85,4.33-9.34,8.74-14.01,12.55c-4.7,3.78-9.21,7.41-13.52,10.88
						c-8.44,7.15-16.87,12.58-24,17.7c-3.61,2.5-6.9,4.92-10.05,6.97c-3.2,1.94-6.14,3.73-8.79,5.34c-5.19,3.11-9.27,5.56-12.2,7.32
						c-1.32,0.76-2.37,1.37-3.2,1.85c-0.73,0.41-1.11,0.6-1.13,0.57c-0.02-0.03,0.32-0.29,1.01-0.76c0.8-0.53,1.81-1.2,3.08-2.04
						c2.87-1.84,6.87-4.41,11.96-7.67c2.62-1.66,5.51-3.49,8.67-5.49c3.11-2.09,6.36-4.56,9.93-7.1c7.04-5.2,15.38-10.7,23.73-17.91
						c4.27-3.49,8.73-7.14,13.39-10.95c4.63-3.84,9.07-8.26,13.88-12.6c9.76-8.54,19.15-18.73,29.26-29.21
						c19.52-21.61,39.43-46.8,57.51-75.17c17.76-28.56,31.87-57.39,42.91-84.33c5.08-13.65,10.21-26.52,13.69-39.01
						c1.84-6.21,3.91-12.13,5.37-17.96c1.42-5.84,2.78-11.45,4.09-16.8c2.89-10.65,4.25-20.54,5.89-29.14
						c0.75-4.31,1.57-8.31,2.11-12.02c0.44-3.71,0.84-7.11,1.21-10.19c0.74-6,1.33-10.72,1.75-14.1c0.21-1.51,0.38-2.71,0.51-3.66
						C2246.78,1171.48,2246.87,1171.06,2246.9,1171.06z"/>
				</g>
			</g>
			<g>
				<g class="st7">
					<g>
						<path class="st0" d="M2153.5,984.79c-19.61-48.57-62.33-94.39-111.82-114.48c-40.23-16.32-84.92,12.44-87.23,55.79
							c-0.02,0.31-0.03,0.62-0.05,0.93c-1.54,31.11,10.68,61.29,25.63,88.62c14.95,27.33,32.92,53.16,44.56,82.05
							c19.17,47.57,19.81,102.35,1.73,150.35c-11.52,30.59-30.62,63.16-13.33,93.66c11.34,20.01,34.15,29.85,57.06,27.77
							c43.87-3.98,66.65-43.59,87.43-79.58c16.72-28.96,30.49-73.99,31.29-107.97C2190.45,1111.64,2179.81,1049.98,2153.5,984.79z"
							/>
					</g>
				</g>
				<g class="st7">
					<g>
						<path class="st0" d="M1989.18,859.53c1.11,0,2.19,0.13,3.3,0.16c0.08-0.02,0.15-0.06,0.22-0.08L1989.18,859.53z"/>
					</g>
				</g>
			</g>
		</g>
		<g>
			<path class="st4" d="M1108.83,1090.16c0,17.06-13.83,30.88-30.88,30.88c-17.06,0-30.88-13.83-30.88-30.88
				c0-17.06,13.83-30.88,30.88-30.88C1095,1059.28,1108.83,1073.11,1108.83,1090.16z"/>
		</g>
		<g>
			<path class="st4" d="M1426.14,1098.18c0,17.06-13.83,30.88-30.88,30.88c-17.06,0-30.88-13.83-30.88-30.88
				c0-17.06,13.83-30.88,30.88-30.88C1412.32,1067.3,1426.14,1081.12,1426.14,1098.18z"/>
		</g>
		<g>
			<g>
				<path class="st0" d="M2143.37,837.4c-0.06,0.05-0.79-0.75-2.13-2.32c-1.46-1.75-3.37-4.05-5.76-6.93
					c-2.46-3.04-5.5-6.73-9.18-10.89c-3.66-4.18-7.69-9.05-12.49-14.13c-4.71-5.17-9.88-10.81-15.69-16.62
					c-5.66-5.96-12.05-11.98-18.7-18.39c-13.52-12.59-28.86-25.91-45.69-38.98c-16.92-12.98-33.7-24.44-49.3-34.33
					c-7.89-4.8-15.33-9.47-22.53-13.43c-7.09-4.15-13.86-7.72-20.05-10.97c-6.13-3.36-11.87-6.02-16.84-8.5
					c-4.96-2.51-9.3-4.51-12.86-6.12c-3.38-1.58-6.09-2.85-8.16-3.82c-1.86-0.9-2.82-1.4-2.79-1.47c0.03-0.07,1.05,0.29,2.96,1.06
					c2.11,0.87,4.88,2.01,8.34,3.44c3.62,1.49,8.03,3.38,13.04,5.79c5.03,2.38,10.83,4.95,17.02,8.23
					c6.25,3.16,13.08,6.67,20.24,10.76c7.26,3.9,14.76,8.52,22.71,13.3c15.72,9.82,32.59,21.28,49.58,34.31
					c16.9,13.12,32.26,26.54,45.74,39.25c6.63,6.47,13,12.56,18.61,18.59c5.77,5.88,10.89,11.6,15.53,16.85
					c4.74,5.16,8.69,10.12,12.27,14.38c3.6,4.24,6.55,8.02,8.9,11.15c2.26,2.98,4.06,5.37,5.44,7.19
					C2142.82,836.46,2143.43,837.35,2143.37,837.4z"/>
			</g>
		</g>
	</g>
</g>
<g>
	<g>
		<g>
			<g>
				<g>
					<g>
						<g>
							<g>
								<g>
									<g>
										<g>
											<g>
												<g>
													<path class="st8" d="M2139.52,425.84l1.72-141.12c1.57-35.09-17.54-65.26-52.66-65.85l-3.25,0.13
														c-32.7,1.35-58.89,27.57-60.17,60.27c-1.19,30.42-2.12,64.05-1.25,80.31c1.81,33.66,35.71,37.51,35.71,37.51
														c0.08,0,0.21,20.49,0.19,30.38l27.11,37.61l0,2.01L2139.52,425.84z"/>
												</g>
											</g>
										</g>
									</g>
								</g>
							</g>
						</g>
					</g>
				</g>
			</g>
			<g>
				<g>
					<g>
						<g>
							<g>
								<g>
									<g>
										<g>
											<g>
												<g>
													<g>
														<path class="st9" d="M2059.62,397.09c0,0,21.28,0.37,43.31-14.77c0,0-9.5,25.75-43.23,24.11L2059.62,397.09z"/>
													</g>
												</g>
											</g>
										</g>
									</g>
								</g>
							</g>
						</g>
					</g>
				</g>
			</g>
			<g>
				<g>
					<g>
						<g>
							<g>
								<g>
									<g>
										<g>
											<g>
												<g>
													<g>
														<g>
															<g>
																<g>
																	<g>
																		<g>
																			<g>
																				<path class="st4" d="M2035.89,308.32c0.01,2.54,2.18,4.63,4.84,4.66c2.65,0.03,4.79-2,4.78-4.54
																					c-0.01-2.54-2.18-4.63-4.83-4.66C2038.01,303.75,2035.87,305.78,2035.89,308.32z"/>
																			</g>
																		</g>
																	</g>
																</g>
															</g>
														</g>
													</g>
												</g>
											</g>
										</g>
									</g>
								</g>
							</g>
						</g>
					</g>
				</g>
			</g>
			<g>
				<g>
					<g>
						<g>
							<g>
								<g>
									<g>
										<g>
											<g>
												<g>
													<g>
														<g>
															<g>
																<g>
																	<g>
																		<g>
																			<g>
																				<g>
																					<path class="st4" d="M2032.94,293.85c0.62,0.6,4.15-2.24,9.33-2.44c5.17-0.27,9.08,2.23,9.61,1.57
																						c0.26-0.29-0.39-1.4-2.09-2.54c-1.68-1.13-4.5-2.18-7.73-2.04c-3.22,0.15-5.89,1.45-7.39,2.73
																						C2033.12,292.42,2032.63,293.58,2032.94,293.85z"/>
																				</g>
																			</g>
																		</g>
																	</g>
																</g>
															</g>
														</g>
													</g>
												</g>
											</g>
										</g>
									</g>
								</g>
							</g>
						</g>
					</g>
				</g>
			</g>
			<g>
				<g>
					<g>
						<g>
							<g>
								<g>
									<g>
										<g>
											<g>
												<g>
													<g>
														<g>
															<g>
																<g>
																	<g>
																		<g>
																			<g>
																				<path class="st4" d="M2082.11,308.32c0.02,2.54,2.18,4.63,4.84,4.66c2.65,0.03,4.79-2,4.78-4.54
																					c-0.02-2.54-2.18-4.63-4.83-4.66C2084.24,303.75,2082.09,305.78,2082.11,308.32z"/>
																			</g>
																		</g>
																	</g>
																</g>
															</g>
														</g>
													</g>
												</g>
											</g>
										</g>
									</g>
								</g>
							</g>
						</g>
					</g>
				</g>
			</g>
			<g>
				<g>
					<g>
						<g>
							<g>
								<g>
									<g>
										<g>
											<g>
												<g>
													<g>
														<g>
															<g>
																<g>
																	<g>
																		<g>
																			<g>
																				<g>
																					<path class="st4" d="M2083.72,292.95c0.62,0.6,4.16-2.24,9.33-2.44c5.17-0.27,9.07,2.23,9.61,1.57
																						c0.26-0.29-0.38-1.4-2.09-2.53c-1.68-1.13-4.5-2.18-7.72-2.04c-3.22,0.15-5.89,1.45-7.4,2.73
																						C2083.91,291.53,2083.41,292.68,2083.72,292.95z"/>
																				</g>
																			</g>
																		</g>
																	</g>
																</g>
															</g>
														</g>
													</g>
												</g>
											</g>
										</g>
									</g>
								</g>
							</g>
						</g>
					</g>
				</g>
			</g>
			<g>
				<g>
					<g>
						<g>
							<g>
								<g>
									<g>
										<g>
											<g>
												<g>
													<g>
														<g>
															<g>
																<g>
																	<g>
																		<g>
																			<g>
																				<path class="st4" d="M2066.79,333.48c0.01-0.29-3.23-0.72-8.47-1.17c-1.33-0.08-2.59-0.29-2.85-1.19
																					c-0.35-0.94,0.14-2.39,0.72-3.95c1.11-3.25,2.27-6.66,3.49-10.22c4.84-14.55,8.28-26.49,7.69-26.68
																					c-0.59-0.19-4.98,11.45-9.82,26c-1.16,3.59-2.27,7.01-3.33,10.28c-0.44,1.52-1.23,3.26-0.47,5.22
																					c0.4,0.97,1.4,1.65,2.25,1.84c0.86,0.22,1.6,0.21,2.26,0.22C2063.53,333.89,2066.79,333.78,2066.79,333.48z"/>
																			</g>
																		</g>
																	</g>
																</g>
															</g>
														</g>
													</g>
												</g>
											</g>
										</g>
									</g>
								</g>
							</g>
						</g>
					</g>
				</g>
			</g>
			<g>
				<g>
					<g>
						<g>
							<g>
								<g>
									<g>
										<g>
											<g>
												<g>
													<g>
														<g>
															<g>
																<path class="st4" d="M2081.37,276.83c0.76,1.29,5.72-0.3,11.83-0.69c6.1-0.51,11.24,0.35,11.81-1.04
																	c0.24-0.66-0.84-1.81-3.03-2.79c-2.18-0.98-5.49-1.68-9.16-1.42c-3.66,0.27-6.84,1.45-8.85,2.73
																	C2081.94,274.92,2081.03,276.22,2081.37,276.83z"/>
															</g>
														</g>
													</g>
												</g>
											</g>
										</g>
									</g>
								</g>
							</g>
						</g>
					</g>
				</g>
			</g>
			<g>
				<g>
					<g>
						<g>
							<g>
								<g>
									<g>
										<g>
											<g>
												<g>
													<g>
														<g>
															<g>
																<path class="st4" d="M2032.07,278.64c1.11,1.15,5.29-0.18,10.36-0.38c5.06-0.34,9.38,0.54,10.34-0.71
																	c0.42-0.61-0.29-1.77-2.19-2.83c-1.88-1.06-4.99-1.89-8.47-1.7c-3.48,0.18-6.47,1.33-8.2,2.58
																	C2032.14,276.85,2031.58,278.08,2032.07,278.64z"/>
															</g>
														</g>
													</g>
												</g>
											</g>
										</g>
									</g>
								</g>
							</g>
						</g>
					</g>
				</g>
			</g>
			<g>
				<g>
					<g>
						<g>
							<g>
								<g>
									<g>
										<g>
											<g>
												<path class="st8" d="M2139.52,309.77c0.56-0.27,22.86-7.8,23.07,15.25c0.22,23.05-22.97,18.52-23.02,17.85
													C2139.53,342.22,2139.52,309.77,2139.52,309.77z"/>
											</g>
										</g>
									</g>
								</g>
							</g>
						</g>
					</g>
				</g>
			</g>
			<g>
				<g>
					<g>
						<g>
							<g>
								<g>
									<g>
										<g>
											<g>
												<g>
													<path class="st9" d="M2146.53,334.08c0.1-0.07,0.4,0.28,1.09,0.58c0.66,0.3,1.81,0.49,3,0.03
														c2.43-0.92,4.44-4.8,4.51-8.96c0.04-2.1-0.42-4.09-1.18-5.74c-0.72-1.68-1.82-2.85-3.05-3.06
														c-1.22-0.27-2.08,0.47-2.36,1.12c-0.3,0.65-0.15,1.11-0.27,1.15c-0.06,0.06-0.5-0.38-0.32-1.34
														c0.09-0.46,0.36-1.01,0.89-1.45c0.55-0.46,1.36-0.69,2.21-0.61c1.78,0.11,3.4,1.73,4.23,3.54
														c0.93,1.82,1.5,4.06,1.45,6.41c-0.1,4.65-2.44,9.02-5.77,10.01c-1.62,0.44-2.98-0.04-3.68-0.58
														C2146.58,334.63,2146.45,334.12,2146.53,334.08z"/>
												</g>
											</g>
										</g>
									</g>
								</g>
							</g>
						</g>
					</g>
				</g>
			</g>
			<g>
				<g>
					<g>
						<g>
							<g>
								<g>
									<g>
										<g>
											<g>
												<g>
													<g>
														<path class="st4" d="M2083.05,336.69c-0.79-0.05-0.83,5.24-5.38,8.98c-4.54,3.75-10.18,3.13-10.23,3.87
															c-0.08,0.33,1.25,1.03,3.63,1.11c2.34,0.09,5.75-0.64,8.53-2.93c2.77-2.29,3.98-5.36,4.17-7.53
															C2084,337.97,2083.41,336.66,2083.05,336.69z"/>
													</g>
												</g>
											</g>
										</g>
									</g>
								</g>
							</g>
						</g>
					</g>
				</g>
			</g>
		</g>
		<g>
			<g>
				<g>
					<g>
						<g>
							<g>
								<g>
									<g>
										<path class="st4" d="M1978.63,248.94c0.35-1.36,1.33-2.49,2.53-3.22c2.62-1.59,5.67-1.42,8.61-1.5
											c7.31-0.2,14.55-2.15,21.03-5.54c-2.29-1.13-4.43-2.5-6.25-4.28c-3.77-3.67-5.98-9.34-4.33-14.34
											c0.31-0.94,0.84-1.92,1.78-2.23c1.49-0.48,2.82,0.98,3.88,2.13c3.48,3.8,6.67,5.41,11.78,4.83
											c3.18-0.36,6.25-1.11,8.74-2.69c0.1-0.1,0.19-0.22,0.29-0.32c1.18-1.25,2.34-2.45,3.48-3.6c0,0,0.01-0.01,0.01-0.01
											l0,0.01c8.58-8.7,15.97-14.75,23.61-17.92c11.2-4.66,30.01-6.71,41.78-3.76c11.77,2.95,22.42,12.35,24.19,24.35
											c6.52-5.64,16.4-5.7,24.45-2.57l0.2-0.09c8.96,3.08,14.14,12.45,16.88,21.53c0.15,0.5,0.28,1,0.42,1.5
											c3.07,4.75,7.22,8.8,12.15,11.6c0.87,0.49,1.86,1.1,1.98,2.09c0.12,0.98-0.71,1.81-1.5,2.39
											c-2.12,1.56-4.6,2.59-7.19,3.08c0.84,2.15,1.82,4.25,3.03,6.24c1.03,1.7,2.25,3.73,1.39,5.51
											c-0.67,1.38-2.4,1.97-3.92,1.76c-1.52-0.21-2.87-1.03-4.18-1.83c1.02,2.37,2.05,4.75,3.07,7.12
											c-3.22,0.6-6.57,0.38-9.72-0.54c-1.8,8.54-3.05,24.32-5.17,30.11c-6.12,0.18-7.61-0.47-10.69,0.59
											c-3.98,1.37-2.37,8.42-7.59,6.47c-2.66-0.99-6.83-10.97-7.75-13.65c-6.08-17.81-8.24-36.94-6.33-55.66
											c-3.74-3.9-8.24-7.07-13.17-9.28l0.4,0.36c-9.46-3.17-20.16-6.27-29.06-1.74c-6.9,3.51-10.89,10.76-16.02,16.56
											c-9.71,11-20.77,16.94-35.42,17.73c-1.21,10.19-1.41,26.84-1.8,36.34l-8.33-18.92l-0.01,0.08
											c-0.67-1.11-1.22-2.22-1.76-3.34l-0.18-0.34v-0.04c-0.85-1.8-1.66-3.6-2.73-5.37c-0.03,0.03-0.06,0.05-0.09,0.08
											c-5.09,4.6-12.76-2.26-8.76-7.84c0.79-1.11,1.74-2.1,2.84-2.92c-2.33,2.24-5.82,3.33-8.92,2.42
											c-3.1-0.91-5.52-4.01-5.29-7.22c0.16-2.2,1.7-4.18,3.68-5.07c-4.15,0.37-8.41-0.49-12.06-2.52
											C1980.21,254.14,1977.86,251.94,1978.63,248.94z"/>
									</g>
								</g>
							</g>
						</g>
					</g>
				</g>
			</g>
			<g>
				<g>
					<g>
						<g>
							<g>
								<g>
									<g>
										<path class="st10" d="M2109.17,224.84c-0.07,0.09,1.42,0.88,3.42,3.06c1.98,2.17,4.21,5.96,5.31,11.14
											c0.56,2.57,0.93,5.46,0.96,8.56c0.05,3.11-0.16,6.44-0.36,9.95c-0.19,3.51-0.4,7.22-0.13,11.07
											c0.14,1.92,0.39,3.88,0.83,5.83c0.45,1.92,0.97,4,2.45,5.63c1.17,1.33,3.11,1.91,4.78,1.55c1.68-0.32,3.17-1.23,4.26-2.47
											c2.14-2.56,2.65-5.78,3.15-8.62l-0.71,0.09c1.19,2.53,2.4,5.03,4.19,7.02c1.75,2,4.17,3.31,6.6,3.5
											c1.21,0.1,2.43-0.11,3.47-0.65c1.06-0.53,1.82-1.42,2.34-2.36c0.49-0.95,0.75-2,0.68-3c-0.07-1-0.47-1.95-1.11-2.61
											l-0.35,0.32c2.64,2.93,5.4,4.49,7.31,5.36c0.96,0.43,1.73,0.69,2.26,0.85c0.53,0.15,0.8,0.21,0.81,0.19
											c0.01-0.02-0.26-0.13-0.76-0.32c-0.51-0.2-1.25-0.49-2.19-0.96c-1.85-0.92-4.53-2.53-7.06-5.44l-0.35,0.32
											c1.15,1.19,1.24,3.3,0.28,5.01c-0.48,0.84-1.18,1.64-2.11,2.08c-0.92,0.47-2.04,0.65-3.15,0.55
											c-2.24-0.2-4.49-1.43-6.13-3.33c-1.68-1.9-2.86-4.34-4.03-6.87l-0.5-1.08l-0.21,1.17c-0.51,2.83-1.05,5.93-3,8.23
											c-0.97,1.11-2.34,1.94-3.81,2.21c-1.48,0.3-3.04-0.17-4.06-1.31c-1.28-1.42-1.82-3.38-2.26-5.27
											c-0.43-1.9-0.68-3.82-0.82-5.71c-0.27-3.79-0.08-7.47,0.08-10.97c0.18-3.51,0.37-6.85,0.29-10
											c-0.06-3.15-0.47-6.07-1.07-8.68c-1.18-5.25-3.54-9.08-5.62-11.23C2110.71,225.53,2109.17,224.84,2109.17,224.84z"/>
									</g>
								</g>
							</g>
						</g>
					</g>
				</g>
			</g>
			<g>
				<g>
					<g>
						<g>
							<g>
								<g>
									<g>
										<path class="st10" d="M2005.17,258.85c-0.01,0.01,0.08,0.09,0.27,0.23c0.23,0.16,0.51,0.36,0.85,0.6
											c0.37,0.27,0.84,0.59,1.44,0.9c0.59,0.33,1.26,0.73,2.06,1.06c3.15,1.45,8.19,2.88,14.47,2.43
											c6.22-0.42,13.66-2.71,20.28-7.75c6.69-4.92,12.52-12.13,17.26-20.36c2.41-4.11,4.36-8.32,6.52-12.22
											c2.15-3.9,4.52-7.5,7.42-10.36c2.86-2.87,6.2-5.01,9.65-6.01c1.72-0.53,3.46-0.67,5.12-0.65c1.67,0.07,3.25,0.39,4.7,0.85
											c2.92,0.94,5.28,2.52,7.08,4.16c1.81,1.65,3.02,3.39,3.86,4.9c1.57,3.08,1.68,5.07,1.8,5.04c0.01,0,0-0.12-0.03-0.35
											c-0.05-0.28-0.1-0.62-0.17-1.03c-0.18-0.9-0.58-2.21-1.32-3.8c-0.81-1.55-2.02-3.36-3.84-5.08
											c-1.81-1.7-4.21-3.36-7.21-4.36c-1.5-0.49-3.13-0.84-4.85-0.93c-1.72-0.04-3.54,0.09-5.33,0.63
											c-3.59,1.01-7.04,3.2-9.98,6.12c-2.98,2.91-5.42,6.58-7.59,10.5c-2.19,3.92-4.14,8.12-6.53,12.2
											c-4.71,8.17-10.46,15.3-17.02,20.17c-6.49,5-13.76,7.29-19.88,7.78c-6.17,0.51-11.15-0.81-14.31-2.16
											C2006.74,259.99,2005.23,258.76,2005.17,258.85z"/>
									</g>
								</g>
							</g>
						</g>
					</g>
				</g>
			</g>
			<g>
				<g>
					<g>
						<g>
							<g>
								<g>
									<g>
										<path class="st10" d="M2001.93,244.06c-0.03,0.05,0.41,0.34,1.22,0.83c0.8,0.5,2.04,1.12,3.6,1.78
											c1.56,0.67,3.5,1.29,5.69,1.8c2.2,0.47,4.66,0.81,7.27,0.88c2.6,0.04,5.08-0.2,7.3-0.58c2.21-0.42,4.17-0.96,5.76-1.56
											c1.59-0.59,2.85-1.16,3.67-1.63c0.83-0.46,1.28-0.73,1.25-0.78c-0.07-0.13-1.92,0.85-5.11,1.88
											c-1.59,0.53-3.53,1-5.71,1.37c-2.18,0.33-4.61,0.55-7.16,0.51c-2.55-0.07-4.96-0.38-7.13-0.8
											c-2.16-0.46-4.08-1.02-5.64-1.61C2003.81,244.99,2002,243.93,2001.93,244.06z"/>
									</g>
								</g>
							</g>
						</g>
					</g>
				</g>
			</g>
		</g>
	</g>
	<g>
		<path class="st6" d="M2022.29,1773.82c-0.26-7.26-0.51-212.54-0.77-219.8c-0.7-19.76-1.4-39.52-2.09-59.28
			c-1.03-29.1-2.05-58.2-3.08-87.3c-1.25-35.49-2.5-70.97-3.76-106.46c-0.9-25.64-1.81-51.27-2.71-76.91
			c8.29-0.21,8.25-13.18-0.19-13.18c-0.09,0-0.18,0-0.27,0c-0.32-8.99-0.63-17.97-0.95-26.96c-1.39-39.39-2.78-78.77-4.17-118.16
			c-1.29-36.59-2.58-73.18-3.87-109.78c-1.09-31.04-2.19-62.08-3.29-93.12c-0.79-22.31-1.57-44.61-2.36-66.92
			c-0.37-10.52-0.58-21.06-1.11-31.57c-0.02-0.45-0.03-0.91-0.05-1.36c-0.3-8.47-13.5-8.51-13.2,0c0.26,7.26,0.51,14.52,0.77,21.79
			c0.7,19.76,1.39,39.52,2.09,59.28c1.03,29.1,2.05,58.2,3.08,87.3c0.76,21.45,1.51,42.9,2.27,64.34c-56.44,0-112.88,0-169.32,0
			c-14.49,0-28.99,0-43.48,0c-0.09-2.93-0.19-5.86-0.28-8.79c-1.09-33.72-2.18-67.45-3.27-101.17c-0.79-24.42-1.58-48.83-2.37-73.25
			c-0.37-11.49-0.58-22.99-1.11-34.48c-0.02-0.5-0.03-1-0.05-1.51c-0.27-8.47-13.48-8.51-13.2,0c0.26,7.96,0.51,15.91,0.77,23.87
			c0.69,21.46,1.39,42.92,2.08,64.39c1.03,31.95,2.06,63.89,3.1,95.84c1.25,38.71,2.5,77.42,3.75,116.12
			c1.38,42.68,2.76,85.37,4.14,128.05c1.38,42.8,2.77,85.59,4.15,128.38c1.3,40.18,2.6,80.35,3.89,120.53
			c1.09,33.72,2.18,67.45,3.27,101.17c0.79,24.42,1.58,48.83,2.37,73.25c0.37,11.49,0.6,25.9,1.13,37.39l13.19-2.81
			c-0.26-7.96-0.47-14.51-0.73-22.47c-0.69-21.46-1.39-42.92-2.08-64.39c-1.03-31.95-2.06-63.89-3.1-95.84
			c-0.32-9.77-0.63-19.54-0.95-29.31c56.68,0,113.35,0,170.03,0c14.71,0,29.41,0,44.12,0c0.3,8.41,0.59,16.82,0.89,25.23
			c0.79,22.31,1.57,44.61,2.36,66.92c0.37,10.52,1.14,198.49,1.11,198.03L2022.29,1773.82z M1782.78,1211.01
			c-1.11-34.51-2.23-69.02-3.35-103.53c-1.06-32.84-2.12-65.69-3.18-98.54c56.34,0,112.68,0,169.03,0c14.6,0,29.21,0,43.81,0
			c0.34,9.64,0.68,19.28,1.02,28.92c1.38,39.02,2.75,78.03,4.13,117.05c0.66,18.66,1.32,37.32,1.98,55.98
			c-54.12,0-108.24,0-162.36,0c-16.62,0-33.24,0-49.87,0C1783.55,1210.89,1783.16,1210.95,1782.78,1211.01z M1838.98,1437.53
			c-16.29,0-32.59,0-48.88,0c-0.79-24.54-1.59-49.08-2.38-73.61c-1.38-42.68-2.76-85.37-4.14-128.05c-0.13-3.95-0.26-7.9-0.38-11.85
			c0.26,0.03,0.5,0.08,0.78,0.08c58.61,0,117.23,0,175.84,0c12.28,0,24.57,0,36.85,0c0.58,16.33,1.15,32.65,1.73,48.98
			c1.29,36.59,2.58,73.18,3.87,109.77c0.64,18.23,1.29,36.46,1.93,54.69C1949.13,1437.53,1894.05,1437.53,1838.98,1437.53z"/>
		<g>
			<path class="st4" d="M1751.85,753.69c0.02,3.82,1.05,7.9,1.67,11.68c1.2,7.24,2.47,14.46,3.75,21.68
				c4.55,25.7,9.26,51.36,13.97,77.03c6.83,37.21,13.72,74.41,20.64,111.6c8.37,45.04,16.77,90.08,25.19,135.11
				c9.22,49.29,18.45,98.58,27.7,147.87c9.28,49.45,18.57,98.9,27.88,148.35c8.66,46.02,17.32,92.04,26,138.05
				c7.32,38.84,14.64,77.67,21.97,116.51c5.27,27.9,10.53,55.81,15.8,83.71c2.49,13.2,4.65,26.53,7.49,39.66
				c0.12,0.57,0.22,1.14,0.32,1.71c1.03,5.46,7.61,8.57,12.66,7.19c5.72-1.57,8.22-7.18,7.19-12.66c-1.71-9.05-3.42-18.1-5.13-27.16
				c-4.66-24.65-9.31-49.31-13.97-73.96c-6.89-36.5-13.78-73.01-20.66-109.52c-8.41-44.61-16.81-89.21-25.21-133.82
				c-9.21-48.95-18.42-97.91-27.61-146.87c-9.31-49.55-18.6-99.1-27.87-148.66c-8.66-46.25-17.3-92.5-25.91-138.76
				c-7.36-39.52-14.7-79.04-21.98-118.58c-5.31-28.8-10.6-57.6-15.78-86.42c-2.61-14.53-5.24-29.06-7.55-43.64
				c-0.44-2.78,0.32,3.14,0.11,0.83c-0.03-0.32-0.08-0.63-0.08-0.95C1772.35,740.46,1751.77,740.43,1751.85,753.69L1751.85,753.69z"
				/>
		</g>
		<g>
			<path class="st4" d="M1981,753.69c0.02,3.82,1.05,7.9,1.67,11.68c1.2,7.24,2.47,14.46,3.75,21.68
				c4.55,25.7,9.26,51.36,13.97,77.03c6.83,37.21,13.72,74.41,20.64,111.6c8.37,45.04,16.77,90.08,25.19,135.11
				c9.22,49.29,18.45,98.58,27.7,147.87c9.28,49.45,18.57,98.9,27.88,148.35c8.66,46.02,17.32,92.04,26,138.05
				c7.32,38.84,14.64,77.67,21.97,116.51c5.27,27.9,10.53,55.81,15.8,83.71c2.49,13.2,4.65,26.53,7.49,39.66
				c0.12,0.57,0.22,1.14,0.32,1.71c1.03,5.46,7.61,8.57,12.66,7.19c5.72-1.57,8.22-7.18,7.19-12.66c-1.71-9.05-3.42-18.1-5.13-27.16
				c-4.66-24.65-9.31-49.31-13.97-73.96c-6.89-36.5-13.78-73.01-20.66-109.52c-8.41-44.61-16.81-89.21-25.21-133.82
				c-9.21-48.95-18.42-97.91-27.61-146.87c-9.31-49.55-18.6-99.1-27.87-148.66c-8.66-46.25-17.3-92.5-25.91-138.76
				c-7.36-39.52-14.7-79.04-21.98-118.58c-5.31-28.8-10.6-57.6-15.78-86.42c-2.61-14.53-5.24-29.06-7.55-43.64
				c-0.44-2.78,0.32,3.14,0.11,0.83c-0.03-0.32-0.08-0.63-0.08-0.95C2001.49,740.46,1980.92,740.43,1981,753.69L1981,753.69z"/>
		</g>
		<g>
			<path class="st4" d="M1807.45,979.95c70.81,0,141.62,0,212.43,0c13.24,0,13.26-20.58,0-20.58c-70.81,0-141.62,0-212.43,0
				C1794.21,959.38,1794.19,979.95,1807.45,979.95L1807.45,979.95z"/>
		</g>
		<g>
			<path class="st4" d="M1847.94,1207.55c70.81,0,141.62,0,212.43,0c13.24,0,13.26-20.58,0-20.58c-70.81,0-141.62,0-212.43,0
				C1834.71,1186.97,1834.68,1207.55,1847.94,1207.55L1847.94,1207.55z"/>
		</g>
		<g>
			<path class="st4" d="M1931.06,1631.93c70.81,0,141.62,0,212.43,0c13.24,0,13.26-20.58,0-20.58c-70.81,0-141.62,0-212.43,0
				C1917.82,1611.36,1917.8,1631.93,1931.06,1631.93L1931.06,1631.93z"/>
		</g>
		<g>
			<path class="st4" d="M1893.23,1430.69c70.81,0,141.62,0,212.43,0c13.24,0,13.26-20.58,0-20.58c-70.81,0-141.62,0-212.43,0
				C1879.99,1410.11,1879.97,1430.69,1893.23,1430.69L1893.23,1430.69z"/>
		</g>
	</g>
	<g>
		<g>
			<g>
				<g>
					<g>
						<g>
							<g>
								<g>
									<g>
										<g>
											<g>
												<g>
													<g>
														<g>
															<g>
																<path class="st4" d="M2068.03,1296.25l5.1,74.78c0,0-74.29,30.3-74.69,44.21l145.34-4.69l-3.17-116.84
																	L2068.03,1296.25z"/>
															</g>
														</g>
													</g>
												</g>
											</g>
										</g>
									</g>
								</g>
							</g>
						</g>
					</g>
				</g>
				<g class="st11">
					<g>
						<g>
							<g>
								<g>
									<g>
										<g>
											<g>
												<g>
													<g>
														<g>
															<g>
																<path class="st10" d="M2143.78,1410.55l-0.78-11.76l-139.06,8.89c0,0-6.38,3.02-5.5,7.56L2143.78,1410.55z"/>
															</g>
														</g>
													</g>
												</g>
											</g>
										</g>
									</g>
								</g>
							</g>
						</g>
					</g>
				</g>
				<g>
					<g>
						<g>
							<g>
								<g>
									<g>
										<g>
											<g>
												<g>
													<g>
														<g>
															<g>
																<g>
																	<path class="st10" d="M2070.75,1370.37c0.05,0.71,3.61,0.92,7.17,3.09c3.62,2.08,5.52,5.09,6.17,4.79
																		c0.65-0.16-0.54-4.37-4.91-6.92C2074.84,1368.73,2070.58,1369.72,2070.75,1370.37z"/>
																</g>
															</g>
														</g>
													</g>
												</g>
											</g>
										</g>
									</g>
								</g>
							</g>
						</g>
					</g>
				</g>
				<g>
					<g>
						<g>
							<g>
								<g>
									<g>
										<g>
											<g>
												<g>
													<g>
														<g>
															<g>
																<g>
																	<path class="st10" d="M2055.71,1377.16c-0.14,0.69,2.97,1.8,5.48,4.73c2.59,2.85,3.31,6.08,4.01,6.02
																		c0.67,0.09,1.03-4.08-2.16-7.66C2059.89,1376.65,2055.7,1376.49,2055.71,1377.16z"/>
																</g>
															</g>
														</g>
													</g>
												</g>
											</g>
										</g>
									</g>
								</g>
							</g>
						</g>
					</g>
				</g>
				<g>
					<g>
						<g>
							<g>
								<g>
									<g>
										<g>
											<g>
												<g>
													<g>
														<g>
															<g>
																<g>
																	<path class="st10" d="M2047.64,1395.69c0.65,0.13,1.52-3.45-0.43-7.28c-1.92-3.84-5.32-5.27-5.6-4.67
																		c-0.38,0.6,1.84,2.61,3.39,5.78C2046.63,1392.65,2046.93,1395.64,2047.64,1395.69z"/>
																</g>
															</g>
														</g>
													</g>
												</g>
											</g>
										</g>
									</g>
								</g>
							</g>
						</g>
					</g>
				</g>
				<g>
					<g>
						<g>
							<g>
								<g>
									<g>
										<g>
											<g>
												<g>
													<g>
														<g>
															<g>
																<g>
																	<path class="st4" d="M2071.48,1353.2c0.32,0.64,3.54-0.45,7.56-0.3c4.02,0.06,7.19,1.31,7.54,0.69
																		c0.39-0.53-2.74-3.06-7.48-3.16C2074.37,1350.28,2071.11,1352.65,2071.48,1353.2z"/>
																</g>
															</g>
														</g>
													</g>
												</g>
											</g>
										</g>
									</g>
								</g>
							</g>
						</g>
					</g>
				</g>
			</g>
		</g>
	</g>
	<g>
		<g>
			<g>
				<g>
					<g>
						<g>
							<g>
								<g>
									<g>
										<g>
											<g>
												<g>
													<g>
														<g>
															<g>
																<path class="st4" d="M1922.48,1297.35l5.1,74.78c0,0-74.29,30.3-74.69,44.21l145.34-4.69l-3.17-116.84
																	L1922.48,1297.35z"/>
															</g>
														</g>
													</g>
												</g>
											</g>
										</g>
									</g>
								</g>
							</g>
						</g>
					</g>
				</g>
				<g>
					<g>
						<g>
							<g>
								<g>
									<g>
										<g>
											<g>
												<g>
													<g>
														<g>
															<g>
																<path class="st10" d="M1998.23,1411.65l-0.78-11.76l-139.06,8.89c0,0-6.38,3.02-5.5,7.56L1998.23,1411.65z"/>
															</g>
														</g>
													</g>
												</g>
											</g>
										</g>
									</g>
								</g>
							</g>
						</g>
					</g>
				</g>
				<g>
					<g>
						<g>
							<g>
								<g>
									<g>
										<g>
											<g>
												<g>
													<g>
														<g>
															<g>
																<g>
																	<path class="st10" d="M1925.21,1371.46c0.05,0.71,3.61,0.92,7.17,3.08c3.62,2.08,5.52,5.09,6.17,4.79
																		c0.65-0.16-0.55-4.37-4.91-6.92C1929.29,1369.83,1925.03,1370.82,1925.21,1371.46z"/>
																</g>
															</g>
														</g>
													</g>
												</g>
											</g>
										</g>
									</g>
								</g>
							</g>
						</g>
					</g>
				</g>
				<g>
					<g>
						<g>
							<g>
								<g>
									<g>
										<g>
											<g>
												<g>
													<g>
														<g>
															<g>
																<g>
																	<path class="st10" d="M1910.17,1378.26c-0.14,0.69,2.97,1.8,5.48,4.73c2.59,2.85,3.31,6.08,4.01,6.02
																		c0.67,0.09,1.03-4.08-2.16-7.66C1914.34,1377.75,1910.16,1377.58,1910.17,1378.26z"/>
																</g>
															</g>
														</g>
													</g>
												</g>
											</g>
										</g>
									</g>
								</g>
							</g>
						</g>
					</g>
				</g>
				<g>
					<g>
						<g>
							<g>
								<g>
									<g>
										<g>
											<g>
												<g>
													<g>
														<g>
															<g>
																<g>
																	<path class="st10" d="M1902.1,1396.78c0.65,0.13,1.52-3.45-0.43-7.27c-1.92-3.84-5.32-5.27-5.6-4.67
																		c-0.38,0.6,1.84,2.61,3.39,5.78C1901.09,1393.75,1901.39,1396.74,1902.1,1396.78z"/>
																</g>
															</g>
														</g>
													</g>
												</g>
											</g>
										</g>
									</g>
								</g>
							</g>
						</g>
					</g>
				</g>
				<g>
					<g>
						<g>
							<g>
								<g>
									<g>
										<g>
											<g>
												<g>
													<g>
														<g>
															<g>
																<g>
																	<path class="st4" d="M1925.93,1354.29c0.32,0.64,3.54-0.45,7.56-0.3c4.02,0.06,7.19,1.31,7.54,0.69
																		c0.39-0.53-2.74-3.05-7.48-3.16C1928.82,1351.38,1925.57,1353.75,1925.93,1354.29z"/>
																</g>
															</g>
														</g>
													</g>
												</g>
											</g>
										</g>
									</g>
								</g>
							</g>
						</g>
					</g>
				</g>
			</g>
		</g>
	</g>
	<g>
		<g>
			<path class="st10" d="M1920.11,1362.08c0.02,0.74,17.04,0.92,38.02,0.41c20.98-0.51,37.97-1.53,37.96-2.27
				c-0.02-0.74-17.04-0.92-38.02-0.41C1937.08,1360.33,1920.09,1361.34,1920.11,1362.08z"/>
		</g>
	</g>
	<g>
		<g>
			<path class="st10" d="M2067.94,1360.48c0.02,0.74,18.11,0.89,40.4,0.35c22.3-0.55,40.35-1.59,40.34-2.32
				c-0.02-0.74-18.1-0.89-40.4-0.35C2085.98,1358.7,2067.92,1359.74,2067.94,1360.48z"/>
		</g>
	</g>
	<g>
		<g>
			<path class="st10" d="M2073.01,499.08c-3.3-0.1-148.29,51.42-139.93,47.68l-4-3.98l-54.62-78.11l-47.28,29.62
				c0,0,49.83,89.8,58.04,103.86c7.36,12.59,21.21,22.5,39.34,22.02c10.72-0.28,101.88-17.82,101.88-17.82L2073.01,499.08z"/>
			<g>
				<g>
					<path class="st4" d="M1923.87,580.62c0.4,0.4,6.02-5.73,9.02-15.33c3.08-9.58,2.03-17.83,1.46-17.73
						c-0.69,0-0.69,7.92-3.63,17.04C1927.87,573.75,1923.31,580.22,1923.87,580.62z"/>
				</g>
			</g>
		</g>
		<path class="st10" d="M1919.74,882.23l-18.45,0.45c0,0,32.67-109.16,42.29-152.46c6.73-30.29,11.36-105.69,13.54-148.26
			c1.04-20.25,6.94-39.93,17.2-57.42l30.27-69.79c5.29-12.21,16.21-21.07,29.24-23.74l21.51-4.42l-98.47,359.02L1919.74,882.23z"/>
	</g>
	<g>
		<g>
			<g>
				<path class="st4" d="M2121.44,739.6c17.69,35.86,30.23,67.27,27.17,106.99c-1.59,20.63-19.43,48.76-20.95,72.22
					c-3.26,50.32-1.49,141.35,1,153.54c5.59,27.39,19.96,93.99,19.96,177.98c0,84-1.41,111.49-1.41,111.49h-83.2
					c0,0-5.74-159.7-31.43-252.08c-23.86-85.8-51.32-216.27-51.32-272.87c0-56.61,0-76.69,0-76.69L2121.44,739.6L2121.44,739.6z"/>
			</g>
			<g>
				<path class="st4" d="M1959.97,753.78c0,0-98.01,262.69-96.25,334.36c0.41,16.62,56.39,273.93,56.39,273.93l83-2.59
					c0.98-65.77-38.22-265.64-38.22-265.64l71.6-187.96l-4.48-183l-70.17,10.22L1959.97,753.78z"/>
			</g>
			<g>
				<g>
					<path class="st10" d="M1983.08,893.17c-0.16,0.04,0.29,2.33,1.23,6.44c1.01,4.53,2.32,10.38,3.88,17.4
						c3.34,15.12,7.78,35.23,12.69,57.45c5.01,22.44,9.69,42.72,13.38,57.34c1.84,7.31,3.44,13.2,4.62,17.25
						c1.22,4.04,1.96,6.26,2.12,6.21c0.16-0.04-0.29-2.33-1.23-6.44c-1.01-4.53-2.32-10.38-3.88-17.4
						c-3.34-15.12-7.78-35.23-12.7-57.46c-5-22.43-9.68-42.71-13.38-57.33c-1.84-7.31-3.44-13.2-4.62-17.25
						C1983.98,895.34,1983.23,893.13,1983.08,893.17z"/>
				</g>
			</g>
		</g>
	</g>
	<g>
		<g>
			<g>
				<g>
					<g>
						
							<ellipse transform="matrix(0.9872 -0.1595 0.1595 0.9872 -47.0145 289.4874)" class="st5" cx="1780.39" cy="437.71" rx="120.9" ry="120.9"/>
					</g>
				</g>
			</g>
			<g>
				<g>
					<g>
						<circle class="st0" cx="1781.14" cy="437.71" r="104.73"/>
					</g>
				</g>
			</g>
			<g class="st6">
				<g>
					<g>
						<path d="M1873.5,437.88c0-55.84-43.27-101.47-97.84-104.7c2.05-0.12,4.11-0.2,6.18-0.2c57.45,0,104.02,46.97,104.02,104.9
							s-46.57,104.9-104.02,104.9c-2.08,0-4.14-0.08-6.18-0.2C1830.23,539.35,1873.5,493.72,1873.5,437.88z"/>
					</g>
				</g>
			</g>
		</g>
		<g>
			<g>
				<path class="st4" d="M1709.41,480.29c4.34-2.61,7.72-4.96,7.55-5.25c-0.17-0.29-3.86,1.53-8.25,4.05
					c-4.39,2.52-7.77,4.87-7.55,5.25C1701.37,484.71,1705.07,482.9,1709.41,480.29z"/>
			</g>
			<g>
				<path class="st4" d="M1739.93,509.81c2.45-4.43,4.2-8.16,3.91-8.32c-0.29-0.16-2.57,3.26-5.11,7.65
					c-2.53,4.38-4.28,8.11-3.91,8.32C1735.2,517.67,1737.49,514.24,1739.93,509.81z"/>
			</g>
			<g>
				<path class="st4" d="M1781.14,520.11c-0.09-5.06-0.43-9.17-0.76-9.16c-0.33,0-0.61,4.11-0.62,9.17
					c-0.01,5.06,0.33,9.16,0.76,9.16C1780.95,529.28,1781.23,525.17,1781.14,520.11z"/>
			</g>
			<g>
				<path class="st4" d="M1821.97,508.4c-2.61-4.34-4.96-7.72-5.25-7.55c-0.29,0.17,1.53,3.86,4.06,8.25
					c2.53,4.39,4.88,7.77,5.25,7.55C1826.4,516.43,1824.58,512.74,1821.97,508.4z"/>
			</g>
			<g>
				<path class="st4" d="M1851.49,477.87c-4.43-2.45-8.16-4.2-8.32-3.91c-0.16,0.29,3.26,2.57,7.65,5.1
					c4.38,2.53,8.11,4.28,8.32,3.91C1859.34,482.59,1855.92,480.31,1851.49,477.87z"/>
			</g>
			<g>
				<path class="st4" d="M1861.77,436.65c-5.06,0.09-9.17,0.43-9.16,0.77c0,0.33,4.11,0.61,9.17,0.62c5.06,0.01,9.16-0.33,9.16-0.77
					C1870.94,436.84,1866.83,436.56,1861.77,436.65z"/>
			</g>
			<g>
				<path class="st4" d="M1850.05,395.83c-4.34,2.61-7.72,4.97-7.55,5.25c0.17,0.29,3.86-1.53,8.25-4.06
					c4.39-2.53,7.77-4.88,7.55-5.25C1858.08,391.4,1854.38,393.21,1850.05,395.83z"/>
			</g>
			<g>
				<path class="st4" d="M1819.5,366.32c-2.44,4.44-4.19,8.16-3.91,8.32c0.29,0.16,2.57-3.26,5.1-7.65c2.53-4.38,4.28-8.11,3.9-8.32
					C1824.23,358.46,1821.94,361.89,1819.5,366.32z"/>
			</g>
			<g>
				<path class="st4" d="M1778.28,356.05c0.09,5.06,0.44,9.17,0.77,9.16c0.33,0,0.61-4.11,0.62-9.17c0.01-5.06-0.34-9.16-0.77-9.16
					C1778.47,346.88,1778.19,350.99,1778.28,356.05z"/>
			</g>
			<g>
				<path class="st4" d="M1737.46,367.79c2.62,4.34,4.97,7.71,5.25,7.55c0.29-0.17-1.53-3.86-4.06-8.25
					c-2.53-4.38-4.88-7.76-5.25-7.54C1733.03,359.76,1734.85,363.46,1737.46,367.79z"/>
			</g>
			<g>
				<path class="st4" d="M1707.97,398.34c4.44,2.44,8.16,4.19,8.32,3.9c0.16-0.29-3.26-2.57-7.65-5.1c-4.38-2.53-8.11-4.28-8.32-3.9
					C1700.11,393.62,1703.53,395.9,1707.97,398.34z"/>
			</g>
			<g>
				<path class="st4" d="M1697.71,439.57c5.06-0.1,9.17-0.44,9.16-0.77c0-0.33-4.11-0.61-9.17-0.61c-5.06-0.01-9.16,0.34-9.16,0.77
					C1688.55,439.39,1692.65,439.66,1697.71,439.57z"/>
			</g>
		</g>
		<g>
			<path class="st4" d="M1723.81,438.08c0,0.13,1.56,0.25,4.38,0.35c3.2,0.08,7.2,0.17,11.97,0.29c10.11,0.17,24.1,0.27,39.58,0.27
				l0.92,0v-0.92c0-0.26,0-0.53,0-0.81c0-15.67-0.1-29.86-0.27-40.13c-0.12-4.84-0.21-8.92-0.29-12.16
				c-0.11-2.87-0.23-4.46-0.36-4.46c-0.13,0-0.25,1.59-0.36,4.46c-0.08,3.24-0.18,7.32-0.29,12.16
				c-0.17,10.27-0.27,24.46-0.27,40.13c0,0.28,0,0.55,0,0.81l0.92-0.92c-15.49,0-29.47,0.11-39.58,0.27
				c-4.77,0.12-8.77,0.21-11.97,0.29C1725.37,437.83,1723.81,437.95,1723.81,438.08z"/>
		</g>
		<g>
			<g>
				<g>
					<g>
						<path class="st4" d="M1676.41,437.71c0,0,0.09-0.57,0.18-1.69c0.08-1.2,0.2-2.85,0.34-4.97c0.07-1.1,0.14-2.32,0.23-3.66
							c0.15-1.34,0.44-2.79,0.67-4.37c0.5-3.16,0.99-6.81,2.2-10.79c1.86-8.08,5.65-17.62,11.62-27.73
							c6.02-10.07,14.7-20.59,26.51-29.51c11.77-8.84,26.63-16.36,43.78-19.39c4.3-0.61,8.64-1.49,13.14-1.51
							c2.24-0.08,4.5-0.29,6.78-0.26c2.28,0.12,4.57,0.24,6.88,0.36c1.15,0.08,2.32,0.07,3.47,0.23l3.46,0.53
							c2.31,0.38,4.66,0.66,6.99,1.14c4.59,1.25,9.34,2.18,13.85,4.07c4.66,1.49,9.04,3.8,13.54,5.96c2.19,1.19,4.3,2.58,6.47,3.87
							c2.21,1.23,4.24,2.77,6.27,4.32c4.22,2.9,7.91,6.52,11.78,10.01c3.49,3.87,7.16,7.65,10.17,12.04
							c6.18,8.58,11.57,18.12,14.84,28.6c3.38,10.42,5.21,21.49,5.36,32.75c-0.15,11.27-1.97,22.34-5.35,32.77
							c-3.26,10.49-8.66,20.03-14.84,28.61c-3.01,4.39-6.68,8.17-10.17,12.04c-3.87,3.49-7.56,7.12-11.78,10.02
							c-2.03,1.55-4.05,3.09-6.27,4.32c-2.17,1.29-4.27,2.68-6.47,3.87c-4.5,2.16-8.89,4.47-13.55,5.96
							c-4.52,1.89-9.27,2.82-13.85,4.07c-2.33,0.48-4.68,0.75-6.99,1.14l-3.47,0.53c-1.15,0.15-2.32,0.15-3.47,0.23
							c-2.31,0.12-4.6,0.24-6.88,0.36c-2.28,0.04-4.53-0.18-6.78-0.26c-4.5-0.02-8.85-0.91-13.15-1.51
							c-17.15-3.04-32.01-10.56-43.78-19.4c-11.81-8.93-20.49-19.44-26.51-29.51c-5.97-10.11-9.77-19.65-11.62-27.73
							c-1.21-3.98-1.69-7.64-2.2-10.79c-0.24-1.58-0.53-3.03-0.67-4.37c-0.08-1.34-0.16-2.56-0.23-3.66
							c-0.15-2.12-0.26-3.77-0.34-4.97C1676.5,438.28,1676.41,437.71,1676.41,437.71s-0.03,0.57-0.01,1.7
							c0.04,1.2,0.09,2.86,0.16,4.99c0.04,1.1,0.09,2.33,0.14,3.68c0.12,1.35,0.38,2.81,0.59,4.4c0.45,3.18,0.88,6.87,2.04,10.89
							c1.76,8.16,5.48,17.82,11.43,28.08c6,10.22,14.7,20.92,26.6,30.02c11.87,9.02,26.9,16.71,44.29,19.86
							c4.36,0.63,8.77,1.54,13.33,1.58c2.27,0.09,4.57,0.31,6.88,0.28c2.31-0.11,4.64-0.23,6.98-0.34c1.17-0.08,2.35-0.07,3.53-0.22
							l3.52-0.53c2.35-0.38,4.74-0.65,7.1-1.14c4.66-1.25,9.49-2.19,14.09-4.1c4.74-1.51,9.2-3.84,13.78-6.03
							c2.23-1.21,4.37-2.61,6.58-3.92c2.25-1.25,4.31-2.81,6.38-4.38c4.3-2.94,8.06-6.62,11.99-10.17
							c3.56-3.92,7.29-7.77,10.37-12.23c6.3-8.73,11.79-18.43,15.12-29.1c3.45-10.61,5.3-21.88,5.45-33.34
							c-0.15-11.46-2.01-22.73-5.46-33.33c-3.33-10.67-8.83-20.37-15.12-29.09c-3.07-4.46-6.8-8.31-10.36-12.23
							c-3.93-3.55-7.7-7.22-11.99-10.17c-2.07-1.57-4.13-3.13-6.38-4.38c-2.21-1.31-4.35-2.71-6.58-3.92
							c-4.58-2.19-9.04-4.52-13.78-6.03c-4.59-1.91-9.42-2.85-14.09-4.1c-2.36-0.48-4.75-0.75-7.1-1.14l-3.52-0.53
							c-1.17-0.15-2.36-0.14-3.53-0.22c-2.35-0.11-4.67-0.23-6.98-0.34c-2.31-0.03-4.6,0.2-6.88,0.28
							c-4.57,0.04-8.98,0.95-13.33,1.58c-17.39,3.15-32.42,10.84-44.29,19.86c-11.91,9.1-20.61,19.8-26.61,30.02
							c-5.95,10.26-9.67,19.93-11.43,28.09c-1.17,4.02-1.59,7.71-2.04,10.89c-0.21,1.59-0.47,3.05-0.59,4.4
							c-0.05,1.35-0.1,2.57-0.14,3.68c-0.07,2.13-0.12,3.79-0.16,4.99C1676.38,437.13,1676.41,437.71,1676.41,437.71z"/>
					</g>
				</g>
			</g>
		</g>
	</g>
	<g>
		<g>
			<path class="st1" d="M1961.41,745.6l119.62,3.75l38.76-278.19l25.7-39.21l-3.02-28.91l-81.75,30.63l-1.42-12.19l-41.98,57.73
				c0,0-39.94,67.88-43.32,90.46c-1.67,11.15-4.46,39.02-4.46,39.02l-5.64,64.72L1961.41,745.6z"/>
		</g>
	</g>
	<g>
		<g class="st6">
			<path d="M2130.83,900.49c0,0-95.85,11.4-121.69,6.67c-4.77-0.87-8.91-2.45-12.49-4.42c-11.95-6.58-19.34-19.17-20.54-32.76
				c-2.19-24.87-2.29-72.77-1.99-87.47c0.43-21.18,13.85-64.95,13.85-64.95l149.74,165.11L2130.83,900.49z"/>
		</g>
		<g>
			<path class="st10" d="M2200.73,467.09c23.12,22.75,27.13,50.59,9.66,96.26c-2.9,7.58-33.21,64.57-37.75,73.1
				c-13.33,25.01-25.89,63.36-21.58,77.29c25.43,82.3,5.69,176,5.69,176s-139.27,14.24-154.68-1.11
				c-15.4-15.35-19.04-115.4-15.28-159.41c4.15-48.55,21.32-125.48,30.69-156.05c5.63-18.39,15.43-61.44,38.66-91.8
				c17.37-22.7,27.26-28.38,50.78-44.63l38.13-20.96l4.77,14.81L2200.73,467.09z"/>
		</g>
		<g>
			<g>
				<polygon class="st10" points="2141.07,770.06 2126.03,741.38 2025.76,745.6 2037.64,775.36 				"/>
			</g>
			<g>
				<g>
					<path class="st4" d="M2141.08,770.06c-0.06-0.03-0.81-0.03-2.19,0c-1.6,0.05-3.56,0.11-5.96,0.18
						c-5.42,0.2-12.77,0.47-21.84,0.8c-18.51,0.7-44.13,1.71-73.5,3.16l1.13,0.72c-3.61-9.06-7.41-18.61-11.32-28.43
						c-0.18-0.45-0.36-0.9-0.53-1.34l-1.05,1.62c40.36-1.7,76.41-3.38,100.25-4.63l-0.71-0.41c4.74,8.61,8.56,15.56,11.35,20.64
						c1.28,2.29,2.32,4.15,3.16,5.65C2140.6,769.33,2141.01,770.03,2141.08,770.06c0.06,0.04-0.22-0.59-0.83-1.85
						c-0.73-1.49-1.63-3.34-2.75-5.61c-2.65-5.31-6.29-12.57-10.8-21.57l-0.21-0.43l-0.5,0.02c-23.86,0.75-59.92,2.11-100.28,3.8
						l-1.67,0.07l0.62,1.55c0.17,0.43,0.35,0.88,0.53,1.34c3.93,9.81,7.75,19.36,11.38,28.41l0.31,0.77l0.82-0.04
						c29.96-1.58,56.05-3.23,74.43-4.41c8.91-0.59,16.14-1.06,21.46-1.41c2.27-0.17,4.14-0.3,5.65-0.41
						C2140.51,770.17,2141.14,770.1,2141.08,770.06z"/>
				</g>
			</g>
		</g>
		<g>
			<g>
				<path class="st4" d="M2024.68,720.3c0.06,0.65,24.2-0.95,53.91-3.59c29.72-2.64,53.77-5.3,53.71-5.95
					c-0.06-0.65-24.19,0.95-53.92,3.59C2048.67,716.98,2024.63,719.65,2024.68,720.3z"/>
			</g>
		</g>
		<g class="st6">
			<polygon points="2133.04,770.43 2135.02,779.17 2031.22,784.65 2025.76,745.6 2037.64,775.36 			"/>
		</g>
	</g>
	<path class="st8" d="M2137.62,405.94"/>
	<g>
		<path class="st4" d="M2043.54,443.71c0.25-0.03,0.96,3.41,1.94,9.19l-1.18-0.36c3.69-4.43,8.94-10.56,15.02-17.5l1.7-1.94
			l0.13,2.59c0.14,2.97,0.3,6.06,0.45,9.25c0.23,5.77,0.46,11.27,0.66,16.37l-1.36-0.87c6.93-2.73,12.84-4.98,17.04-6.51
			c4.2-1.52,6.69-2.31,6.77-2.11c0.08,0.2-2.25,1.38-6.32,3.22c-4.07,1.84-9.88,4.35-16.74,7.22l-1.29,0.54l-0.07-1.41
			c-0.26-5.1-0.54-10.59-0.84-16.36c-0.14-3.19-0.27-6.28-0.4-9.25l1.83,0.65c-6.16,6.87-11.61,12.82-15.57,17.01l-1.03,1.09
			l-0.15-1.44C2043.53,447.25,2043.29,443.75,2043.54,443.71z"/>
	</g>
	<g>
		<g>
			<g>
				<g>
					<g>
						<g>
							<path class="st8" d="M1877.88,542.98c0,0-3.83-11.49-9.56-17.13c-5.73-5.65-14.19-12.34-15.04-14.52
								c-0.85-2.18-1.4-8.87-6.33-8.11c-4.93,0.76-12.28,8.79-5.09,21.57l6.36,8.81c0,0-8.77,7.61-13.89,9.11
								c-5.12,1.49-67.36,12.62-67.36,12.62s-5.1-0.34-6.57,4.93c-1.47,5.27,6.57,8.05,6.57,8.05c-1.53,4.72,0.11,8.68,5.4,11.74
								c0.6,4.52,5.92,8.45,16.48,7.25c0,0-0.29,5.63,11.88,6.75c12.18,1.12,67.59-8.91,67.59-8.91l20.34-34.28L1877.88,542.98z"/>
						</g>
					</g>
					<g>
						<g>
							<path class="st8" d="M1918.58,556.23l-40.7-13.25l-9.56,42.14l42.59,29.09C1910.91,614.21,1947.08,583.27,1918.58,556.23z"/>
						</g>
					</g>
				</g>
				<g>
					<g>
						<path class="st9" d="M1826.23,581.02c-0.17-0.6-8.59,1.29-19.07,3.02c-10.47,1.76-19.05,2.71-19.01,3.33
							c0.02,0.57,8.77,0.58,19.37-1.2C1818.12,584.42,1826.39,581.57,1826.23,581.02z"/>
					</g>
				</g>
				<g>
					<g>
						<path class="st9" d="M1825.08,569.83c-0.07-0.64-12.35,0.69-27.1,4.05c-14.73,3.35-26.7,5.61-26.65,6.16
							c0.07,0.64,12.35-0.69,27.1-4.05C1813.16,572.64,1825.14,570.38,1825.08,569.83z"/>
					</g>
				</g>
				<g>
					<g>
						<path class="st9" d="M1766.28,568.02c-0.01,0.28,2.99,0.61,7.8,0.28c4.8-0.32,11.38-1.28,18.54-2.79
							c14.31-3.03,25.6-6.63,25.46-7.16c-0.16-0.62-11.68,2.04-25.9,5.05c-7.11,1.5-13.57,2.68-18.26,3.39
							C1769.22,567.5,1766.29,567.7,1766.28,568.02z"/>
					</g>
				</g>
			</g>
		</g>
		<path class="st10" d="M2142.23,448.92c45.89-8.98,76.71,46.62,46.42,82.24c-32.62,38.36-98.74,111.01-139.91,121.45
			c-56.34,14.29-169.99-58.43-169.99-58.43l22.94-54.52l119.78,40.48c0,0,80.92-112.7,107.96-126.82
			C2133.29,451.31,2137.63,449.82,2142.23,448.92z"/>
		<g>
			<path class="st4" d="M2172.64,458.3c-0.1,0.31-4.77-2.97-14.74-4.6c-4.95-0.75-11.26-0.79-18.31,0.91
				c-7.04,1.67-14.84,4.96-22.48,10.25c-3.8,2.66-7.57,5.8-11.15,9.47c-3.61,3.62-6.84,7.91-10.36,12.31
				c-7,8.79-14.54,18.26-22.58,28.34c-16.11,20.18-34.18,42.81-53.74,67.31l-0.43,0.53l-0.64-0.21
				c-35.99-12.13-75.64-25.5-117.35-39.56l1.33-0.6c-2.7,6.42-5.59,13.3-8.51,20.22c-4.78,11.36-9.51,22.59-13.96,33.17l-0.42-1.32
				c19.35,11.65,38.86,21.95,57.99,30.98c19.15,8.99,38.06,16.66,56.6,21.96c9.27,2.62,18.46,4.62,27.49,5.53
				c9,0.89,17.93,0.77,25.94-1.96c16.2-5.11,29.66-13.96,41.25-22.45c23.12-17.36,39.23-34.36,50.24-45.98
				c5.45-5.88,9.59-10.52,12.34-13.7c1.33-1.53,2.37-2.73,3.14-3.61c0.71-0.81,1.08-1.22,1.11-1.2c0,0-0.29,0.48-0.95,1.33
				c-0.73,0.91-1.72,2.15-2.99,3.74c-2.66,3.27-6.7,8-12.07,13.97c-10.85,11.8-26.82,28.99-49.95,46.6
				c-11.61,8.62-25.11,17.62-41.63,22.93c-8.26,2.85-17.48,3-26.61,2.13c-9.18-0.89-18.48-2.89-27.83-5.5
				c-18.71-5.28-37.72-12.94-56.96-21.93c-19.23-9.05-38.75-19.32-58.24-31.04l-0.78-0.47l0.36-0.85
				c4.45-10.58,9.17-21.81,13.95-33.17c2.91-6.93,5.81-13.8,8.51-20.22l0.39-0.92l0.94,0.32c41.67,14.12,81.3,27.54,117.26,39.73
				l-1.06,0.32c19.65-24.43,37.81-46.99,53.99-67.11c8.09-10.04,15.7-19.47,22.75-28.21c3.53-4.34,6.83-8.67,10.54-12.33
				c3.66-3.69,7.52-6.85,11.41-9.52c7.81-5.31,15.76-8.56,22.94-10.17c7.2-1.63,13.61-1.5,18.61-0.64c5.03,0.85,8.7,2.31,11.11,3.36
				C2171.48,457.58,2172.64,458.3,2172.64,458.3z"/>
		</g>
	</g>
</g>
</svg>
